<svg xmlns="http://www.w3.org/2000/svg" xmlns:xlink="http://www.w3.org/1999/xlink" width="614.4" height="460.8" version="1.1" viewBox="0 0 460.8 345.6"><metadata><rdf:RDF xmlns:cc="http://creativecommons.org/ns#" xmlns:dc="http://purl.org/dc/elements/1.1/" xmlns:rdf="http://www.w3.org/1999/02/22-rdf-syntax-ns#"><cc:Work><dc:type rdf:resource="http://purl.org/dc/dcmitype/StillImage"/><dc:date>2023-08-09T19:22:08.236105</dc:date><dc:format>image/svg+xml</dc:format><dc:creator><cc:Agent><dc:title>Matplotlib v3.5.1, https://matplotlib.org/</dc:title></cc:Agent></dc:creator></cc:Work></rdf:RDF></metadata><defs><style type="text/css">*{stroke-linejoin:round;stroke-linecap:butt}</style></defs><g id="figure_1"><g id="patch_1"><path d="M 0 345.6 L 460.8 345.6 L 460.8 0 L 0 0 L 0 345.6 z" style="fill:none"/></g><g id="axes_1"><g id="patch_2"><path d="M 57.6 307.584 L 414.72 307.584 L 414.72 41.472 L 57.6 41.472 L 57.6 307.584 z" style="fill:none"/></g><g id="PathCollection_1"><defs><path id="m6d800a6a62" d="M 0 3 C 0.795609 3 1.55874 2.683901 2.12132 2.12132 C 2.683901 1.55874 3 0.795609 3 0 C 3 -0.795609 2.683901 -1.55874 2.12132 -2.12132 C 1.55874 -2.683901 0.795609 -3 0 -3 C -0.795609 -3 -1.55874 -2.683901 -2.12132 -2.12132 C -2.683901 -1.55874 -3 -0.795609 -3 0 C -3 0.795609 -2.683901 1.55874 -2.12132 2.12132 C -1.55874 2.683901 -0.795609 3 0 3 z" style="stroke:#00f"/></defs><g clip-path="url(#p1f4c3656d5)"><use x="129" y="212.296" xlink:href="#m6d800a6a62" style="fill:#00f;stroke:#00f"/><use x="349.064" y="68.481" xlink:href="#m6d800a6a62" style="fill:#00f;stroke:#00f"/><use x="297.675" y="87.152" xlink:href="#m6d800a6a62" style="fill:#00f;stroke:#00f"/><use x="99.225" y="295.488" xlink:href="#m6d800a6a62" style="fill:#00f;stroke:#00f"/><use x="398.487" y="73.799" xlink:href="#m6d800a6a62" style="fill:#00f;stroke:#00f"/><use x="324.276" y="82.898" xlink:href="#m6d800a6a62" style="fill:#00f;stroke:#00f"/><use x="303.645" y="58.909" xlink:href="#m6d800a6a62" style="fill:#00f;stroke:#00f"/><use x="284.601" y="190.788" xlink:href="#m6d800a6a62" style="fill:#00f;stroke:#00f"/><use x="73.833" y="247.983" xlink:href="#m6d800a6a62" style="fill:#00f;stroke:#00f"/><use x="191.346" y="177.08" xlink:href="#m6d800a6a62" style="fill:#00f;stroke:#00f"/></g></g><g id="matplotlib.axis_1"><g id="xtick_1"><g id="line2d_1"><defs><path id="m1459134fc3" d="M 0 0 L 0 3.5" style="stroke:#fff;stroke-width:.8"/></defs><g><use x="101.794" y="307.584" xlink:href="#m1459134fc3" style="fill:#fff;stroke:#fff;stroke-width:.8"/></g></g><g id="text_1"><g style="fill:#fff" transform="translate(89.069129 322.182437)scale(0.1 -0.1)"><defs><path id="DejaVuSans-32" d="M 1228 531 L 3431 531 L 3431 0 L 469 0 L 469 531 Q 828 903 1448 1529 Q 2069 2156 2228 2338 Q 2531 2678 2651 2914 Q 2772 3150 2772 3378 Q 2772 3750 2511 3984 Q 2250 4219 1831 4219 Q 1534 4219 1204 4116 Q 875 4013 500 3803 L 500 4441 Q 881 4594 1212 4672 Q 1544 4750 1819 4750 Q 2544 4750 2975 4387 Q 3406 4025 3406 3419 Q 3406 3131 3298 2873 Q 3191 2616 2906 2266 Q 2828 2175 2409 1742 Q 1991 1309 1228 531 z" transform="scale(0.015625)"/><path id="DejaVuSans-30" d="M 2034 4250 Q 1547 4250 1301 3770 Q 1056 3291 1056 2328 Q 1056 1369 1301 889 Q 1547 409 2034 409 Q 2525 409 2770 889 Q 3016 1369 3016 2328 Q 3016 3291 2770 3770 Q 2525 4250 2034 4250 z M 2034 4750 Q 2819 4750 3233 4129 Q 3647 3509 3647 2328 Q 3647 1150 3233 529 Q 2819 -91 2034 -91 Q 1250 -91 836 529 Q 422 1150 422 2328 Q 422 3509 836 4129 Q 1250 4750 2034 4750 z" transform="scale(0.015625)"/></defs><use xlink:href="#DejaVuSans-32"/><use x="63.623" xlink:href="#DejaVuSans-30"/><use x="127.246" xlink:href="#DejaVuSans-30"/><use x="190.869" xlink:href="#DejaVuSans-30"/></g></g></g><g id="xtick_2"><g id="line2d_2"><g><use x="177.365" y="307.584" xlink:href="#m1459134fc3" style="fill:#fff;stroke:#fff;stroke-width:.8"/></g></g><g id="text_2"><g style="fill:#fff" transform="translate(164.640485 322.182437)scale(0.1 -0.1)"><defs><path id="DejaVuSans-33" d="M 2597 2516 Q 3050 2419 3304 2112 Q 3559 1806 3559 1356 Q 3559 666 3084 287 Q 2609 -91 1734 -91 Q 1441 -91 1130 -33 Q 819 25 488 141 L 488 750 Q 750 597 1062 519 Q 1375 441 1716 441 Q 2309 441 2620 675 Q 2931 909 2931 1356 Q 2931 1769 2642 2001 Q 2353 2234 1838 2234 L 1294 2234 L 1294 2753 L 1863 2753 Q 2328 2753 2575 2939 Q 2822 3125 2822 3475 Q 2822 3834 2567 4026 Q 2313 4219 1838 4219 Q 1578 4219 1281 4162 Q 984 4106 628 3988 L 628 4550 Q 988 4650 1302 4700 Q 1616 4750 1894 4750 Q 2613 4750 3031 4423 Q 3450 4097 3450 3541 Q 3450 3153 3228 2886 Q 3006 2619 2597 2516 z" transform="scale(0.015625)"/></defs><use xlink:href="#DejaVuSans-33"/><use x="63.623" xlink:href="#DejaVuSans-30"/><use x="127.246" xlink:href="#DejaVuSans-30"/><use x="190.869" xlink:href="#DejaVuSans-30"/></g></g></g><g id="xtick_3"><g id="line2d_3"><g><use x="252.937" y="307.584" xlink:href="#m1459134fc3" style="fill:#fff;stroke:#fff;stroke-width:.8"/></g></g><g id="text_3"><g style="fill:#fff" transform="translate(240.211841 322.182437)scale(0.1 -0.1)"><defs><path id="DejaVuSans-34" d="M 2419 4116 L 825 1625 L 2419 1625 L 2419 4116 z M 2253 4666 L 3047 4666 L 3047 1625 L 3713 1625 L 3713 1100 L 3047 1100 L 3047 0 L 2419 0 L 2419 1100 L 313 1100 L 313 1709 L 2253 4666 z" transform="scale(0.015625)"/></defs><use xlink:href="#DejaVuSans-34"/><use x="63.623" xlink:href="#DejaVuSans-30"/><use x="127.246" xlink:href="#DejaVuSans-30"/><use x="190.869" xlink:href="#DejaVuSans-30"/></g></g></g><g id="xtick_4"><g id="line2d_4"><g><use x="328.508" y="307.584" xlink:href="#m1459134fc3" style="fill:#fff;stroke:#fff;stroke-width:.8"/></g></g><g id="text_4"><g style="fill:#fff" transform="translate(315.783197 322.182437)scale(0.1 -0.1)"><defs><path id="DejaVuSans-35" d="M 691 4666 L 3169 4666 L 3169 4134 L 1269 4134 L 1269 2991 Q 1406 3038 1543 3061 Q 1681 3084 1819 3084 Q 2600 3084 3056 2656 Q 3513 2228 3513 1497 Q 3513 744 3044 326 Q 2575 -91 1722 -91 Q 1428 -91 1123 -41 Q 819 9 494 109 L 494 744 Q 775 591 1075 516 Q 1375 441 1709 441 Q 2250 441 2565 725 Q 2881 1009 2881 1497 Q 2881 1984 2565 2268 Q 2250 2553 1709 2553 Q 1456 2553 1204 2497 Q 953 2441 691 2322 L 691 4666 z" transform="scale(0.015625)"/></defs><use xlink:href="#DejaVuSans-35"/><use x="63.623" xlink:href="#DejaVuSans-30"/><use x="127.246" xlink:href="#DejaVuSans-30"/><use x="190.869" xlink:href="#DejaVuSans-30"/></g></g></g><g id="xtick_5"><g id="line2d_5"><g><use x="404.08" y="307.584" xlink:href="#m1459134fc3" style="fill:#fff;stroke:#fff;stroke-width:.8"/></g></g><g id="text_5"><g style="fill:#fff" transform="translate(391.354553 322.182437)scale(0.1 -0.1)"><defs><path id="DejaVuSans-36" d="M 2113 2584 Q 1688 2584 1439 2293 Q 1191 2003 1191 1497 Q 1191 994 1439 701 Q 1688 409 2113 409 Q 2538 409 2786 701 Q 3034 994 3034 1497 Q 3034 2003 2786 2293 Q 2538 2584 2113 2584 z M 3366 4563 L 3366 3988 Q 3128 4100 2886 4159 Q 2644 4219 2406 4219 Q 1781 4219 1451 3797 Q 1122 3375 1075 2522 Q 1259 2794 1537 2939 Q 1816 3084 2150 3084 Q 2853 3084 3261 2657 Q 3669 2231 3669 1497 Q 3669 778 3244 343 Q 2819 -91 2113 -91 Q 1303 -91 875 529 Q 447 1150 447 2328 Q 447 3434 972 4092 Q 1497 4750 2381 4750 Q 2619 4750 2861 4703 Q 3103 4656 3366 4563 z" transform="scale(0.015625)"/></defs><use xlink:href="#DejaVuSans-36"/><use x="63.623" xlink:href="#DejaVuSans-30"/><use x="127.246" xlink:href="#DejaVuSans-30"/><use x="190.869" xlink:href="#DejaVuSans-30"/></g></g></g><g id="text_6"><g style="fill:#fff" transform="translate(173.214687 335.860562)scale(0.1 -0.1)"><defs><path id="DejaVuSans-53" d="M 3425 4513 L 3425 3897 Q 3066 4069 2747 4153 Q 2428 4238 2131 4238 Q 1616 4238 1336 4038 Q 1056 3838 1056 3469 Q 1056 3159 1242 3001 Q 1428 2844 1947 2747 L 2328 2669 Q 3034 2534 3370 2195 Q 3706 1856 3706 1288 Q 3706 609 3251 259 Q 2797 -91 1919 -91 Q 1588 -91 1214 -16 Q 841 59 441 206 L 441 856 Q 825 641 1194 531 Q 1563 422 1919 422 Q 2459 422 2753 634 Q 3047 847 3047 1241 Q 3047 1584 2836 1778 Q 2625 1972 2144 2069 L 1759 2144 Q 1053 2284 737 2584 Q 422 2884 422 3419 Q 422 4038 858 4394 Q 1294 4750 2059 4750 Q 2388 4750 2728 4690 Q 3069 4631 3425 4513 z" transform="scale(0.015625)"/><path id="DejaVuSans-71" d="M 947 1747 Q 947 1113 1208 752 Q 1469 391 1925 391 Q 2381 391 2643 752 Q 2906 1113 2906 1747 Q 2906 2381 2643 2742 Q 2381 3103 1925 3103 Q 1469 3103 1208 2742 Q 947 2381 947 1747 z M 2906 525 Q 2725 213 2448 61 Q 2172 -91 1784 -91 Q 1150 -91 751 415 Q 353 922 353 1747 Q 353 2572 751 3078 Q 1150 3584 1784 3584 Q 2172 3584 2448 3432 Q 2725 3281 2906 2969 L 2906 3500 L 3481 3500 L 3481 -1331 L 2906 -1331 L 2906 525 z" transform="scale(0.015625)"/><path id="DejaVuSans-75" d="M 544 1381 L 544 3500 L 1119 3500 L 1119 1403 Q 1119 906 1312 657 Q 1506 409 1894 409 Q 2359 409 2629 706 Q 2900 1003 2900 1516 L 2900 3500 L 3475 3500 L 3475 0 L 2900 0 L 2900 538 Q 2691 219 2414 64 Q 2138 -91 1772 -91 Q 1169 -91 856 284 Q 544 659 544 1381 z M 1991 3584 L 1991 3584 z" transform="scale(0.015625)"/><path id="DejaVuSans-61" d="M 2194 1759 Q 1497 1759 1228 1600 Q 959 1441 959 1056 Q 959 750 1161 570 Q 1363 391 1709 391 Q 2188 391 2477 730 Q 2766 1069 2766 1631 L 2766 1759 L 2194 1759 z M 3341 1997 L 3341 0 L 2766 0 L 2766 531 Q 2569 213 2275 61 Q 1981 -91 1556 -91 Q 1019 -91 701 211 Q 384 513 384 1019 Q 384 1609 779 1909 Q 1175 2209 1959 2209 L 2766 2209 L 2766 2266 Q 2766 2663 2505 2880 Q 2244 3097 1772 3097 Q 1472 3097 1187 3025 Q 903 2953 641 2809 L 641 3341 Q 956 3463 1253 3523 Q 1550 3584 1831 3584 Q 2591 3584 2966 3190 Q 3341 2797 3341 1997 z" transform="scale(0.015625)"/><path id="DejaVuSans-72" d="M 2631 2963 Q 2534 3019 2420 3045 Q 2306 3072 2169 3072 Q 1681 3072 1420 2755 Q 1159 2438 1159 1844 L 1159 0 L 581 0 L 581 3500 L 1159 3500 L 1159 2956 Q 1341 3275 1631 3429 Q 1922 3584 2338 3584 Q 2397 3584 2469 3576 Q 2541 3569 2628 3553 L 2631 2963 z" transform="scale(0.015625)"/><path id="DejaVuSans-65" d="M 3597 1894 L 3597 1613 L 953 1613 Q 991 1019 1311 708 Q 1631 397 2203 397 Q 2534 397 2845 478 Q 3156 559 3463 722 L 3463 178 Q 3153 47 2828 -22 Q 2503 -91 2169 -91 Q 1331 -91 842 396 Q 353 884 353 1716 Q 353 2575 817 3079 Q 1281 3584 2069 3584 Q 2775 3584 3186 3129 Q 3597 2675 3597 1894 z M 3022 2063 Q 3016 2534 2758 2815 Q 2500 3097 2075 3097 Q 1594 3097 1305 2825 Q 1016 2553 972 2059 L 3022 2063 z" transform="scale(0.015625)"/><path id="DejaVuSans-20" transform="scale(0.015625)"/><path id="DejaVuSans-46" d="M 628 4666 L 3309 4666 L 3309 4134 L 1259 4134 L 1259 2759 L 3109 2759 L 3109 2228 L 1259 2228 L 1259 0 L 628 0 L 628 4666 z" transform="scale(0.015625)"/><path id="DejaVuSans-6f" d="M 1959 3097 Q 1497 3097 1228 2736 Q 959 2375 959 1747 Q 959 1119 1226 758 Q 1494 397 1959 397 Q 2419 397 2687 759 Q 2956 1122 2956 1747 Q 2956 2369 2687 2733 Q 2419 3097 1959 3097 z M 1959 3584 Q 2709 3584 3137 3096 Q 3566 2609 3566 1747 Q 3566 888 3137 398 Q 2709 -91 1959 -91 Q 1206 -91 779 398 Q 353 888 353 1747 Q 353 2609 779 3096 Q 1206 3584 1959 3584 z" transform="scale(0.015625)"/><path id="DejaVuSans-74" d="M 1172 4494 L 1172 3500 L 2356 3500 L 2356 3053 L 1172 3053 L 1172 1153 Q 1172 725 1289 603 Q 1406 481 1766 481 L 2356 481 L 2356 0 L 1766 0 Q 1100 0 847 248 Q 594 497 594 1153 L 594 3053 L 172 3053 L 172 3500 L 594 3500 L 594 4494 L 1172 4494 z" transform="scale(0.015625)"/><path id="DejaVuSans-67" d="M 2906 1791 Q 2906 2416 2648 2759 Q 2391 3103 1925 3103 Q 1463 3103 1205 2759 Q 947 2416 947 1791 Q 947 1169 1205 825 Q 1463 481 1925 481 Q 2391 481 2648 825 Q 2906 1169 2906 1791 z M 3481 434 Q 3481 -459 3084 -895 Q 2688 -1331 1869 -1331 Q 1566 -1331 1297 -1286 Q 1028 -1241 775 -1147 L 775 -588 Q 1028 -725 1275 -790 Q 1522 -856 1778 -856 Q 2344 -856 2625 -561 Q 2906 -266 2906 331 L 2906 616 Q 2728 306 2450 153 Q 2172 0 1784 0 Q 1141 0 747 490 Q 353 981 353 1791 Q 353 2603 747 3093 Q 1141 3584 1784 3584 Q 2172 3584 2450 3431 Q 2728 3278 2906 2969 L 2906 3500 L 3481 3500 L 3481 434 z" transform="scale(0.015625)"/><path id="DejaVuSans-66" d="M 2375 4863 L 2375 4384 L 1825 4384 Q 1516 4384 1395 4259 Q 1275 4134 1275 3809 L 1275 3500 L 2222 3500 L 2222 3053 L 1275 3053 L 1275 0 L 697 0 L 697 3053 L 147 3053 L 147 3500 L 697 3500 L 697 3744 Q 697 4328 969 4595 Q 1241 4863 1831 4863 L 2375 4863 z" transform="scale(0.015625)"/><path id="DejaVuSans-48" d="M 628 4666 L 1259 4666 L 1259 2753 L 3553 2753 L 3553 4666 L 4184 4666 L 4184 0 L 3553 0 L 3553 2222 L 1259 2222 L 1259 0 L 628 0 L 628 4666 z" transform="scale(0.015625)"/><path id="DejaVuSans-73" d="M 2834 3397 L 2834 2853 Q 2591 2978 2328 3040 Q 2066 3103 1784 3103 Q 1356 3103 1142 2972 Q 928 2841 928 2578 Q 928 2378 1081 2264 Q 1234 2150 1697 2047 L 1894 2003 Q 2506 1872 2764 1633 Q 3022 1394 3022 966 Q 3022 478 2636 193 Q 2250 -91 1575 -91 Q 1294 -91 989 -36 Q 684 19 347 128 L 347 722 Q 666 556 975 473 Q 1284 391 1588 391 Q 1994 391 2212 530 Q 2431 669 2431 922 Q 2431 1156 2273 1281 Q 2116 1406 1581 1522 L 1381 1569 Q 847 1681 609 1914 Q 372 2147 372 2553 Q 372 3047 722 3315 Q 1072 3584 1716 3584 Q 2034 3584 2315 3537 Q 2597 3491 2834 3397 z" transform="scale(0.015625)"/></defs><use xlink:href="#DejaVuSans-53"/><use x="63.477" xlink:href="#DejaVuSans-71"/><use x="126.953" xlink:href="#DejaVuSans-75"/><use x="190.332" xlink:href="#DejaVuSans-61"/><use x="251.611" xlink:href="#DejaVuSans-72"/><use x="290.475" xlink:href="#DejaVuSans-65"/><use x="351.998" xlink:href="#DejaVuSans-20"/><use x="383.785" xlink:href="#DejaVuSans-46"/><use x="437.68" xlink:href="#DejaVuSans-6f"/><use x="498.861" xlink:href="#DejaVuSans-6f"/><use x="560.043" xlink:href="#DejaVuSans-74"/><use x="599.252" xlink:href="#DejaVuSans-61"/><use x="660.531" xlink:href="#DejaVuSans-67"/><use x="724.008" xlink:href="#DejaVuSans-65"/><use x="785.531" xlink:href="#DejaVuSans-20"/><use x="817.318" xlink:href="#DejaVuSans-6f"/><use x="878.5" xlink:href="#DejaVuSans-66"/><use x="913.705" xlink:href="#DejaVuSans-20"/><use x="945.492" xlink:href="#DejaVuSans-48"/><use x="1020.688" xlink:href="#DejaVuSans-6f"/><use x="1081.869" xlink:href="#DejaVuSans-75"/><use x="1145.248" xlink:href="#DejaVuSans-73"/><use x="1197.348" xlink:href="#DejaVuSans-65"/></g></g></g><g id="matplotlib.axis_2"><g id="ytick_1"><g id="line2d_6"><defs><path id="ma497a5489c" d="M 0 0 L -3.5 0" style="stroke:#fff;stroke-width:.8"/></defs><g><use x="57.6" y="254.719" xlink:href="#ma497a5489c" style="fill:#fff;stroke:#fff;stroke-width:.8"/></g></g><g id="text_7"><g style="fill:#fff" transform="translate(25.15 258.518168)scale(0.1 -0.1)"><defs><path id="DejaVuSans-31" d="M 794 531 L 1825 531 L 1825 4091 L 703 3866 L 703 4441 L 1819 4666 L 2450 4666 L 2450 531 L 3481 531 L 3481 0 L 794 0 L 794 531 z" transform="scale(0.015625)"/></defs><use xlink:href="#DejaVuSans-31"/><use x="63.623" xlink:href="#DejaVuSans-30"/><use x="127.246" xlink:href="#DejaVuSans-30"/><use x="190.869" xlink:href="#DejaVuSans-30"/></g></g></g><g id="ytick_2"><g id="line2d_7"><g><use x="57.6" y="195.633" xlink:href="#ma497a5489c" style="fill:#fff;stroke:#fff;stroke-width:.8"/></g></g><g id="text_8"><g style="fill:#fff" transform="translate(25.15 199.432588)scale(0.1 -0.1)"><use xlink:href="#DejaVuSans-31"/><use x="63.623" xlink:href="#DejaVuSans-35"/><use x="127.246" xlink:href="#DejaVuSans-30"/><use x="190.869" xlink:href="#DejaVuSans-30"/></g></g></g><g id="ytick_3"><g id="line2d_8"><g><use x="57.6" y="136.548" xlink:href="#ma497a5489c" style="fill:#fff;stroke:#fff;stroke-width:.8"/></g></g><g id="text_9"><g style="fill:#fff" transform="translate(25.15 140.347008)scale(0.1 -0.1)"><use xlink:href="#DejaVuSans-32"/><use x="63.623" xlink:href="#DejaVuSans-30"/><use x="127.246" xlink:href="#DejaVuSans-30"/><use x="190.869" xlink:href="#DejaVuSans-30"/></g></g></g><g id="ytick_4"><g id="line2d_9"><g><use x="57.6" y="77.462" xlink:href="#ma497a5489c" style="fill:#fff;stroke:#fff;stroke-width:.8"/></g></g><g id="text_10"><g style="fill:#fff" transform="translate(25.15 81.261427)scale(0.1 -0.1)"><use xlink:href="#DejaVuSans-32"/><use x="63.623" xlink:href="#DejaVuSans-35"/><use x="127.246" xlink:href="#DejaVuSans-30"/><use x="190.869" xlink:href="#DejaVuSans-30"/></g></g></g><g id="text_11"><g style="fill:#fff" transform="translate(19.070312 227.985813)rotate(-90)scale(0.1 -0.1)"><defs><path id="DejaVuSans-50" d="M 1259 4147 L 1259 2394 L 2053 2394 Q 2494 2394 2734 2622 Q 2975 2850 2975 3272 Q 2975 3691 2734 3919 Q 2494 4147 2053 4147 L 1259 4147 z M 628 4666 L 2053 4666 Q 2838 4666 3239 4311 Q 3641 3956 3641 3272 Q 3641 2581 3239 2228 Q 2838 1875 2053 1875 L 1259 1875 L 1259 0 L 628 0 L 628 4666 z" transform="scale(0.015625)"/><path id="DejaVuSans-69" d="M 603 3500 L 1178 3500 L 1178 0 L 603 0 L 603 3500 z M 603 4863 L 1178 4863 L 1178 4134 L 603 4134 L 603 4863 z" transform="scale(0.015625)"/><path id="DejaVuSans-63" d="M 3122 3366 L 3122 2828 Q 2878 2963 2633 3030 Q 2388 3097 2138 3097 Q 1578 3097 1268 2742 Q 959 2388 959 1747 Q 959 1106 1268 751 Q 1578 397 2138 397 Q 2388 397 2633 464 Q 2878 531 3122 666 L 3122 134 Q 2881 22 2623 -34 Q 2366 -91 2075 -91 Q 1284 -91 818 406 Q 353 903 353 1747 Q 353 2603 823 3093 Q 1294 3584 2113 3584 Q 2378 3584 2631 3529 Q 2884 3475 3122 3366 z" transform="scale(0.015625)"/><path id="DejaVuSans-28" d="M 1984 4856 Q 1566 4138 1362 3434 Q 1159 2731 1159 2009 Q 1159 1288 1364 580 Q 1569 -128 1984 -844 L 1484 -844 Q 1016 -109 783 600 Q 550 1309 550 2009 Q 550 2706 781 3412 Q 1013 4119 1484 4856 L 1984 4856 z" transform="scale(0.015625)"/><path id="DejaVuSans-24" d="M 2163 -941 L 1850 -941 L 1847 0 Q 1519 6 1191 76 Q 863 147 531 288 L 531 850 Q 850 650 1176 548 Q 1503 447 1850 444 L 1850 1869 Q 1159 1981 845 2250 Q 531 2519 531 2988 Q 531 3497 872 3790 Q 1213 4084 1850 4128 L 1850 4863 L 2163 4863 L 2163 4138 Q 2453 4125 2725 4076 Q 2997 4028 3256 3944 L 3256 3397 Q 2997 3528 2723 3600 Q 2450 3672 2163 3684 L 2163 2350 Q 2872 2241 3206 1959 Q 3541 1678 3541 1191 Q 3541 663 3186 358 Q 2831 53 2163 6 L 2163 -941 z M 1850 2406 L 1850 3688 Q 1488 3647 1297 3481 Q 1106 3316 1106 3041 Q 1106 2772 1282 2622 Q 1459 2472 1850 2406 z M 2163 1806 L 2163 453 Q 2559 506 2761 678 Q 2963 850 2963 1131 Q 2963 1406 2770 1568 Q 2578 1731 2163 1806 z" transform="scale(0.015625)"/><path id="DejaVuSans-29" d="M 513 4856 L 1013 4856 Q 1481 4119 1714 3412 Q 1947 2706 1947 2009 Q 1947 1309 1714 600 Q 1481 -109 1013 -844 L 513 -844 Q 928 -128 1133 580 Q 1338 1288 1338 2009 Q 1338 2731 1133 3434 Q 928 4138 513 4856 z" transform="scale(0.015625)"/></defs><use xlink:href="#DejaVuSans-48"/><use x="75.195" xlink:href="#DejaVuSans-6f"/><use x="136.377" xlink:href="#DejaVuSans-75"/><use x="199.756" xlink:href="#DejaVuSans-73"/><use x="251.855" xlink:href="#DejaVuSans-65"/><use x="313.379" xlink:href="#DejaVuSans-20"/><use x="345.166" xlink:href="#DejaVuSans-50"/><use x="403.719" xlink:href="#DejaVuSans-72"/><use x="444.832" xlink:href="#DejaVuSans-69"/><use x="472.615" xlink:href="#DejaVuSans-63"/><use x="527.596" xlink:href="#DejaVuSans-65"/><use x="589.119" xlink:href="#DejaVuSans-20"/><use x="620.906" xlink:href="#DejaVuSans-28"/><use x="659.92" xlink:href="#DejaVuSans-24"/><use x="723.543" xlink:href="#DejaVuSans-31"/><use x="787.166" xlink:href="#DejaVuSans-30"/><use x="850.789" xlink:href="#DejaVuSans-30"/><use x="914.412" xlink:href="#DejaVuSans-30"/><use x="978.035" xlink:href="#DejaVuSans-73"/><use x="1030.135" xlink:href="#DejaVuSans-29"/></g></g></g><g id="line2d_10"><path d="M 128.999817 222.127343 L 349.063606 84.481576 L 297.675084 116.624131 L 99.224703 240.751118 L 398.487273 53.568 L 324.276201 99.985632 L 303.645221 112.889923 L 284.601239 124.801576 L 73.832727 256.633322 L 191.346186 183.13086" clip-path="url(#p1f4c3656d5)" style="fill:none;stroke:red;stroke-width:1.5;stroke-linecap:square"/></g><g id="patch_3"><path d="M 57.6 307.584 L 57.6 41.472" style="fill:none;stroke:#fff;stroke-width:.8;stroke-linejoin:miter;stroke-linecap:square"/></g><g id="patch_4"><path d="M 414.72 307.584 L 414.72 41.472" style="fill:none"/></g><g id="patch_5"><path d="M 57.6 307.584 L 414.72 307.584" style="fill:none;stroke:#fff;stroke-width:.8;stroke-linejoin:miter;stroke-linecap:square"/></g><g id="patch_6"><path d="M 57.6 41.472 L 414.72 41.472" style="fill:none"/></g><g id="text_12"><g style="fill:#fff" transform="translate(141.28125 35.472)scale(0.12 -0.12)"><defs><path id="DejaVuSans-76" d="M 191 3500 L 800 3500 L 1894 563 L 2988 3500 L 3597 3500 L 2284 0 L 1503 0 L 191 3500 z" transform="scale(0.015625)"/><path id="DejaVuSans-2e" d="M 684 794 L 1344 794 L 1344 0 L 684 0 L 684 794 z" transform="scale(0.015625)"/></defs><use xlink:href="#DejaVuSans-48"/><use x="75.195" xlink:href="#DejaVuSans-6f"/><use x="136.377" xlink:href="#DejaVuSans-75"/><use x="199.756" xlink:href="#DejaVuSans-73"/><use x="251.855" xlink:href="#DejaVuSans-65"/><use x="313.379" xlink:href="#DejaVuSans-20"/><use x="345.166" xlink:href="#DejaVuSans-50"/><use x="403.719" xlink:href="#DejaVuSans-72"/><use x="444.832" xlink:href="#DejaVuSans-69"/><use x="472.615" xlink:href="#DejaVuSans-63"/><use x="527.596" xlink:href="#DejaVuSans-65"/><use x="589.119" xlink:href="#DejaVuSans-20"/><use x="620.906" xlink:href="#DejaVuSans-76"/><use x="680.086" xlink:href="#DejaVuSans-73"/><use x="732.186" xlink:href="#DejaVuSans-2e"/><use x="763.973" xlink:href="#DejaVuSans-20"/><use x="795.76" xlink:href="#DejaVuSans-53"/><use x="859.236" xlink:href="#DejaVuSans-71"/><use x="922.713" xlink:href="#DejaVuSans-75"/><use x="986.092" xlink:href="#DejaVuSans-61"/><use x="1047.371" xlink:href="#DejaVuSans-72"/><use x="1086.234" xlink:href="#DejaVuSans-65"/><use x="1147.758" xlink:href="#DejaVuSans-20"/><use x="1179.545" xlink:href="#DejaVuSans-46"/><use x="1233.439" xlink:href="#DejaVuSans-6f"/><use x="1294.621" xlink:href="#DejaVuSans-6f"/><use x="1355.803" xlink:href="#DejaVuSans-74"/><use x="1395.012" xlink:href="#DejaVuSans-61"/><use x="1456.291" xlink:href="#DejaVuSans-67"/><use x="1519.768" xlink:href="#DejaVuSans-65"/></g></g><g id="legend_1"><g id="patch_7"><path d="M 64.6 78.82825 L 250.10625 78.82825 Q 252.10625 78.82825 252.10625 76.82825 L 252.10625 48.472 Q 252.10625 46.472 250.10625 46.472 L 64.6 46.472 Q 62.6 46.472 62.6 48.472 L 62.6 76.82825 Q 62.6 78.82825 64.6 78.82825 z" style="fill:#fff;opacity:.8;stroke:#ccc;stroke-linejoin:miter"/></g><g id="PathCollection_2"><g><use x="76.6" y="55.445" xlink:href="#m6d800a6a62" style="fill:#00f;stroke:#00f"/></g></g><g id="text_13"><g transform="translate(94.6 58.070437)scale(0.1 -0.1)"><defs><path id="DejaVuSans-44" d="M 1259 4147 L 1259 519 L 2022 519 Q 2988 519 3436 956 Q 3884 1394 3884 2338 Q 3884 3275 3436 3711 Q 2988 4147 2022 4147 L 1259 4147 z M 628 4666 L 1925 4666 Q 3281 4666 3915 4102 Q 4550 3538 4550 2338 Q 4550 1131 3912 565 Q 3275 0 1925 0 L 628 0 L 628 4666 z" transform="scale(0.015625)"/><path id="DejaVuSans-6e" d="M 3513 2113 L 3513 0 L 2938 0 L 2938 2094 Q 2938 2591 2744 2837 Q 2550 3084 2163 3084 Q 1697 3084 1428 2787 Q 1159 2491 1159 1978 L 1159 0 L 581 0 L 581 3500 L 1159 3500 L 1159 2956 Q 1366 3272 1645 3428 Q 1925 3584 2291 3584 Q 2894 3584 3203 3211 Q 3513 2838 3513 2113 z" transform="scale(0.015625)"/></defs><use xlink:href="#DejaVuSans-44"/><use x="77.002" xlink:href="#DejaVuSans-61"/><use x="138.281" xlink:href="#DejaVuSans-74"/><use x="177.49" xlink:href="#DejaVuSans-61"/><use x="238.77" xlink:href="#DejaVuSans-20"/><use x="270.557" xlink:href="#DejaVuSans-50"/><use x="327.234" xlink:href="#DejaVuSans-6f"/><use x="388.416" xlink:href="#DejaVuSans-69"/><use x="416.199" xlink:href="#DejaVuSans-6e"/><use x="479.578" xlink:href="#DejaVuSans-74"/><use x="518.787" xlink:href="#DejaVuSans-73"/></g></g><g id="line2d_11"><path d="M 66.6 69.248562 L 76.6 69.248562 L 86.6 69.248562" style="fill:none;stroke:red;stroke-width:1.5;stroke-linecap:square"/></g><g id="text_14"><g transform="translate(94.6 72.748562)scale(0.1 -0.1)"><defs><path id="DejaVuSans-64" d="M 2906 2969 L 2906 4863 L 3481 4863 L 3481 0 L 2906 0 L 2906 525 Q 2725 213 2448 61 Q 2172 -91 1784 -91 Q 1150 -91 751 415 Q 353 922 353 1747 Q 353 2572 751 3078 Q 1150 3584 1784 3584 Q 2172 3584 2448 3432 Q 2725 3281 2906 2969 z M 947 1747 Q 947 1113 1208 752 Q 1469 391 1925 391 Q 2381 391 2643 752 Q 2906 1113 2906 1747 Q 2906 2381 2643 2742 Q 2381 3103 1925 3103 Q 1469 3103 1208 2742 Q 947 2381 947 1747 z" transform="scale(0.015625)"/><path id="DejaVuSans-77" d="M 269 3500 L 844 3500 L 1563 769 L 2278 3500 L 2956 3500 L 3675 769 L 4391 3500 L 4966 3500 L 4050 0 L 3372 0 L 2619 2869 L 1863 0 L 1184 0 L 269 3500 z" transform="scale(0.015625)"/><path id="DejaVuSans-68" d="M 3513 2113 L 3513 0 L 2938 0 L 2938 2094 Q 2938 2591 2744 2837 Q 2550 3084 2163 3084 Q 1697 3084 1428 2787 Q 1159 2491 1159 1978 L 1159 0 L 581 0 L 581 4863 L 1159 4863 L 1159 2956 Q 1366 3272 1645 3428 Q 1925 3584 2291 3584 Q 2894 3584 3203 3211 Q 3513 2838 3513 2113 z" transform="scale(0.015625)"/><path id="DejaVuSans-3d" d="M 678 2906 L 4684 2906 L 4684 2381 L 678 2381 L 678 2906 z M 678 1631 L 4684 1631 L 4684 1100 L 678 1100 L 678 1631 z" transform="scale(0.015625)"/><path id="DejaVuSans-62" d="M 3116 1747 Q 3116 2381 2855 2742 Q 2594 3103 2138 3103 Q 1681 3103 1420 2742 Q 1159 2381 1159 1747 Q 1159 1113 1420 752 Q 1681 391 2138 391 Q 2594 391 2855 752 Q 3116 1113 3116 1747 z M 1159 2969 Q 1341 3281 1617 3432 Q 1894 3584 2278 3584 Q 2916 3584 3314 3078 Q 3713 2572 3713 1747 Q 3713 922 3314 415 Q 2916 -91 2278 -91 Q 1894 -91 1617 61 Q 1341 213 1159 525 L 1159 0 L 581 0 L 581 4863 L 1159 4863 L 1159 2969 z" transform="scale(0.015625)"/><path id="DejaVuSans-38" d="M 2034 2216 Q 1584 2216 1326 1975 Q 1069 1734 1069 1313 Q 1069 891 1326 650 Q 1584 409 2034 409 Q 2484 409 2743 651 Q 3003 894 3003 1313 Q 3003 1734 2745 1975 Q 2488 2216 2034 2216 z M 1403 2484 Q 997 2584 770 2862 Q 544 3141 544 3541 Q 544 4100 942 4425 Q 1341 4750 2034 4750 Q 2731 4750 3128 4425 Q 3525 4100 3525 3541 Q 3525 3141 3298 2862 Q 3072 2584 2669 2484 Q 3125 2378 3379 2068 Q 3634 1759 3634 1313 Q 3634 634 3220 271 Q 2806 -91 2034 -91 Q 1263 -91 848 271 Q 434 634 434 1313 Q 434 1759 690 2068 Q 947 2378 1403 2484 z M 1172 3481 Q 1172 3119 1398 2916 Q 1625 2713 2034 2713 Q 2441 2713 2670 2916 Q 2900 3119 2900 3481 Q 2900 3844 2670 4047 Q 2441 4250 2034 4250 Q 1625 4250 1398 4047 Q 1172 3844 1172 3481 z" transform="scale(0.015625)"/></defs><use xlink:href="#DejaVuSans-50"/><use x="58.553" xlink:href="#DejaVuSans-72"/><use x="97.416" xlink:href="#DejaVuSans-65"/><use x="158.939" xlink:href="#DejaVuSans-64"/><use x="222.416" xlink:href="#DejaVuSans-69"/><use x="250.199" xlink:href="#DejaVuSans-63"/><use x="305.18" xlink:href="#DejaVuSans-74"/><use x="344.389" xlink:href="#DejaVuSans-65"/><use x="405.912" xlink:href="#DejaVuSans-64"/><use x="469.389" xlink:href="#DejaVuSans-20"/><use x="501.176" xlink:href="#DejaVuSans-77"/><use x="582.963" xlink:href="#DejaVuSans-69"/><use x="610.746" xlink:href="#DejaVuSans-74"/><use x="649.955" xlink:href="#DejaVuSans-68"/><use x="713.334" xlink:href="#DejaVuSans-20"/><use x="745.121" xlink:href="#DejaVuSans-77"/><use x="826.908" xlink:href="#DejaVuSans-3d"/><use x="910.697" xlink:href="#DejaVuSans-30"/><use x="974.32" xlink:href="#DejaVuSans-2e"/><use x="1006.107" xlink:href="#DejaVuSans-34"/><use x="1069.73" xlink:href="#DejaVuSans-20"/><use x="1101.518" xlink:href="#DejaVuSans-62"/><use x="1164.994" xlink:href="#DejaVuSans-3d"/><use x="1248.783" xlink:href="#DejaVuSans-33"/><use x="1312.406" xlink:href="#DejaVuSans-33"/><use x="1376.029" xlink:href="#DejaVuSans-31"/><use x="1439.652" xlink:href="#DejaVuSans-2e"/><use x="1471.439" xlink:href="#DejaVuSans-38"/></g></g></g></g></g><defs><clipPath id="p1f4c3656d5"><rect width="357.12" height="266.112" x="57.6" y="41.472"/></clipPath></defs></svg>