<svg version="1.1" xmlns="http://www.w3.org/2000/svg" viewBox="0 0 1720 1720" width="1720" height="1720">
  <!-- svg-source:excalidraw -->
  
  <defs>
    <style class="style-fonts">
      @font-face {
        font-family: "Virgil";
        src: url("https://excalidraw.com/Virgil.woff2");
      }
      @font-face {
        font-family: "Cascadia";
        src: url("https://excalidraw.com/Cascadia.woff2");
      }
    </style>
    
  </defs>
  <g stroke-linecap="round" transform="translate(10 10) rotate(0 400 400)"><path d="M32 0 L768 0 L775.5 0.5 L782 2 L787.5 4.5 L792 8 L795.5 12.5 L798 18 L799.5 24.5 L800 32 L800 768 L799.5 775.5 L798 782 L795.5 787.5 L792 792 L787.5 795.5 L782 798 L775.5 799.5 L768 800 L32 800 L24.5 799.5 L18 798 L12.5 795.5 L8 792 L4.5 787.5 L2 782 L0.5 775.5 L0 768 L0 32 L0.5 24.5 L2 18 L4.5 12.5 L8 8 L12.5 4.5 L18 2 L24.5 0.5 L32 0" stroke="none" stroke-width="0" fill="#eaddd7"></path><path d="M32 0 M32 0 C309.3 0, 586.59 0, 768 0 M32 0 C323.69 0, 615.38 0, 768 0 M768 0 C789.33 0, 800 10.67, 800 32 M768 0 C789.33 0, 800 10.67, 800 32 M800 32 C800 216.89, 800 401.78, 800 768 M800 32 C800 256.46, 800 480.91, 800 768 M800 768 C800 789.33, 789.33 800, 768 800 M800 768 C800 789.33, 789.33 800, 768 800 M768 800 C594.64 800, 421.27 800, 32 800 M768 800 C511.86 800, 255.73 800, 32 800 M32 800 C10.67 800, 0 789.33, 0 768 M32 800 C10.67 800, 0 789.33, 0 768 M0 768 C0 509.67, 0 251.34, 0 32 M0 768 C0 592.74, 0 417.49, 0 32 M0 32 C0 10.67, 10.67 0, 32 0 M0 32 C0 10.67, 10.67 0, 32 0" stroke="#1e1e1e" stroke-width="4" fill="none"></path></g><g stroke-linecap="round" transform="translate(30 30) rotate(0 80 80)"><path d="M32 0 L135.5 0.5 L142 2 L147.5 4.5 L152 8 L155.5 12.5 L158 18 L159.5 24.5 L160 32 L160 128 L159.5 135.5 L158 142 L155.5 147.5 L152 152 L147.5 155.5 L142 158 L135.5 159.5 L128 160 L32 160 L24.5 159.5 L18 158 L12.5 155.5 L8 152 L4.5 147.5 L2 142 L0.5 135.5 L0 128 L0.5 24.5 L2 18 L4.5 12.5 L8 8 L12.5 4.5 L18 2 L24.5 0.5 L32 0" stroke="none" stroke-width="0" fill="#ffd8a8"></path><path d="M32 0 M32 0 C61.74 0, 91.48 0, 128 0 M32 0 C68.34 0, 104.68 0, 128 0 M128 0 C149.33 0, 160 10.67, 160 32 M128 0 C149.33 0, 160 10.67, 160 32 M160 32 C160 64.81, 160 97.63, 160 128 M160 32 C160 56.58, 160 81.16, 160 128 M160 128 C160 149.33, 149.33 160, 128 160 M160 128 C160 149.33, 149.33 160, 128 160 M128 160 C101.38 160, 74.77 160, 32 160 M128 160 C98.51 160, 69.03 160, 32 160 M32 160 C10.67 160, 0 149.33, 0 128 M32 160 C10.67 160, 0 149.33, 0 128 M0 128 C0 103.02, 0 78.04, 0 32 M0 128 C0 98.63, 0 69.26, 0 32 M0 32 C0 10.67, 10.67 0, 32 0 M0 32 C0 10.67, 10.67 0, 32 0" stroke="#1e1e1e" stroke-width="4" fill="none"></path></g><g stroke-linecap="round" transform="translate(230 30) rotate(0 80 80)"><path d="M32 0 L135.5 0.5 L142 2 L147.5 4.5 L152 8 L155.5 12.5 L158 18 L159.5 24.5 L160 32 L160 128 L159.5 135.5 L158 142 L155.5 147.5 L152 152 L147.5 155.5 L142 158 L135.5 159.5 L128 160 L32 160 L24.5 159.5 L18 158 L12.5 155.5 L8 152 L4.5 147.5 L2 142 L0.5 135.5 L0 128 L0.5 24.5 L2 18 L4.5 12.5 L8 8 L12.5 4.5 L18 2 L24.5 0.5 L32 0" stroke="none" stroke-width="0" fill="#ffd8a8"></path><path d="M32 0 M32 0 C68.17 0, 104.34 0, 128 0 M32 0 C70.05 0, 108.09 0, 128 0 M128 0 C149.33 0, 160 10.67, 160 32 M128 0 C149.33 0, 160 10.67, 160 32 M160 32 C160 56.12, 160 80.23, 160 128 M160 32 C160 61.28, 160 90.55, 160 128 M160 128 C160 149.33, 149.33 160, 128 160 M160 128 C160 149.33, 149.33 160, 128 160 M128 160 C105.39 160, 82.77 160, 32 160 M128 160 C94.59 160, 61.18 160, 32 160 M32 160 C10.67 160, 0 149.33, 0 128 M32 160 C10.67 160, 0 149.33, 0 128 M0 128 C0 94.3, 0 60.61, 0 32 M0 128 C0 105.14, 0 82.28, 0 32 M0 32 C0 10.67, 10.67 0, 32 0 M0 32 C0 10.67, 10.67 0, 32 0" stroke="#1e1e1e" stroke-width="4" fill="none"></path></g><g stroke-linecap="round" transform="translate(430 30) rotate(0 80 80)"><path d="M32 0 L135.5 0.5 L142 2 L147.5 4.5 L152 8 L155.5 12.5 L158 18 L159.5 24.5 L160 32 L160 128 L159.5 135.5 L158 142 L155.5 147.5 L152 152 L147.5 155.5 L142 158 L135.5 159.5 L128 160 L32 160 L24.5 159.5 L18 158 L12.5 155.5 L8 152 L4.5 147.5 L2 142 L0.5 135.5 L0 128 L0.5 24.5 L2 18 L4.5 12.5 L8 8 L12.5 4.5 L18 2 L24.5 0.5 L32 0" stroke="none" stroke-width="0" fill="#ffd8a8"></path><path d="M32 0 M32 0 C60.37 0, 88.74 0, 128 0 M32 0 C57.03 0, 82.07 0, 128 0 M128 0 C149.33 0, 160 10.67, 160 32 M128 0 C149.33 0, 160 10.67, 160 32 M160 32 C160 56.42, 160 80.84, 160 128 M160 32 C160 60.6, 160 89.2, 160 128 M160 128 C160 149.33, 149.33 160, 128 160 M160 128 C160 149.33, 149.33 160, 128 160 M128 160 C90.94 160, 53.88 160, 32 160 M128 160 C106.81 160, 85.62 160, 32 160 M32 160 C10.67 160, 0 149.33, 0 128 M32 160 C10.67 160, 0 149.33, 0 128 M0 128 C0 97.27, 0 66.55, 0 32 M0 128 C0 104.08, 0 80.17, 0 32 M0 32 C0 10.67, 10.67 0, 32 0 M0 32 C0 10.67, 10.67 0, 32 0" stroke="#1e1e1e" stroke-width="4" fill="none"></path></g><g stroke-linecap="round" transform="translate(630 30) rotate(0 80 80)"><path d="M32 0 L135.5 0.5 L142 2 L147.5 4.5 L152 8 L155.5 12.5 L158 18 L159.5 24.5 L160 32 L160 128 L159.5 135.5 L158 142 L155.5 147.5 L152 152 L147.5 155.5 L142 158 L135.5 159.5 L128 160 L32 160 L24.5 159.5 L18 158 L12.5 155.5 L8 152 L4.5 147.5 L2 142 L0.5 135.5 L0 128 L0.5 24.5 L2 18 L4.5 12.5 L8 8 L12.5 4.5 L18 2 L24.5 0.5 L32 0" stroke="none" stroke-width="0" fill="#ffd8a8"></path><path d="M32 0 M32 0 C66.55 0, 101.11 0, 128 0 M32 0 C52.02 0, 72.04 0, 128 0 M128 0 C149.33 0, 160 10.67, 160 32 M128 0 C149.33 0, 160 10.67, 160 32 M160 32 C160 59.8, 160 87.59, 160 128 M160 32 C160 67.32, 160 102.63, 160 128 M160 128 C160 149.33, 149.33 160, 128 160 M160 128 C160 149.33, 149.33 160, 128 160 M128 160 C98.72 160, 69.44 160, 32 160 M128 160 C102.96 160, 77.92 160, 32 160 M32 160 C10.67 160, 0 149.33, 0 128 M32 160 C10.67 160, 0 149.33, 0 128 M0 128 C0 91.94, 0 55.89, 0 32 M0 128 C0 91.2, 0 54.41, 0 32 M0 32 C0 10.67, 10.67 0, 32 0 M0 32 C0 10.67, 10.67 0, 32 0" stroke="#1e1e1e" stroke-width="4" fill="none"></path></g><g stroke-linecap="round" transform="translate(30 230) rotate(0 80 80)"><path d="M32 0 L135.5 0.5 L142 2 L147.5 4.5 L152 8 L155.5 12.5 L158 18 L159.5 24.5 L160 32 L160 128 L159.5 135.5 L158 142 L155.5 147.5 L152 152 L147.5 155.5 L142 158 L135.5 159.5 L128 160 L32 160 L24.5 159.5 L18 158 L12.5 155.5 L8 152 L4.5 147.5 L2 142 L0.5 135.5 L0 128 L0.5 24.5 L2 18 L4.5 12.5 L8 8 L12.5 4.5 L18 2 L24.5 0.5 L32 0" stroke="none" stroke-width="0" fill="#ffd8a8"></path><path d="M32 0 M32 0 C53.31 0, 74.61 0, 128 0 M32 0 C64.66 0, 97.32 0, 128 0 M128 0 C149.33 0, 160 10.67, 160 32 M128 0 C149.33 0, 160 10.67, 160 32 M160 32 C160 54.48, 160 76.96, 160 128 M160 32 C160 54.12, 160 76.25, 160 128 M160 128 C160 149.33, 149.33 160, 128 160 M160 128 C160 149.33, 149.33 160, 128 160 M128 160 C100.23 160, 72.45 160, 32 160 M128 160 C98.7 160, 69.41 160, 32 160 M32 160 C10.67 160, 0 149.33, 0 128 M32 160 C10.67 160, 0 149.33, 0 128 M0 128 C0 106.16, 0 84.33, 0 32 M0 128 C0 98.72, 0 69.44, 0 32 M0 32 C0 10.67, 10.67 0, 32 0 M0 32 C0 10.67, 10.67 0, 32 0" stroke="#1e1e1e" stroke-width="4" fill="none"></path></g><g stroke-linecap="round" transform="translate(230 230) rotate(0 80 80)"><path d="M32 0 L135.5 0.5 L142 2 L147.5 4.5 L152 8 L155.5 12.5 L158 18 L159.5 24.5 L160 32 L160 128 L159.5 135.5 L158 142 L155.5 147.5 L152 152 L147.5 155.5 L142 158 L135.5 159.5 L128 160 L32 160 L24.5 159.5 L18 158 L12.5 155.5 L8 152 L4.5 147.5 L2 142 L0.5 135.5 L0 128 L0.5 24.5 L2 18 L4.5 12.5 L8 8 L12.5 4.5 L18 2 L24.5 0.5 L32 0" stroke="none" stroke-width="0" fill="#ffd8a8"></path><path d="M32 0 M32 0 C54.58 0, 77.16 0, 128 0 M32 0 C68.14 0, 104.28 0, 128 0 M128 0 C149.33 0, 160 10.67, 160 32 M128 0 C149.33 0, 160 10.67, 160 32 M160 32 C160 55.88, 160 79.77, 160 128 M160 32 C160 64.65, 160 97.29, 160 128 M160 128 C160 149.33, 149.33 160, 128 160 M160 128 C160 149.33, 149.33 160, 128 160 M128 160 C99.2 160, 70.4 160, 32 160 M128 160 C104.17 160, 80.34 160, 32 160 M32 160 C10.67 160, 0 149.33, 0 128 M32 160 C10.67 160, 0 149.33, 0 128 M0 128 C0 105.81, 0 83.63, 0 32 M0 128 C0 103.51, 0 79.03, 0 32 M0 32 C0 10.67, 10.67 0, 32 0 M0 32 C0 10.67, 10.67 0, 32 0" stroke="#1e1e1e" stroke-width="4" fill="none"></path></g><g stroke-linecap="round" transform="translate(430 230) rotate(0 80 80)"><path d="M32 0 M32 0 C67.55 0, 103.1 0, 128 0 M32 0 C53.06 0, 74.11 0, 128 0 M128 0 C149.33 0, 160 10.67, 160 32 M128 0 C149.33 0, 160 10.67, 160 32 M160 32 C160 59.83, 160 87.65, 160 128 M160 32 C160 69.05, 160 106.09, 160 128 M160 128 C160 149.33, 149.33 160, 128 160 M160 128 C160 149.33, 149.33 160, 128 160 M128 160 C92.14 160, 56.28 160, 32 160 M128 160 C98.75 160, 69.5 160, 32 160 M32 160 C10.67 160, 0 149.33, 0 128 M32 160 C10.67 160, 0 149.33, 0 128 M0 128 C0 106.69, 0 85.39, 0 32 M0 128 C0 95.34, 0 62.68, 0 32 M0 32 C0 10.67, 10.67 0, 32 0 M0 32 C0 10.67, 10.67 0, 32 0" stroke="#1e1e1e" stroke-width="4" fill="none"></path></g><g stroke-linecap="round" transform="translate(630 230) rotate(0 80 80)"><path d="M32 0 M32 0 C68.73 0, 105.45 0, 128 0 M32 0 C61.26 0, 90.52 0, 128 0 M128 0 C149.33 0, 160 10.67, 160 32 M128 0 C149.33 0, 160 10.67, 160 32 M160 32 C160 60.29, 160 88.58, 160 128 M160 32 C160 68.76, 160 105.52, 160 128 M160 128 C160 149.33, 149.33 160, 128 160 M160 128 C160 149.33, 149.33 160, 128 160 M128 160 C106.71 160, 85.42 160, 32 160 M128 160 C102.05 160, 76.09 160, 32 160 M32 160 C10.67 160, 0 149.33, 0 128 M32 160 C10.67 160, 0 149.33, 0 128 M0 128 C0 105.42, 0 82.84, 0 32 M0 128 C0 91.86, 0 55.72, 0 32 M0 32 C0 10.67, 10.67 0, 32 0 M0 32 C0 10.67, 10.67 0, 32 0" stroke="#1e1e1e" stroke-width="4" fill="none"></path></g><g stroke-linecap="round" transform="translate(630 430) rotate(0 80 80)"><path d="M32 0 M32 0 C60.89 0, 89.78 0, 128 0 M32 0 C52.33 0, 72.66 0, 128 0 M128 0 C149.33 0, 160 10.67, 160 32 M128 0 C149.33 0, 160 10.67, 160 32 M160 32 C160 51.74, 160 71.48, 160 128 M160 32 C160 66.82, 160 101.64, 160 128 M160 128 C160 149.33, 149.33 160, 128 160 M160 128 C160 149.33, 149.33 160, 128 160 M128 160 C107.48 160, 86.96 160, 32 160 M128 160 C100.23 160, 72.47 160, 32 160 M32 160 C10.67 160, 0 149.33, 0 128 M32 160 C10.67 160, 0 149.33, 0 128 M0 128 C0 89.71, 0 51.42, 0 32 M0 128 C0 107.43, 0 86.86, 0 32 M0 32 C0 10.67, 10.67 0, 32 0 M0 32 C0 10.67, 10.67 0, 32 0" stroke="#1e1e1e" stroke-width="4" fill="none"></path></g><g stroke-linecap="round" transform="translate(430 430) rotate(0 80 80)"><path d="M32 0 M32 0 C67.36 0, 102.72 0, 128 0 M32 0 C60.18 0, 88.36 0, 128 0 M128 0 C149.33 0, 160 10.67, 160 32 M128 0 C149.33 0, 160 10.67, 160 32 M160 32 C160 56.35, 160 80.7, 160 128 M160 32 C160 63.78, 160 95.57, 160 128 M160 128 C160 149.33, 149.33 160, 128 160 M160 128 C160 149.33, 149.33 160, 128 160 M128 160 C93.22 160, 58.43 160, 32 160 M128 160 C96.71 160, 65.42 160, 32 160 M32 160 C10.67 160, 0 149.33, 0 128 M32 160 C10.67 160, 0 149.33, 0 128 M0 128 C0 99.08, 0 70.15, 0 32 M0 128 C0 100.81, 0 73.61, 0 32 M0 32 C0 10.67, 10.67 0, 32 0 M0 32 C0 10.67, 10.67 0, 32 0" stroke="#1e1e1e" stroke-width="4" fill="none"></path></g><g stroke-linecap="round" transform="translate(230 430) rotate(0 80 80)"><path d="M32 0 M32 0 C52.83 0, 73.65 0, 128 0 M32 0 C54.66 0, 77.33 0, 128 0 M128 0 C149.33 0, 160 10.67, 160 32 M128 0 C149.33 0, 160 10.67, 160 32 M160 32 C160 55.07, 160 78.14, 160 128 M160 32 C160 65.14, 160 98.29, 160 128 M160 128 C160 149.33, 149.33 160, 128 160 M160 128 C160 149.33, 149.33 160, 128 160 M128 160 C105.72 160, 83.43 160, 32 160 M128 160 C97.74 160, 67.48 160, 32 160 M32 160 C10.67 160, 0 149.33, 0 128 M32 160 C10.67 160, 0 149.33, 0 128 M0 128 C0 102.66, 0 77.31, 0 32 M0 128 C0 99.01, 0 70.01, 0 32 M0 32 C0 10.67, 10.67 0, 32 0 M0 32 C0 10.67, 10.67 0, 32 0" stroke="#1e1e1e" stroke-width="4" fill="none"></path></g><g stroke-linecap="round" transform="translate(30 430) rotate(0 80 80)"><path d="M32 0 M32 0 C52.34 0, 72.69 0, 128 0 M32 0 C52.55 0, 73.1 0, 128 0 M128 0 C149.33 0, 160 10.67, 160 32 M128 0 C149.33 0, 160 10.67, 160 32 M160 32 C160 59.01, 160 86.01, 160 128 M160 32 C160 57.92, 160 83.84, 160 128 M160 128 C160 149.33, 149.33 160, 128 160 M160 128 C160 149.33, 149.33 160, 128 160 M128 160 C100.81 160, 73.62 160, 32 160 M128 160 C97.46 160, 66.92 160, 32 160 M32 160 C10.67 160, 0 149.33, 0 128 M32 160 C10.67 160, 0 149.33, 0 128 M0 128 C0 100.62, 0 73.25, 0 32 M0 128 C0 105.52, 0 83.04, 0 32 M0 32 C0 10.67, 10.67 0, 32 0 M0 32 C0 10.67, 10.67 0, 32 0" stroke="#1e1e1e" stroke-width="4" fill="none"></path></g><g stroke-linecap="round" transform="translate(30 630) rotate(0 80 80)"><path d="M32 0 M32 0 C69.94 0, 107.88 0, 128 0 M32 0 C55.75 0, 79.5 0, 128 0 M128 0 C149.33 0, 160 10.67, 160 32 M128 0 C149.33 0, 160 10.67, 160 32 M160 32 C160 65.65, 160 99.29, 160 128 M160 32 C160 64.07, 160 96.14, 160 128 M160 128 C160 149.33, 149.33 160, 128 160 M160 128 C160 149.33, 149.33 160, 128 160 M128 160 C107.36 160, 86.72 160, 32 160 M128 160 C101.28 160, 74.55 160, 32 160 M32 160 C10.67 160, 0 149.33, 0 128 M32 160 C10.67 160, 0 149.33, 0 128 M0 128 C0 91.19, 0 54.38, 0 32 M0 128 C0 104.52, 0 81.03, 0 32 M0 32 C0 10.67, 10.67 0, 32 0 M0 32 C0 10.67, 10.67 0, 32 0" stroke="#1e1e1e" stroke-width="4" fill="none"></path></g><g stroke-linecap="round" transform="translate(230 630) rotate(0 80 80)"><path d="M32 0 M32 0 C54.01 0, 76.02 0, 128 0 M32 0 C66.31 0, 100.61 0, 128 0 M128 0 C149.33 0, 160 10.67, 160 32 M128 0 C149.33 0, 160 10.67, 160 32 M160 32 C160 53.44, 160 74.88, 160 128 M160 32 C160 59.47, 160 86.94, 160 128 M160 128 C160 149.33, 149.33 160, 128 160 M160 128 C160 149.33, 149.33 160, 128 160 M128 160 C98.26 160, 68.52 160, 32 160 M128 160 C91.66 160, 55.32 160, 32 160 M32 160 C10.67 160, 0 149.33, 0 128 M32 160 C10.67 160, 0 149.33, 0 128 M0 128 C0 95.19, 0 62.37, 0 32 M0 128 C0 103.42, 0 78.84, 0 32 M0 32 C0 10.67, 10.67 0, 32 0 M0 32 C0 10.67, 10.67 0, 32 0" stroke="#1e1e1e" stroke-width="4" fill="none"></path></g><g stroke-linecap="round" transform="translate(430 630) rotate(0 80 80)"><path d="M32 0 M32 0 C64.72 0, 97.43 0, 128 0 M32 0 C62.98 0, 93.97 0, 128 0 M128 0 C149.33 0, 160 10.67, 160 32 M128 0 C149.33 0, 160 10.67, 160 32 M160 32 C160 53.2, 160 74.41, 160 128 M160 32 C160 65.73, 160 99.47, 160 128 M160 128 C160 149.33, 149.33 160, 128 160 M160 128 C160 149.33, 149.33 160, 128 160 M128 160 C91.83 160, 55.66 160, 32 160 M128 160 C89.95 160, 51.91 160, 32 160 M32 160 C10.67 160, 0 149.33, 0 128 M32 160 C10.67 160, 0 149.33, 0 128 M0 128 C0 103.88, 0 79.77, 0 32 M0 128 C0 98.72, 0 69.45, 0 32 M0 32 C0 10.67, 10.67 0, 32 0 M0 32 C0 10.67, 10.67 0, 32 0" stroke="#1e1e1e" stroke-width="4" fill="none"></path></g><g stroke-linecap="round" transform="translate(630 630) rotate(0 80 80)"><path d="M32 0 M32 0 C57.39 0, 82.79 0, 128 0 M32 0 C54.69 0, 77.38 0, 128 0 M128 0 C149.33 0, 160 10.67, 160 32 M128 0 C149.33 0, 160 10.67, 160 32 M160 32 C160 65.93, 160 99.86, 160 128 M160 32 C160 69.21, 160 106.42, 160 128 M160 128 C160 149.33, 149.33 160, 128 160 M160 128 C160 149.33, 149.33 160, 128 160 M128 160 C99.63 160, 71.26 160, 32 160 M128 160 C102.97 160, 77.93 160, 32 160 M32 160 C10.67 160, 0 149.33, 0 128 M32 160 C10.67 160, 0 149.33, 0 128 M0 128 C0 103.58, 0 79.16, 0 32 M0 128 C0 99.4, 0 70.8, 0 32 M0 32 C0 10.67, 10.67 0, 32 0 M0 32 C0 10.67, 10.67 0, 32 0" stroke="#1e1e1e" stroke-width="4" fill="none"></path></g><g stroke-linecap="round" transform="translate(10 910) rotate(0 400 400)"><path d="M32 0 L768 0 L775.5 0.5 L782 2 L787.5 4.5 L792 8 L795.5 12.5 L798 18 L799.5 24.5 L800 32 L800 768 L799.5 775.5 L798 782 L795.5 787.5 L792 792 L787.5 795.5 L782 798 L775.5 799.5 L768 800 L32 800 L24.5 799.5 L18 798 L12.5 795.5 L8 792 L4.5 787.5 L2 782 L0.5 775.5 L0 768 L0 32 L0.5 24.5 L2 18 L4.5 12.5 L8 8 L12.5 4.5 L18 2 L24.5 0.5 L32 0" stroke="none" stroke-width="0" fill="#eaddd7"></path><path d="M32 0 M32 0 C184.65 0, 337.31 0, 768 0 M32 0 C289.64 0, 547.27 0, 768 0 M768 0 C789.33 0, 800 10.67, 800 32 M768 0 C789.33 0, 800 10.67, 800 32 M800 32 C800 200.28, 800 368.56, 800 768 M800 32 C800 204.28, 800 376.55, 800 768 M800 768 C800 789.33, 789.33 800, 768 800 M800 768 C800 789.33, 789.33 800, 768 800 M768 800 C616.85 800, 465.7 800, 32 800 M768 800 C604.16 800, 440.32 800, 32 800 M32 800 C10.67 800, 0 789.33, 0 768 M32 800 C10.67 800, 0 789.33, 0 768 M0 768 C0 509.24, 0 250.48, 0 32 M0 768 C0 619.93, 0 471.85, 0 32 M0 32 C0 10.67, 10.67 0, 32 0 M0 32 C0 10.67, 10.67 0, 32 0" stroke="#1e1e1e" stroke-width="4" fill="none"></path></g><g stroke-linecap="round" transform="translate(30 930) rotate(0 80 80)"><path d="M32 0 L135.5 0.5 L142 2 L147.5 4.5 L152 8 L155.5 12.5 L158 18 L159.5 24.5 L160 32 L160 128 L159.5 135.5 L158 142 L155.5 147.5 L152 152 L147.5 155.5 L142 158 L135.5 159.5 L128 160 L32 160 L24.5 159.5 L18 158 L12.5 155.5 L8 152 L4.5 147.5 L2 142 L0.5 135.5 L0 128 L0.5 24.5 L2 18 L4.5 12.5 L8 8 L12.5 4.5 L18 2 L24.5 0.5 L32 0" stroke="none" stroke-width="0" fill="#b2f2bb"></path><path d="M32 0 M32 0 C62.78 0, 93.56 0, 128 0 M32 0 C55.64 0, 79.29 0, 128 0 M128 0 C149.33 0, 160 10.67, 160 32 M128 0 C149.33 0, 160 10.67, 160 32 M160 32 C160 61.39, 160 90.78, 160 128 M160 32 C160 70.24, 160 108.49, 160 128 M160 128 C160 149.33, 149.33 160, 128 160 M160 128 C160 149.33, 149.33 160, 128 160 M128 160 C96.21 160, 64.41 160, 32 160 M128 160 C108.14 160, 88.29 160, 32 160 M32 160 C10.67 160, 0 149.33, 0 128 M32 160 C10.67 160, 0 149.33, 0 128 M0 128 C0 99.08, 0 70.16, 0 32 M0 128 C0 94.4, 0 60.81, 0 32 M0 32 C0 10.67, 10.67 0, 32 0 M0 32 C0 10.67, 10.67 0, 32 0" stroke="#1e1e1e" stroke-width="4" fill="none"></path></g><g stroke-linecap="round" transform="translate(230 930) rotate(0 80 80)"><path d="M32 0 L135.5 0.5 L142 2 L147.5 4.5 L152 8 L155.5 12.5 L158 18 L159.5 24.5 L160 32 L160 128 L159.5 135.5 L158 142 L155.5 147.5 L152 152 L147.5 155.5 L142 158 L135.5 159.5 L128 160 L32 160 L24.5 159.5 L18 158 L12.5 155.5 L8 152 L4.5 147.5 L2 142 L0.5 135.5 L0 128 L0.5 24.5 L2 18 L4.5 12.5 L8 8 L12.5 4.5 L18 2 L24.5 0.5 L32 0" stroke="none" stroke-width="0" fill="#b2f2bb"></path><path d="M32 0 M32 0 C51.91 0, 71.82 0, 128 0 M32 0 C65.6 0, 99.21 0, 128 0 M128 0 C149.33 0, 160 10.67, 160 32 M128 0 C149.33 0, 160 10.67, 160 32 M160 32 C160 53.95, 160 75.9, 160 128 M160 32 C160 54.47, 160 76.94, 160 128 M160 128 C160 149.33, 149.33 160, 128 160 M160 128 C160 149.33, 149.33 160, 128 160 M128 160 C108.28 160, 88.57 160, 32 160 M128 160 C106.63 160, 85.26 160, 32 160 M32 160 C10.67 160, 0 149.33, 0 128 M32 160 C10.67 160, 0 149.33, 0 128 M0 128 C0 94.25, 0 60.5, 0 32 M0 128 C0 108.69, 0 89.37, 0 32 M0 32 C0 10.67, 10.67 0, 32 0 M0 32 C0 10.67, 10.67 0, 32 0" stroke="#1e1e1e" stroke-width="4" fill="none"></path></g><g stroke-linecap="round" transform="translate(430 930) rotate(0 80 80)"><path d="M32 0 L135.5 0.5 L142 2 L147.5 4.5 L152 8 L155.5 12.5 L158 18 L159.5 24.5 L160 32 L160 128 L159.5 135.5 L158 142 L155.5 147.5 L152 152 L147.5 155.5 L142 158 L135.5 159.5 L128 160 L32 160 L24.5 159.5 L18 158 L12.5 155.5 L8 152 L4.5 147.5 L2 142 L0.5 135.5 L0 128 L0.5 24.5 L2 18 L4.5 12.5 L8 8 L12.5 4.5 L18 2 L24.5 0.5 L32 0" stroke="none" stroke-width="0" fill="#b2f2bb"></path><path d="M32 0 M32 0 C68.59 0, 105.19 0, 128 0 M32 0 C56.95 0, 81.9 0, 128 0 M128 0 C149.33 0, 160 10.67, 160 32 M128 0 C149.33 0, 160 10.67, 160 32 M160 32 C160 59.25, 160 86.49, 160 128 M160 32 C160 66.58, 160 101.15, 160 128 M160 128 C160 149.33, 149.33 160, 128 160 M160 128 C160 149.33, 149.33 160, 128 160 M128 160 C108.02 160, 88.04 160, 32 160 M128 160 C107.86 160, 87.73 160, 32 160 M32 160 C10.67 160, 0 149.33, 0 128 M32 160 C10.67 160, 0 149.33, 0 128 M0 128 C0 108.06, 0 88.11, 0 32 M0 128 C0 102.06, 0 76.12, 0 32 M0 32 C0 10.67, 10.67 0, 32 0 M0 32 C0 10.67, 10.67 0, 32 0" stroke="#1e1e1e" stroke-width="4" fill="none"></path></g><g stroke-linecap="round" transform="translate(630 930) rotate(0 80 80)"><path d="M32 0 M32 0 C56.35 0, 80.7 0, 128 0 M32 0 C63.78 0, 95.57 0, 128 0 M128 0 C149.33 0, 160 10.67, 160 32 M128 0 C149.33 0, 160 10.67, 160 32 M160 32 C160 66.78, 160 101.57, 160 128 M160 32 C160 63.29, 160 94.58, 160 128 M160 128 C160 149.33, 149.33 160, 128 160 M160 128 C160 149.33, 149.33 160, 128 160 M128 160 C99.08 160, 70.15 160, 32 160 M128 160 C100.81 160, 73.61 160, 32 160 M32 160 C10.67 160, 0 149.33, 0 128 M32 160 C10.67 160, 0 149.33, 0 128 M0 128 C0 108.09, 0 88.18, 0 32 M0 128 C0 94.4, 0 60.79, 0 32 M0 32 C0 10.67, 10.67 0, 32 0 M0 32 C0 10.67, 10.67 0, 32 0" stroke="#1e1e1e" stroke-width="4" fill="none"></path></g><g stroke-linecap="round" transform="translate(30 1130) rotate(0 80 80)"><path d="M32 0 L135.5 0.5 L142 2 L147.5 4.5 L152 8 L155.5 12.5 L158 18 L159.5 24.5 L160 32 L160 128 L159.5 135.5 L158 142 L155.5 147.5 L152 152 L147.5 155.5 L142 158 L135.5 159.5 L128 160 L32 160 L24.5 159.5 L18 158 L12.5 155.5 L8 152 L4.5 147.5 L2 142 L0.5 135.5 L0 128 L0.5 24.5 L2 18 L4.5 12.5 L8 8 L12.5 4.5 L18 2 L24.5 0.5 L32 0" stroke="none" stroke-width="0" fill="#b2f2bb"></path><path d="M32 0 M32 0 C61.91 0, 91.82 0, 128 0 M32 0 C61.54 0, 91.09 0, 128 0 M128 0 C149.33 0, 160 10.67, 160 32 M128 0 C149.33 0, 160 10.67, 160 32 M160 32 C160 70.17, 160 108.34, 160 128 M160 32 C160 58.13, 160 84.27, 160 128 M160 128 C160 149.33, 149.33 160, 128 160 M160 128 C160 149.33, 149.33 160, 128 160 M128 160 C102.72 160, 77.45 160, 32 160 M128 160 C100.09 160, 72.18 160, 32 160 M32 160 C10.67 160, 0 149.33, 0 128 M32 160 C10.67 160, 0 149.33, 0 128 M0 128 C0 105.4, 0 82.8, 0 32 M0 128 C0 100.83, 0 73.66, 0 32 M0 32 C0 10.67, 10.67 0, 32 0 M0 32 C0 10.67, 10.67 0, 32 0" stroke="#1e1e1e" stroke-width="4" fill="none"></path></g><g stroke-linecap="round" transform="translate(230 1130) rotate(0 80 80)"><path d="M32 0 L135.5 0.5 L142 2 L147.5 4.5 L152 8 L155.5 12.5 L158 18 L159.5 24.5 L160 32 L160 128 L159.5 135.5 L158 142 L155.5 147.5 L152 152 L147.5 155.5 L142 158 L135.5 159.5 L128 160 L32 160 L24.5 159.5 L18 158 L12.5 155.5 L8 152 L4.5 147.5 L2 142 L0.5 135.5 L0 128 L0.5 24.5 L2 18 L4.5 12.5 L8 8 L12.5 4.5 L18 2 L24.5 0.5 L32 0" stroke="none" stroke-width="0" fill="#b2f2bb"></path><path d="M32 0 M32 0 C58.62 0, 85.23 0, 128 0 M32 0 C61.49 0, 90.97 0, 128 0 M128 0 C149.33 0, 160 10.67, 160 32 M128 0 C149.33 0, 160 10.67, 160 32 M160 32 C160 56.98, 160 81.96, 160 128 M160 32 C160 61.37, 160 90.74, 160 128 M160 128 C160 149.33, 149.33 160, 128 160 M160 128 C160 149.33, 149.33 160, 128 160 M128 160 C98.99 160, 69.98 160, 32 160 M128 160 C105.81 160, 83.61 160, 32 160 M32 160 C10.67 160, 0 149.33, 0 128 M32 160 C10.67 160, 0 149.33, 0 128 M0 128 C0 93.13, 0 58.27, 0 32 M0 128 C0 100.66, 0 73.33, 0 32 M0 32 C0 10.67, 10.67 0, 32 0 M0 32 C0 10.67, 10.67 0, 32 0" stroke="#1e1e1e" stroke-width="4" fill="none"></path></g><g stroke-linecap="round" transform="translate(430 1130) rotate(0 80 80)"><path d="M32 0 L135.5 0.5 L142 2 L147.5 4.5 L152 8 L155.5 12.5 L158 18 L159.5 24.5 L160 32 L160 128 L159.5 135.5 L158 142 L155.5 147.5 L152 152 L147.5 155.5 L142 158 L135.5 159.5 L128 160 L32 160 L24.5 159.5 L18 158 L12.5 155.5 L8 152 L4.5 147.5 L2 142 L0.5 135.5 L0 128 L0.5 24.5 L2 18 L4.5 12.5 L8 8 L12.5 4.5 L18 2 L24.5 0.5 L32 0" stroke="none" stroke-width="0" fill="#b2f2bb"></path><path d="M32 0 M32 0 C54.61 0, 77.23 0, 128 0 M32 0 C65.41 0, 98.82 0, 128 0 M128 0 C149.33 0, 160 10.67, 160 32 M128 0 C149.33 0, 160 10.67, 160 32 M160 32 C160 65.7, 160 99.39, 160 128 M160 32 C160 54.86, 160 77.72, 160 128 M160 128 C160 149.33, 149.33 160, 128 160 M160 128 C160 149.33, 149.33 160, 128 160 M128 160 C96.33 160, 64.66 160, 32 160 M128 160 C94.53 160, 61.05 160, 32 160 M32 160 C10.67 160, 0 149.33, 0 128 M32 160 C10.67 160, 0 149.33, 0 128 M0 128 C0 99.49, 0 70.97, 0 32 M0 128 C0 96.07, 0 64.13, 0 32 M0 32 C0 10.67, 10.67 0, 32 0 M0 32 C0 10.67, 10.67 0, 32 0" stroke="#1e1e1e" stroke-width="4" fill="none"></path></g><g stroke-linecap="round" transform="translate(630 1130) rotate(0 80 80)"><path d="M32 0 M32 0 C53.44 0, 74.88 0, 128 0 M32 0 C59.47 0, 86.94 0, 128 0 M128 0 C149.33 0, 160 10.67, 160 32 M128 0 C149.33 0, 160 10.67, 160 32 M160 32 C160 61.74, 160 91.48, 160 128 M160 32 C160 68.34, 160 104.68, 160 128 M160 128 C160 149.33, 149.33 160, 128 160 M160 128 C160 149.33, 149.33 160, 128 160 M128 160 C95.19 160, 62.37 160, 32 160 M128 160 C103.42 160, 78.84 160, 32 160 M32 160 C10.67 160, 0 149.33, 0 128 M32 160 C10.67 160, 0 149.33, 0 128 M0 128 C0 101.38, 0 74.77, 0 32 M0 128 C0 98.51, 0 69.03, 0 32 M0 32 C0 10.67, 10.67 0, 32 0 M0 32 C0 10.67, 10.67 0, 32 0" stroke="#1e1e1e" stroke-width="4" fill="none"></path></g><g stroke-linecap="round" transform="translate(630 1330) rotate(0 80 80)"><path d="M32 0 M32 0 C53.2 0, 74.41 0, 128 0 M32 0 C65.73 0, 99.47 0, 128 0 M128 0 C149.33 0, 160 10.67, 160 32 M128 0 C149.33 0, 160 10.67, 160 32 M160 32 C160 68.17, 160 104.34, 160 128 M160 32 C160 70.05, 160 108.09, 160 128 M160 128 C160 149.33, 149.33 160, 128 160 M160 128 C160 149.33, 149.33 160, 128 160 M128 160 C103.88 160, 79.77 160, 32 160 M128 160 C98.72 160, 69.45 160, 32 160 M32 160 C10.67 160, 0 149.33, 0 128 M32 160 C10.67 160, 0 149.33, 0 128 M0 128 C0 105.39, 0 82.77, 0 32 M0 128 C0 94.59, 0 61.18, 0 32 M0 32 C0 10.67, 10.67 0, 32 0 M0 32 C0 10.67, 10.67 0, 32 0" stroke="#1e1e1e" stroke-width="4" fill="none"></path></g><g stroke-linecap="round" transform="translate(430 1330) rotate(0 80 80)"><path d="M32 0 M32 0 C65.93 0, 99.86 0, 128 0 M32 0 C69.21 0, 106.42 0, 128 0 M128 0 C149.33 0, 160 10.67, 160 32 M128 0 C149.33 0, 160 10.67, 160 32 M160 32 C160 60.37, 160 88.74, 160 128 M160 32 C160 57.03, 160 82.07, 160 128 M160 128 C160 149.33, 149.33 160, 128 160 M160 128 C160 149.33, 149.33 160, 128 160 M128 160 C103.58 160, 79.16 160, 32 160 M128 160 C99.4 160, 70.8 160, 32 160 M32 160 C10.67 160, 0 149.33, 0 128 M32 160 C10.67 160, 0 149.33, 0 128 M0 128 C0 90.94, 0 53.88, 0 32 M0 128 C0 106.81, 0 85.62, 0 32 M0 32 C0 10.67, 10.67 0, 32 0 M0 32 C0 10.67, 10.67 0, 32 0" stroke="#1e1e1e" stroke-width="4" fill="none"></path></g><g stroke-linecap="round" transform="translate(230 1330) rotate(0 80 80)"><path d="M32 0 M32 0 C57.37 0, 82.75 0, 128 0 M32 0 C55.18 0, 78.36 0, 128 0 M128 0 C149.33 0, 160 10.67, 160 32 M128 0 C149.33 0, 160 10.67, 160 32 M160 32 C160 66.55, 160 101.11, 160 128 M160 32 C160 52.02, 160 72.04, 160 128 M160 128 C160 149.33, 149.33 160, 128 160 M160 128 C160 149.33, 149.33 160, 128 160 M128 160 C100.2 160, 72.41 160, 32 160 M128 160 C92.68 160, 57.37 160, 32 160 M32 160 C10.67 160, 0 149.33, 0 128 M32 160 C10.67 160, 0 149.33, 0 128 M0 128 C0 98.72, 0 69.44, 0 32 M0 128 C0 102.96, 0 77.92, 0 32 M0 32 C0 10.67, 10.67 0, 32 0 M0 32 C0 10.67, 10.67 0, 32 0" stroke="#1e1e1e" stroke-width="4" fill="none"></path></g><g stroke-linecap="round" transform="translate(30 1330) rotate(0 80 80)"><path d="M32 0 M32 0 C67.86 0, 103.72 0, 128 0 M32 0 C61.25 0, 90.5 0, 128 0 M128 0 C149.33 0, 160 10.67, 160 32 M128 0 C149.33 0, 160 10.67, 160 32 M160 32 C160 53.31, 160 74.61, 160 128 M160 32 C160 64.66, 160 97.32, 160 128 M160 128 C160 149.33, 149.33 160, 128 160 M160 128 C160 149.33, 149.33 160, 128 160 M128 160 C105.52 160, 83.04 160, 32 160 M128 160 C105.88 160, 83.75 160, 32 160 M32 160 C10.67 160, 0 149.33, 0 128 M32 160 C10.67 160, 0 149.33, 0 128 M0 128 C0 100.23, 0 72.45, 0 32 M0 128 C0 98.7, 0 69.41, 0 32 M0 32 C0 10.67, 10.67 0, 32 0 M0 32 C0 10.67, 10.67 0, 32 0" stroke="#1e1e1e" stroke-width="4" fill="none"></path></g><g stroke-linecap="round" transform="translate(30 1530) rotate(0 80 80)"><path d="M32 0 M32 0 C53.29 0, 74.58 0, 128 0 M32 0 C57.95 0, 83.91 0, 128 0 M128 0 C149.33 0, 160 10.67, 160 32 M128 0 C149.33 0, 160 10.67, 160 32 M160 32 C160 54.58, 160 77.16, 160 128 M160 32 C160 68.14, 160 104.28, 160 128 M160 128 C160 149.33, 149.33 160, 128 160 M160 128 C160 149.33, 149.33 160, 128 160 M128 160 C104.12 160, 80.23 160, 32 160 M128 160 C95.35 160, 62.71 160, 32 160 M32 160 C10.67 160, 0 149.33, 0 128 M32 160 C10.67 160, 0 149.33, 0 128 M0 128 C0 99.2, 0 70.4, 0 32 M0 128 C0 104.17, 0 80.34, 0 32 M0 32 C0 10.67, 10.67 0, 32 0 M0 32 C0 10.67, 10.67 0, 32 0" stroke="#1e1e1e" stroke-width="4" fill="none"></path></g><g stroke-linecap="round" transform="translate(230 1530) rotate(0 80 80)"><path d="M32 0 M32 0 C52.52 0, 73.04 0, 128 0 M32 0 C59.77 0, 87.53 0, 128 0 M128 0 C149.33 0, 160 10.67, 160 32 M128 0 C149.33 0, 160 10.67, 160 32 M160 32 C160 70.29, 160 108.58, 160 128 M160 32 C160 52.57, 160 73.14, 160 128 M160 128 C160 149.33, 149.33 160, 128 160 M160 128 C160 149.33, 149.33 160, 128 160 M128 160 C97.22 160, 66.44 160, 32 160 M128 160 C104.36 160, 80.71 160, 32 160 M32 160 C10.67 160, 0 149.33, 0 128 M32 160 C10.67 160, 0 149.33, 0 128 M0 128 C0 98.61, 0 69.22, 0 32 M0 128 C0 89.76, 0 51.51, 0 32 M0 32 C0 10.67, 10.67 0, 32 0 M0 32 C0 10.67, 10.67 0, 32 0" stroke="#1e1e1e" stroke-width="4" fill="none"></path></g><g stroke-linecap="round" transform="translate(430 1530) rotate(0 80 80)"><path d="M32 0 M32 0 C66.78 0, 101.57 0, 128 0 M32 0 C63.29 0, 94.58 0, 128 0 M128 0 C149.33 0, 160 10.67, 160 32 M128 0 C149.33 0, 160 10.67, 160 32 M160 32 C160 60.92, 160 89.85, 160 128 M160 32 C160 59.19, 160 86.39, 160 128 M160 128 C160 149.33, 149.33 160, 128 160 M160 128 C160 149.33, 149.33 160, 128 160 M128 160 C108.09 160, 88.18 160, 32 160 M128 160 C94.4 160, 60.79 160, 32 160 M32 160 C10.67 160, 0 149.33, 0 128 M32 160 C10.67 160, 0 149.33, 0 128 M0 128 C0 106.05, 0 84.1, 0 32 M0 128 C0 105.53, 0 83.06, 0 32 M0 32 C0 10.67, 10.67 0, 32 0 M0 32 C0 10.67, 10.67 0, 32 0" stroke="#1e1e1e" stroke-width="4" fill="none"></path></g><g stroke-linecap="round" transform="translate(630 1530) rotate(0 80 80)"><path d="M32 0 M32 0 C54.28 0, 76.57 0, 128 0 M32 0 C62.26 0, 92.52 0, 128 0 M128 0 C149.33 0, 160 10.67, 160 32 M128 0 C149.33 0, 160 10.67, 160 32 M160 32 C160 57.34, 160 82.69, 160 128 M160 32 C160 60.99, 160 89.99, 160 128 M160 128 C160 149.33, 149.33 160, 128 160 M160 128 C160 149.33, 149.33 160, 128 160 M128 160 C91.41 160, 54.81 160, 32 160 M128 160 C103.05 160, 78.1 160, 32 160 M32 160 C10.67 160, 0 149.33, 0 128 M32 160 C10.67 160, 0 149.33, 0 128 M0 128 C0 100.75, 0 73.51, 0 32 M0 128 C0 93.42, 0 58.85, 0 32 M0 32 C0 10.67, 10.67 0, 32 0 M0 32 C0 10.67, 10.67 0, 32 0" stroke="#1e1e1e" stroke-width="4" fill="none"></path></g><g stroke-linecap="round" transform="translate(910 10) rotate(0 400 400)"><path d="M32 0 L768 0 L775.5 0.5 L782 2 L787.5 4.5 L792 8 L795.5 12.5 L798 18 L799.5 24.5 L800 32 L800 768 L799.5 775.5 L798 782 L795.5 787.5 L792 792 L787.5 795.5 L782 798 L775.5 799.5 L768 800 L32 800 L24.5 799.5 L18 798 L12.5 795.5 L8 792 L4.5 787.5 L2 782 L0.5 775.5 L0 768 L0 32 L0.5 24.5 L2 18 L4.5 12.5 L8 8 L12.5 4.5 L18 2 L24.5 0.5 L32 0" stroke="none" stroke-width="0" fill="#eaddd7"></path><path d="M32 0 M32 0 C267.57 0, 503.14 0, 768 0 M32 0 C215.36 0, 398.72 0, 768 0 M768 0 C789.33 0, 800 10.67, 800 32 M768 0 C789.33 0, 800 10.67, 800 32 M800 32 C800 209.38, 800 386.76, 800 768 M800 32 C800 267.5, 800 503, 800 768 M800 768 C800 789.33, 789.33 800, 768 800 M800 768 C800 789.33, 789.33 800, 768 800 M768 800 C496.07 800, 224.14 800, 32 800 M768 800 C542.87 800, 317.74 800, 32 800 M32 800 C10.67 800, 0 789.33, 0 768 M32 800 C10.67 800, 0 789.33, 0 768 M0 768 C0 588.79, 0 409.59, 0 32 M0 768 C0 595.79, 0 423.58, 0 32 M0 32 C0 10.67, 10.67 0, 32 0 M0 32 C0 10.67, 10.67 0, 32 0" stroke="#1e1e1e" stroke-width="4" fill="none"></path></g><g stroke-linecap="round" transform="translate(930 30) rotate(0 80 80)"><path d="M32 0 M32 0 C52.64 0, 73.28 0, 128 0 M32 0 C58.72 0, 85.45 0, 128 0 M128 0 C149.33 0, 160 10.67, 160 32 M128 0 C149.33 0, 160 10.67, 160 32 M160 32 C160 68.81, 160 105.62, 160 128 M160 32 C160 55.48, 160 78.97, 160 128 M160 128 C160 149.33, 149.33 160, 128 160 M160 128 C160 149.33, 149.33 160, 128 160 M128 160 C98.09 160, 68.18 160, 32 160 M128 160 C98.46 160, 68.91 160, 32 160 M32 160 C10.67 160, 0 149.33, 0 128 M32 160 C10.67 160, 0 149.33, 0 128 M0 128 C0 89.83, 0 51.66, 0 32 M0 128 C0 101.87, 0 75.73, 0 32 M0 32 C0 10.67, 10.67 0, 32 0 M0 32 C0 10.67, 10.67 0, 32 0" stroke="#1e1e1e" stroke-width="4" fill="none"></path></g><g stroke-linecap="round" transform="translate(1130 30) rotate(0 80 80)"><path d="M32 0 M32 0 C61.74 0, 91.48 0, 128 0 M32 0 C68.34 0, 104.68 0, 128 0 M128 0 C149.33 0, 160 10.67, 160 32 M128 0 C149.33 0, 160 10.67, 160 32 M160 32 C160 64.81, 160 97.63, 160 128 M160 32 C160 56.58, 160 81.16, 160 128 M160 128 C160 149.33, 149.33 160, 128 160 M160 128 C160 149.33, 149.33 160, 128 160 M128 160 C101.38 160, 74.77 160, 32 160 M128 160 C98.51 160, 69.03 160, 32 160 M32 160 C10.67 160, 0 149.33, 0 128 M32 160 C10.67 160, 0 149.33, 0 128 M0 128 C0 103.02, 0 78.04, 0 32 M0 128 C0 98.63, 0 69.26, 0 32 M0 32 C0 10.67, 10.67 0, 32 0 M0 32 C0 10.67, 10.67 0, 32 0" stroke="#1e1e1e" stroke-width="4" fill="none"></path></g><g stroke-linecap="round" transform="translate(1330 30) rotate(0 80 80)"><path d="M32 0 M32 0 C68.17 0, 104.34 0, 128 0 M32 0 C70.05 0, 108.09 0, 128 0 M128 0 C149.33 0, 160 10.67, 160 32 M128 0 C149.33 0, 160 10.67, 160 32 M160 32 C160 56.12, 160 80.23, 160 128 M160 32 C160 61.28, 160 90.55, 160 128 M160 128 C160 149.33, 149.33 160, 128 160 M160 128 C160 149.33, 149.33 160, 128 160 M128 160 C105.39 160, 82.77 160, 32 160 M128 160 C94.59 160, 61.18 160, 32 160 M32 160 C10.67 160, 0 149.33, 0 128 M32 160 C10.67 160, 0 149.33, 0 128 M0 128 C0 94.3, 0 60.61, 0 32 M0 128 C0 105.14, 0 82.28, 0 32 M0 32 C0 10.67, 10.67 0, 32 0 M0 32 C0 10.67, 10.67 0, 32 0" stroke="#1e1e1e" stroke-width="4" fill="none"></path></g><g stroke-linecap="round" transform="translate(1530 30) rotate(0 80 80)"><path d="M32 0 M32 0 C60.37 0, 88.74 0, 128 0 M32 0 C57.03 0, 82.07 0, 128 0 M128 0 C149.33 0, 160 10.67, 160 32 M128 0 C149.33 0, 160 10.67, 160 32 M160 32 C160 56.42, 160 80.84, 160 128 M160 32 C160 60.6, 160 89.2, 160 128 M160 128 C160 149.33, 149.33 160, 128 160 M160 128 C160 149.33, 149.33 160, 128 160 M128 160 C90.94 160, 53.88 160, 32 160 M128 160 C106.81 160, 85.62 160, 32 160 M32 160 C10.67 160, 0 149.33, 0 128 M32 160 C10.67 160, 0 149.33, 0 128 M0 128 C0 97.27, 0 66.55, 0 32 M0 128 C0 104.08, 0 80.17, 0 32 M0 32 C0 10.67, 10.67 0, 32 0 M0 32 C0 10.67, 10.67 0, 32 0" stroke="#1e1e1e" stroke-width="4" fill="none"></path></g><g stroke-linecap="round" transform="translate(930 230) rotate(0 80 80)"><path d="M32 0 L135.5 0.5 L142 2 L147.5 4.5 L152 8 L155.5 12.5 L158 18 L159.5 24.5 L160 32 L160 128 L159.5 135.5 L158 142 L155.5 147.5 L152 152 L147.5 155.5 L142 158 L135.5 159.5 L128 160 L32 160 L24.5 159.5 L18 158 L12.5 155.5 L8 152 L4.5 147.5 L2 142 L0.5 135.5 L0 128 L0.5 24.5 L2 18 L4.5 12.5 L8 8 L12.5 4.5 L18 2 L24.5 0.5 L32 0" stroke="none" stroke-width="0" fill="#a5d8ff"></path><path d="M32 0 M32 0 C54.19 0, 76.37 0, 128 0 M32 0 C56.49 0, 80.97 0, 128 0 M128 0 C149.33 0, 160 10.67, 160 32 M128 0 C149.33 0, 160 10.67, 160 32 M160 32 C160 67.57, 160 103.15, 160 128 M160 32 C160 51.23, 160 70.47, 160 128 M160 128 C160 149.33, 149.33 160, 128 160 M160 128 C160 149.33, 149.33 160, 128 160 M128 160 C107.43 160, 86.87 160, 32 160 M128 160 C106.07 160, 84.15 160, 32 160 M32 160 C10.67 160, 0 149.33, 0 128 M32 160 C10.67 160, 0 149.33, 0 128 M0 128 C0 98.57, 0 69.14, 0 32 M0 128 C0 108.15, 0 88.3, 0 32 M0 32 C0 10.67, 10.67 0, 32 0 M0 32 C0 10.67, 10.67 0, 32 0" stroke="#1e1e1e" stroke-width="4" fill="none"></path></g><g stroke-linecap="round" transform="translate(1130 230) rotate(0 80 80)"><path d="M32 0 L135.5 0.5 L142 2 L147.5 4.5 L152 8 L155.5 12.5 L158 18 L159.5 24.5 L160 32 L160 128 L159.5 135.5 L158 142 L155.5 147.5 L152 152 L147.5 155.5 L142 158 L135.5 159.5 L128 160 L32 160 L24.5 159.5 L18 158 L12.5 155.5 L8 152 L4.5 147.5 L2 142 L0.5 135.5 L0 128 L0.5 24.5 L2 18 L4.5 12.5 L8 8 L12.5 4.5 L18 2 L24.5 0.5 L32 0" stroke="none" stroke-width="0" fill="#a5d8ff"></path><path d="M32 0 M32 0 C63.79 0, 95.59 0, 128 0 M32 0 C51.86 0, 71.71 0, 128 0 M128 0 C149.33 0, 160 10.67, 160 32 M128 0 C149.33 0, 160 10.67, 160 32 M160 32 C160 60.92, 160 89.84, 160 128 M160 32 C160 65.6, 160 99.19, 160 128 M160 128 C160 149.33, 149.33 160, 128 160 M160 128 C160 149.33, 149.33 160, 128 160 M128 160 C96.02 160, 64.03 160, 32 160 M128 160 C102.39 160, 76.78 160, 32 160 M32 160 C10.67 160, 0 149.33, 0 128 M32 160 C10.67 160, 0 149.33, 0 128 M0 128 C0 105.35, 0 82.69, 0 32 M0 128 C0 91.92, 0 55.84, 0 32 M0 32 C0 10.67, 10.67 0, 32 0 M0 32 C0 10.67, 10.67 0, 32 0" stroke="#1e1e1e" stroke-width="4" fill="none"></path></g><g stroke-linecap="round" transform="translate(1330 230) rotate(0 80 80)"><path d="M32 0 L135.5 0.5 L142 2 L147.5 4.5 L152 8 L155.5 12.5 L158 18 L159.5 24.5 L160 32 L160 128 L159.5 135.5 L158 142 L155.5 147.5 L152 152 L147.5 155.5 L142 158 L135.5 159.5 L128 160 L32 160 L24.5 159.5 L18 158 L12.5 155.5 L8 152 L4.5 147.5 L2 142 L0.5 135.5 L0 128 L0.5 24.5 L2 18 L4.5 12.5 L8 8 L12.5 4.5 L18 2 L24.5 0.5 L32 0" stroke="none" stroke-width="0" fill="#a5d8ff"></path><path d="M32 0 M32 0 C51.72 0, 71.43 0, 128 0 M32 0 C53.37 0, 74.74 0, 128 0 M128 0 C149.33 0, 160 10.67, 160 32 M128 0 C149.33 0, 160 10.67, 160 32 M160 32 C160 65.75, 160 99.5, 160 128 M160 32 C160 51.31, 160 70.63, 160 128 M160 128 C160 149.33, 149.33 160, 128 160 M160 128 C160 149.33, 149.33 160, 128 160 M128 160 C95.73 160, 63.46 160, 32 160 M128 160 C101.86 160, 75.72 160, 32 160 M32 160 C10.67 160, 0 149.33, 0 128 M32 160 C10.67 160, 0 149.33, 0 128 M0 128 C0 93.05, 0 58.1, 0 32 M0 128 C0 92.07, 0 56.15, 0 32 M0 32 C0 10.67, 10.67 0, 32 0 M0 32 C0 10.67, 10.67 0, 32 0" stroke="#1e1e1e" stroke-width="4" fill="none"></path></g><g stroke-linecap="round" transform="translate(1530 230) rotate(0 80 80)"><path d="M32 0 L135.5 0.5 L142 2 L147.5 4.5 L152 8 L155.5 12.5 L158 18 L159.5 24.5 L160 32 L160 128 L159.5 135.5 L158 142 L155.5 147.5 L152 152 L147.5 155.5 L142 158 L135.5 159.5 L128 160 L32 160 L24.5 159.5 L18 158 L12.5 155.5 L8 152 L4.5 147.5 L2 142 L0.5 135.5 L0 128 L0.5 24.5 L2 18 L4.5 12.5 L8 8 L12.5 4.5 L18 2 L24.5 0.5 L32 0" stroke="none" stroke-width="0" fill="#a5d8ff"></path><path d="M32 0 M32 0 C51.98 0, 71.96 0, 128 0 M32 0 C52.14 0, 72.27 0, 128 0 M128 0 C149.33 0, 160 10.67, 160 32 M128 0 C149.33 0, 160 10.67, 160 32 M160 32 C160 51.94, 160 71.89, 160 128 M160 32 C160 57.94, 160 83.88, 160 128 M160 128 C160 149.33, 149.33 160, 128 160 M160 128 C160 149.33, 149.33 160, 128 160 M128 160 C105.44 160, 82.88 160, 32 160 M128 160 C101.49 160, 74.97 160, 32 160 M32 160 C10.67 160, 0 149.33, 0 128 M32 160 C10.67 160, 0 149.33, 0 128 M0 128 C0 106.68, 0 85.37, 0 32 M0 128 C0 103.57, 0 79.13, 0 32 M0 32 C0 10.67, 10.67 0, 32 0 M0 32 C0 10.67, 10.67 0, 32 0" stroke="#1e1e1e" stroke-width="4" fill="none"></path></g><g stroke-linecap="round" transform="translate(1530 430) rotate(0 80 80)"><path d="M32 0 M32 0 C60.92 0, 89.85 0, 128 0 M32 0 C59.19 0, 86.39 0, 128 0 M128 0 C149.33 0, 160 10.67, 160 32 M128 0 C149.33 0, 160 10.67, 160 32 M160 32 C160 51.91, 160 71.82, 160 128 M160 32 C160 65.6, 160 99.21, 160 128 M160 128 C160 149.33, 149.33 160, 128 160 M160 128 C160 149.33, 149.33 160, 128 160 M128 160 C106.05 160, 84.1 160, 32 160 M128 160 C105.53 160, 83.06 160, 32 160 M32 160 C10.67 160, 0 149.33, 0 128 M32 160 C10.67 160, 0 149.33, 0 128 M0 128 C0 108.28, 0 88.57, 0 32 M0 128 C0 106.63, 0 85.26, 0 32 M0 32 C0 10.67, 10.67 0, 32 0 M0 32 C0 10.67, 10.67 0, 32 0" stroke="#1e1e1e" stroke-width="4" fill="none"></path></g><g stroke-linecap="round" transform="translate(1330 430) rotate(0 80 80)"><path d="M32 0 M32 0 C57.34 0, 82.69 0, 128 0 M32 0 C60.99 0, 89.99 0, 128 0 M128 0 C149.33 0, 160 10.67, 160 32 M128 0 C149.33 0, 160 10.67, 160 32 M160 32 C160 68.59, 160 105.19, 160 128 M160 32 C160 56.95, 160 81.9, 160 128 M160 128 C160 149.33, 149.33 160, 128 160 M160 128 C160 149.33, 149.33 160, 128 160 M128 160 C100.75 160, 73.51 160, 32 160 M128 160 C93.42 160, 58.85 160, 32 160 M32 160 C10.67 160, 0 149.33, 0 128 M32 160 C10.67 160, 0 149.33, 0 128 M0 128 C0 108.02, 0 88.04, 0 32 M0 128 C0 107.86, 0 87.73, 0 32 M0 32 C0 10.67, 10.67 0, 32 0 M0 32 C0 10.67, 10.67 0, 32 0" stroke="#1e1e1e" stroke-width="4" fill="none"></path></g><g stroke-linecap="round" transform="translate(1130 430) rotate(0 80 80)"><path d="M32 0 L135.5 0.5 L142 2 L147.5 4.5 L152 8 L155.5 12.5 L158 18 L159.5 24.5 L160 32 L160 128 L159.5 135.5 L158 142 L155.5 147.5 L152 152 L147.5 155.5 L142 158 L135.5 159.5 L128 160 L32 160 L24.5 159.5 L18 158 L12.5 155.5 L8 152 L4.5 147.5 L2 142 L0.5 135.5 L0 128 L0.5 24.5 L2 18 L4.5 12.5 L8 8 L12.5 4.5 L18 2 L24.5 0.5 L32 0" stroke="none" stroke-width="0" fill="#a5d8ff"></path><path d="M32 0 M32 0 C61.01 0, 90.02 0, 128 0 M32 0 C54.19 0, 76.39 0, 128 0 M128 0 C149.33 0, 160 10.67, 160 32 M128 0 C149.33 0, 160 10.67, 160 32 M160 32 C160 66.87, 160 101.73, 160 128 M160 32 C160 59.34, 160 86.67, 160 128 M160 128 C160 149.33, 149.33 160, 128 160 M160 128 C160 149.33, 149.33 160, 128 160 M128 160 C105.61 160, 83.22 160, 32 160 M128 160 C98.18 160, 68.37 160, 32 160 M32 160 C10.67 160, 0 149.33, 0 128 M32 160 C10.67 160, 0 149.33, 0 128 M0 128 C0 107.51, 0 87.02, 0 32 M0 128 C0 107.52, 0 87.04, 0 32 M0 32 C0 10.67, 10.67 0, 32 0 M0 32 C0 10.67, 10.67 0, 32 0" stroke="#1e1e1e" stroke-width="4" fill="none"></path></g><g stroke-linecap="round" transform="translate(930 430) rotate(0 80 80)"><path d="M32 0 L135.5 0.5 L142 2 L147.5 4.5 L152 8 L155.5 12.5 L158 18 L159.5 24.5 L160 32 L160 128 L159.5 135.5 L158 142 L155.5 147.5 L152 152 L147.5 155.5 L142 158 L135.5 159.5 L128 160 L32 160 L24.5 159.5 L18 158 L12.5 155.5 L8 152 L4.5 147.5 L2 142 L0.5 135.5 L0 128 L0.5 24.5 L2 18 L4.5 12.5 L8 8 L12.5 4.5 L18 2 L24.5 0.5 L32 0" stroke="none" stroke-width="0" fill="#a5d8ff"></path><path d="M32 0 M32 0 C63.67 0, 95.34 0, 128 0 M32 0 C65.47 0, 98.95 0, 128 0 M128 0 C149.33 0, 160 10.67, 160 32 M128 0 C149.33 0, 160 10.67, 160 32 M160 32 C160 60.51, 160 89.03, 160 128 M160 32 C160 63.93, 160 95.87, 160 128 M160 128 C160 149.33, 149.33 160, 128 160 M160 128 C160 149.33, 149.33 160, 128 160 M128 160 C103.93 160, 79.86 160, 32 160 M128 160 C95.26 160, 62.51 160, 32 160 M32 160 C10.67 160, 0 149.33, 0 128 M32 160 C10.67 160, 0 149.33, 0 128 M0 128 C0 94.96, 0 61.91, 0 32 M0 128 C0 104.75, 0 81.5, 0 32 M0 32 C0 10.67, 10.67 0, 32 0 M0 32 C0 10.67, 10.67 0, 32 0" stroke="#1e1e1e" stroke-width="4" fill="none"></path></g><g stroke-linecap="round" transform="translate(930 630) rotate(0 80 80)"><path d="M32 0 M32 0 C64.81 0, 97.63 0, 128 0 M32 0 C56.58 0, 81.16 0, 128 0 M128 0 C149.33 0, 160 10.67, 160 32 M128 0 C149.33 0, 160 10.67, 160 32 M160 32 C160 58.62, 160 85.23, 160 128 M160 32 C160 61.49, 160 90.97, 160 128 M160 128 C160 149.33, 149.33 160, 128 160 M160 128 C160 149.33, 149.33 160, 128 160 M128 160 C103.02 160, 78.04 160, 32 160 M128 160 C98.63 160, 69.26 160, 32 160 M32 160 C10.67 160, 0 149.33, 0 128 M32 160 C10.67 160, 0 149.33, 0 128 M0 128 C0 98.99, 0 69.98, 0 32 M0 128 C0 105.81, 0 83.61, 0 32 M0 32 C0 10.67, 10.67 0, 32 0 M0 32 C0 10.67, 10.67 0, 32 0" stroke="#1e1e1e" stroke-width="4" fill="none"></path></g><g stroke-linecap="round" transform="translate(1130 630) rotate(0 80 80)"><path d="M32 0 M32 0 C56.12 0, 80.23 0, 128 0 M32 0 C61.28 0, 90.55 0, 128 0 M128 0 C149.33 0, 160 10.67, 160 32 M128 0 C149.33 0, 160 10.67, 160 32 M160 32 C160 54.61, 160 77.23, 160 128 M160 32 C160 65.41, 160 98.82, 160 128 M160 128 C160 149.33, 149.33 160, 128 160 M160 128 C160 149.33, 149.33 160, 128 160 M128 160 C94.3 160, 60.61 160, 32 160 M128 160 C105.14 160, 82.28 160, 32 160 M32 160 C10.67 160, 0 149.33, 0 128 M32 160 C10.67 160, 0 149.33, 0 128 M0 128 C0 96.33, 0 64.66, 0 32 M0 128 C0 94.53, 0 61.05, 0 32 M0 32 C0 10.67, 10.67 0, 32 0 M0 32 C0 10.67, 10.67 0, 32 0" stroke="#1e1e1e" stroke-width="4" fill="none"></path></g><g stroke-linecap="round" transform="translate(1330 630) rotate(0 80 80)"><path d="M32 0 M32 0 C56.42 0, 80.84 0, 128 0 M32 0 C60.6 0, 89.2 0, 128 0 M128 0 C149.33 0, 160 10.67, 160 32 M128 0 C149.33 0, 160 10.67, 160 32 M160 32 C160 69.06, 160 106.12, 160 128 M160 32 C160 53.19, 160 74.38, 160 128 M160 128 C160 149.33, 149.33 160, 128 160 M160 128 C160 149.33, 149.33 160, 128 160 M128 160 C97.27 160, 66.55 160, 32 160 M128 160 C104.08 160, 80.17 160, 32 160 M32 160 C10.67 160, 0 149.33, 0 128 M32 160 C10.67 160, 0 149.33, 0 128 M0 128 C0 104.86, 0 81.73, 0 32 M0 128 C0 97.28, 0 66.57, 0 32 M0 32 C0 10.67, 10.67 0, 32 0 M0 32 C0 10.67, 10.67 0, 32 0" stroke="#1e1e1e" stroke-width="4" fill="none"></path></g><g stroke-linecap="round" transform="translate(1530 630) rotate(0 80 80)"><path d="M32 0 M32 0 C59.8 0, 87.59 0, 128 0 M32 0 C67.32 0, 102.63 0, 128 0 M128 0 C149.33 0, 160 10.67, 160 32 M128 0 C149.33 0, 160 10.67, 160 32 M160 32 C160 61.28, 160 90.56, 160 128 M160 32 C160 57.04, 160 82.08, 160 128 M160 128 C160 149.33, 149.33 160, 128 160 M160 128 C160 149.33, 149.33 160, 128 160 M128 160 C91.94 160, 55.89 160, 32 160 M128 160 C91.2 160, 54.41 160, 32 160 M32 160 C10.67 160, 0 149.33, 0 128 M32 160 C10.67 160, 0 149.33, 0 128 M0 128 C0 102.16, 0 76.31, 0 32 M0 128 C0 108.38, 0 88.76, 0 32 M0 32 C0 10.67, 10.67 0, 32 0 M0 32 C0 10.67, 10.67 0, 32 0" stroke="#1e1e1e" stroke-width="4" fill="none"></path></g><g stroke-linecap="round" transform="translate(910 910) rotate(0 400 400)"><path d="M32 0 L768 0 L775.5 0.5 L782 2 L787.5 4.5 L792 8 L795.5 12.5 L798 18 L799.5 24.5 L800 32 L800 768 L799.5 775.5 L798 782 L795.5 787.5 L792 792 L787.5 795.5 L782 798 L775.5 799.5 L768 800 L32 800 L24.5 799.5 L18 798 L12.5 795.5 L8 792 L4.5 787.5 L2 782 L0.5 775.5 L0 768 L0 32 L0.5 24.5 L2 18 L4.5 12.5 L8 8 L12.5 4.5 L18 2 L24.5 0.5 L32 0" stroke="none" stroke-width="0" fill="#eaddd7"></path><path d="M32 0 M32 0 C184.91 0, 337.82 0, 768 0 M32 0 C230.86 0, 429.71 0, 768 0 M768 0 C789.33 0, 800 10.67, 800 32 M768 0 C789.33 0, 800 10.67, 800 32 M800 32 C800 204.97, 800 377.94, 800 768 M800 32 C800 235.28, 800 438.56, 800 768 M800 768 C800 789.33, 789.33 800, 768 800 M800 768 C800 789.33, 789.33 800, 768 800 M768 800 C604.58 800, 441.16 800, 32 800 M768 800 C580.68 800, 393.36 800, 32 800 M32 800 C10.67 800, 0 789.33, 0 768 M32 800 C10.67 800, 0 789.33, 0 768 M0 768 C0 501.47, 0 234.95, 0 32 M0 768 C0 515.84, 0 263.69, 0 32 M0 32 C0 10.67, 10.67 0, 32 0 M0 32 C0 10.67, 10.67 0, 32 0" stroke="#1e1e1e" stroke-width="4" fill="none"></path></g><g stroke-linecap="round" transform="translate(930 930) rotate(0 80 80)"><path d="M32 0 M32 0 C55.88 0, 79.77 0, 128 0 M32 0 C64.65 0, 97.29 0, 128 0 M128 0 C149.33 0, 160 10.67, 160 32 M128 0 C149.33 0, 160 10.67, 160 32 M160 32 C160 60.8, 160 89.6, 160 128 M160 32 C160 55.83, 160 79.66, 160 128 M160 128 C160 149.33, 149.33 160, 128 160 M160 128 C160 149.33, 149.33 160, 128 160 M128 160 C105.81 160, 83.63 160, 32 160 M128 160 C103.51 160, 79.03 160, 32 160 M32 160 C10.67 160, 0 149.33, 0 128 M32 160 C10.67 160, 0 149.33, 0 128 M0 128 C0 92.43, 0 56.85, 0 32 M0 128 C0 108.77, 0 89.53, 0 32 M0 32 C0 10.67, 10.67 0, 32 0 M0 32 C0 10.67, 10.67 0, 32 0" stroke="#1e1e1e" stroke-width="4" fill="none"></path></g><g stroke-linecap="round" transform="translate(1130 930) rotate(0 80 80)"><path d="M32 0 M32 0 C62.78 0, 93.56 0, 128 0 M32 0 C55.64 0, 79.29 0, 128 0 M128 0 C149.33 0, 160 10.67, 160 32 M128 0 C149.33 0, 160 10.67, 160 32 M160 32 C160 61.39, 160 90.78, 160 128 M160 32 C160 70.24, 160 108.49, 160 128 M160 128 C160 149.33, 149.33 160, 128 160 M160 128 C160 149.33, 149.33 160, 128 160 M128 160 C96.21 160, 64.41 160, 32 160 M128 160 C108.14 160, 88.29 160, 32 160 M32 160 C10.67 160, 0 149.33, 0 128 M32 160 C10.67 160, 0 149.33, 0 128 M0 128 C0 99.08, 0 70.16, 0 32 M0 128 C0 94.4, 0 60.81, 0 32 M0 32 C0 10.67, 10.67 0, 32 0 M0 32 C0 10.67, 10.67 0, 32 0" stroke="#1e1e1e" stroke-width="4" fill="none"></path></g><g stroke-linecap="round" transform="translate(1330 930) rotate(0 80 80)"><path d="M32 0 M32 0 C51.91 0, 71.82 0, 128 0 M32 0 C65.6 0, 99.21 0, 128 0 M128 0 C149.33 0, 160 10.67, 160 32 M128 0 C149.33 0, 160 10.67, 160 32 M160 32 C160 53.95, 160 75.9, 160 128 M160 32 C160 54.47, 160 76.94, 160 128 M160 128 C160 149.33, 149.33 160, 128 160 M160 128 C160 149.33, 149.33 160, 128 160 M128 160 C108.28 160, 88.57 160, 32 160 M128 160 C106.63 160, 85.26 160, 32 160 M32 160 C10.67 160, 0 149.33, 0 128 M32 160 C10.67 160, 0 149.33, 0 128 M0 128 C0 94.25, 0 60.5, 0 32 M0 128 C0 108.69, 0 89.37, 0 32 M0 32 C0 10.67, 10.67 0, 32 0 M0 32 C0 10.67, 10.67 0, 32 0" stroke="#1e1e1e" stroke-width="4" fill="none"></path></g><g stroke-linecap="round" transform="translate(1530 930) rotate(0 80 80)"><path d="M32 0 M32 0 C68.59 0, 105.19 0, 128 0 M32 0 C56.95 0, 81.9 0, 128 0 M128 0 C149.33 0, 160 10.67, 160 32 M128 0 C149.33 0, 160 10.67, 160 32 M160 32 C160 59.25, 160 86.49, 160 128 M160 32 C160 66.58, 160 101.15, 160 128 M160 128 C160 149.33, 149.33 160, 128 160 M160 128 C160 149.33, 149.33 160, 128 160 M128 160 C108.02 160, 88.04 160, 32 160 M128 160 C107.86 160, 87.73 160, 32 160 M32 160 C10.67 160, 0 149.33, 0 128 M32 160 C10.67 160, 0 149.33, 0 128 M0 128 C0 108.06, 0 88.11, 0 32 M0 128 C0 102.06, 0 76.12, 0 32 M0 32 C0 10.67, 10.67 0, 32 0 M0 32 C0 10.67, 10.67 0, 32 0" stroke="#1e1e1e" stroke-width="4" fill="none"></path></g><g stroke-linecap="round" transform="translate(930 1130) rotate(0 80 80)"><path d="M32 0 L135.5 0.5 L142 2 L147.5 4.5 L152 8 L155.5 12.5 L158 18 L159.5 24.5 L160 32 L160 128 L159.5 135.5 L158 142 L155.5 147.5 L152 152 L147.5 155.5 L142 158 L135.5 159.5 L128 160 L32 160 L24.5 159.5 L18 158 L12.5 155.5 L8 152 L4.5 147.5 L2 142 L0.5 135.5 L0 128 L0.5 24.5 L2 18 L4.5 12.5 L8 8 L12.5 4.5 L18 2 L24.5 0.5 L32 0" stroke="none" stroke-width="0" fill="#ffec99"></path><path d="M32 0 M32 0 C66.87 0, 101.73 0, 128 0 M32 0 C59.34 0, 86.67 0, 128 0 M128 0 C149.33 0, 160 10.67, 160 32 M128 0 C149.33 0, 160 10.67, 160 32 M160 32 C160 54.39, 160 76.78, 160 128 M160 32 C160 61.82, 160 91.63, 160 128 M160 128 C160 149.33, 149.33 160, 128 160 M160 128 C160 149.33, 149.33 160, 128 160 M128 160 C107.51 160, 87.02 160, 32 160 M128 160 C107.52 160, 87.04 160, 32 160 M32 160 C10.67 160, 0 149.33, 0 128 M32 160 C10.67 160, 0 149.33, 0 128 M0 128 C0 89.86, 0 51.73, 0 32 M0 128 C0 91.79, 0 55.59, 0 32 M0 32 C0 10.67, 10.67 0, 32 0 M0 32 C0 10.67, 10.67 0, 32 0" stroke="#1e1e1e" stroke-width="4" fill="none"></path></g><g stroke-linecap="round" transform="translate(1130 1130) rotate(0 80 80)"><path d="M32 0 L135.5 0.5 L142 2 L147.5 4.5 L152 8 L155.5 12.5 L158 18 L159.5 24.5 L160 32 L160 128 L159.5 135.5 L158 142 L155.5 147.5 L152 152 L147.5 155.5 L142 158 L135.5 159.5 L128 160 L32 160 L24.5 159.5 L18 158 L12.5 155.5 L8 152 L4.5 147.5 L2 142 L0.5 135.5 L0 128 L0.5 24.5 L2 18 L4.5 12.5 L8 8 L12.5 4.5 L18 2 L24.5 0.5 L32 0" stroke="none" stroke-width="0" fill="#ffec99"></path><path d="M32 0 M32 0 C60.51 0, 89.03 0, 128 0 M32 0 C63.93 0, 95.87 0, 128 0 M128 0 C149.33 0, 160 10.67, 160 32 M128 0 C149.33 0, 160 10.67, 160 32 M160 32 C160 56.07, 160 80.14, 160 128 M160 32 C160 64.74, 160 97.49, 160 128 M160 128 C160 149.33, 149.33 160, 128 160 M160 128 C160 149.33, 149.33 160, 128 160 M128 160 C94.96 160, 61.91 160, 32 160 M128 160 C104.75 160, 81.5 160, 32 160 M32 160 C10.67 160, 0 149.33, 0 128 M32 160 C10.67 160, 0 149.33, 0 128 M0 128 C0 92.77, 0 57.55, 0 32 M0 128 C0 104.98, 0 81.96, 0 32 M0 32 C0 10.67, 10.67 0, 32 0 M0 32 C0 10.67, 10.67 0, 32 0" stroke="#1e1e1e" stroke-width="4" fill="none"></path></g><g stroke-linecap="round" transform="translate(1330 1130) rotate(0 80 80)"><path d="M32 0 L135.5 0.5 L142 2 L147.5 4.5 L152 8 L155.5 12.5 L158 18 L159.5 24.5 L160 32 L160 128 L159.5 135.5 L158 142 L155.5 147.5 L152 152 L147.5 155.5 L142 158 L135.5 159.5 L128 160 L32 160 L24.5 159.5 L18 158 L12.5 155.5 L8 152 L4.5 147.5 L2 142 L0.5 135.5 L0 128 L0.5 24.5 L2 18 L4.5 12.5 L8 8 L12.5 4.5 L18 2 L24.5 0.5 L32 0" stroke="none" stroke-width="0" fill="#ffec99"></path><path d="M32 0 M32 0 C67.47 0, 102.94 0, 128 0 M32 0 C61.36 0, 90.73 0, 128 0 M128 0 C149.33 0, 160 10.67, 160 32 M128 0 C149.33 0, 160 10.67, 160 32 M160 32 C160 55.37, 160 78.75, 160 128 M160 32 C160 54.46, 160 76.92, 160 128 M160 128 C160 149.33, 149.33 160, 128 160 M160 128 C160 149.33, 149.33 160, 128 160 M128 160 C89.63 160, 51.26 160, 32 160 M128 160 C98.76 160, 69.51 160, 32 160 M32 160 C10.67 160, 0 149.33, 0 128 M32 160 C10.67 160, 0 149.33, 0 128 M0 128 C0 103.55, 0 79.1, 0 32 M0 128 C0 98.22, 0 68.44, 0 32 M0 32 C0 10.67, 10.67 0, 32 0 M0 32 C0 10.67, 10.67 0, 32 0" stroke="#1e1e1e" stroke-width="4" fill="none"></path></g><g stroke-linecap="round" transform="translate(1530 1130) rotate(0 80 80)"><path d="M32 0 M32 0 C54.61 0, 77.23 0, 128 0 M32 0 C65.41 0, 98.82 0, 128 0 M128 0 C149.33 0, 160 10.67, 160 32 M128 0 C149.33 0, 160 10.67, 160 32 M160 32 C160 65.7, 160 99.39, 160 128 M160 32 C160 54.86, 160 77.72, 160 128 M160 128 C160 149.33, 149.33 160, 128 160 M160 128 C160 149.33, 149.33 160, 128 160 M128 160 C96.33 160, 64.66 160, 32 160 M128 160 C94.53 160, 61.05 160, 32 160 M32 160 C10.67 160, 0 149.33, 0 128 M32 160 C10.67 160, 0 149.33, 0 128 M0 128 C0 99.49, 0 70.97, 0 32 M0 128 C0 96.07, 0 64.13, 0 32 M0 32 C0 10.67, 10.67 0, 32 0 M0 32 C0 10.67, 10.67 0, 32 0" stroke="#1e1e1e" stroke-width="4" fill="none"></path></g><g stroke-linecap="round" transform="translate(1530 1330) rotate(0 80 80)"><path d="M32 0 M32 0 C69.06 0, 106.12 0, 128 0 M32 0 C53.19 0, 74.38 0, 128 0 M128 0 C149.33 0, 160 10.67, 160 32 M128 0 C149.33 0, 160 10.67, 160 32 M160 32 C160 62.73, 160 93.45, 160 128 M160 32 C160 55.92, 160 79.83, 160 128 M160 128 C160 149.33, 149.33 160, 128 160 M160 128 C160 149.33, 149.33 160, 128 160 M128 160 C104.86 160, 81.73 160, 32 160 M128 160 C97.28 160, 66.57 160, 32 160 M32 160 C10.67 160, 0 149.33, 0 128 M32 160 C10.67 160, 0 149.33, 0 128 M0 128 C0 92.53, 0 57.06, 0 32 M0 128 C0 98.64, 0 69.27, 0 32 M0 32 C0 10.67, 10.67 0, 32 0 M0 32 C0 10.67, 10.67 0, 32 0" stroke="#1e1e1e" stroke-width="4" fill="none"></path></g><g stroke-linecap="round" transform="translate(1330 1330) rotate(0 80 80)"><path d="M32 0 L135.5 0.5 L142 2 L147.5 4.5 L152 8 L155.5 12.5 L158 18 L159.5 24.5 L160 32 L160 128 L159.5 135.5 L158 142 L155.5 147.5 L152 152 L147.5 155.5 L142 158 L135.5 159.5 L128 160 L32 160 L24.5 159.5 L18 158 L12.5 155.5 L8 152 L4.5 147.5 L2 142 L0.5 135.5 L0 128 L0.5 24.5 L2 18 L4.5 12.5 L8 8 L12.5 4.5 L18 2 L24.5 0.5 L32 0" stroke="none" stroke-width="0" fill="#ffec99"></path><path d="M32 0 M32 0 C52.57 0, 73.13 0, 128 0 M32 0 C53.93 0, 75.85 0, 128 0 M128 0 C149.33 0, 160 10.67, 160 32 M128 0 C149.33 0, 160 10.67, 160 32 M160 32 C160 61.43, 160 90.86, 160 128 M160 32 C160 51.85, 160 71.7, 160 128 M160 128 C160 149.33, 149.33 160, 128 160 M160 128 C160 149.33, 149.33 160, 128 160 M128 160 C97.1 160, 66.2 160, 32 160 M128 160 C94.88 160, 61.76 160, 32 160 M32 160 C10.67 160, 0 149.33, 0 128 M32 160 C10.67 160, 0 149.33, 0 128 M0 128 C0 94.81, 0 61.63, 0 32 M0 128 C0 107.52, 0 87.03, 0 32 M0 32 C0 10.67, 10.67 0, 32 0 M0 32 C0 10.67, 10.67 0, 32 0" stroke="#1e1e1e" stroke-width="4" fill="none"></path></g><g stroke-linecap="round" transform="translate(1130 1330) rotate(0 80 80)"><path d="M32 0 L135.5 0.5 L142 2 L147.5 4.5 L152 8 L155.5 12.5 L158 18 L159.5 24.5 L160 32 L160 128 L159.5 135.5 L158 142 L155.5 147.5 L152 152 L147.5 155.5 L142 158 L135.5 159.5 L128 160 L32 160 L24.5 159.5 L18 158 L12.5 155.5 L8 152 L4.5 147.5 L2 142 L0.5 135.5 L0 128 L0.5 24.5 L2 18 L4.5 12.5 L8 8 L12.5 4.5 L18 2 L24.5 0.5 L32 0" stroke="none" stroke-width="0" fill="#ffec99"></path><path d="M32 0 M32 0 C63.98 0, 95.97 0, 128 0 M32 0 C57.61 0, 83.22 0, 128 0 M128 0 C149.33 0, 160 10.67, 160 32 M128 0 C149.33 0, 160 10.67, 160 32 M160 32 C160 54.65, 160 77.31, 160 128 M160 32 C160 68.08, 160 104.16, 160 128 M160 128 C160 149.33, 149.33 160, 128 160 M160 128 C160 149.33, 149.33 160, 128 160 M128 160 C90.32 160, 52.65 160, 32 160 M128 160 C99.79 160, 71.59 160, 32 160 M32 160 C10.67 160, 0 149.33, 0 128 M32 160 C10.67 160, 0 149.33, 0 128 M0 128 C0 104.94, 0 81.88, 0 32 M0 128 C0 103.56, 0 79.12, 0 32 M0 32 C0 10.67, 10.67 0, 32 0 M0 32 C0 10.67, 10.67 0, 32 0" stroke="#1e1e1e" stroke-width="4" fill="none"></path></g><g stroke-linecap="round" transform="translate(930 1330) rotate(0 80 80)"><path d="M32 0 L135.5 0.5 L142 2 L147.5 4.5 L152 8 L155.5 12.5 L158 18 L159.5 24.5 L160 32 L160 128 L159.5 135.5 L158 142 L155.5 147.5 L152 152 L147.5 155.5 L142 158 L135.5 159.5 L128 160 L32 160 L24.5 159.5 L18 158 L12.5 155.5 L8 152 L4.5 147.5 L2 142 L0.5 135.5 L0 128 L0.5 24.5 L2 18 L4.5 12.5 L8 8 L12.5 4.5 L18 2 L24.5 0.5 L32 0" stroke="none" stroke-width="0" fill="#ffec99"></path><path d="M32 0 M32 0 C64.27 0, 96.54 0, 128 0 M32 0 C58.14 0, 84.28 0, 128 0 M128 0 C149.33 0, 160 10.67, 160 32 M128 0 C149.33 0, 160 10.67, 160 32 M160 32 C160 66.95, 160 101.9, 160 128 M160 32 C160 67.93, 160 103.85, 160 128 M160 128 C160 149.33, 149.33 160, 128 160 M160 128 C160 149.33, 149.33 160, 128 160 M128 160 C103.25 160, 78.51 160, 32 160 M128 160 C99.23 160, 70.46 160, 32 160 M32 160 C10.67 160, 0 149.33, 0 128 M32 160 C10.67 160, 0 149.33, 0 128 M0 128 C0 95.53, 0 63.05, 0 32 M0 128 C0 97.79, 0 67.59, 0 32 M0 32 C0 10.67, 10.67 0, 32 0 M0 32 C0 10.67, 10.67 0, 32 0" stroke="#1e1e1e" stroke-width="4" fill="none"></path></g><g stroke-linecap="round" transform="translate(930 1530) rotate(0 80 80)"><path d="M32 0 M32 0 C61.39 0, 90.78 0, 128 0 M32 0 C70.24 0, 108.49 0, 128 0 M128 0 C149.33 0, 160 10.67, 160 32 M128 0 C149.33 0, 160 10.67, 160 32 M160 32 C160 63.79, 160 95.59, 160 128 M160 32 C160 51.86, 160 71.71, 160 128 M160 128 C160 149.33, 149.33 160, 128 160 M160 128 C160 149.33, 149.33 160, 128 160 M128 160 C99.08 160, 70.16 160, 32 160 M128 160 C94.4 160, 60.81 160, 32 160 M32 160 C10.67 160, 0 149.33, 0 128 M32 160 C10.67 160, 0 149.33, 0 128 M0 128 C0 96.02, 0 64.03, 0 32 M0 128 C0 102.39, 0 76.78, 0 32 M0 32 C0 10.67, 10.67 0, 32 0 M0 32 C0 10.67, 10.67 0, 32 0" stroke="#1e1e1e" stroke-width="4" fill="none"></path></g><g stroke-linecap="round" transform="translate(1130 1530) rotate(0 80 80)"><path d="M32 0 M32 0 C53.95 0, 75.9 0, 128 0 M32 0 C54.47 0, 76.94 0, 128 0 M128 0 C149.33 0, 160 10.67, 160 32 M128 0 C149.33 0, 160 10.67, 160 32 M160 32 C160 51.72, 160 71.43, 160 128 M160 32 C160 53.37, 160 74.74, 160 128 M160 128 C160 149.33, 149.33 160, 128 160 M160 128 C160 149.33, 149.33 160, 128 160 M128 160 C94.25 160, 60.5 160, 32 160 M128 160 C108.69 160, 89.37 160, 32 160 M32 160 C10.67 160, 0 149.33, 0 128 M32 160 C10.67 160, 0 149.33, 0 128 M0 128 C0 95.73, 0 63.46, 0 32 M0 128 C0 101.86, 0 75.72, 0 32 M0 32 C0 10.67, 10.67 0, 32 0 M0 32 C0 10.67, 10.67 0, 32 0" stroke="#1e1e1e" stroke-width="4" fill="none"></path></g><g stroke-linecap="round" transform="translate(1330 1530) rotate(0 80 80)"><path d="M32 0 M32 0 C59.25 0, 86.49 0, 128 0 M32 0 C66.58 0, 101.15 0, 128 0 M128 0 C149.33 0, 160 10.67, 160 32 M128 0 C149.33 0, 160 10.67, 160 32 M160 32 C160 51.98, 160 71.96, 160 128 M160 32 C160 52.14, 160 72.27, 160 128 M160 128 C160 149.33, 149.33 160, 128 160 M160 128 C160 149.33, 149.33 160, 128 160 M128 160 C108.06 160, 88.11 160, 32 160 M128 160 C102.06 160, 76.12 160, 32 160 M32 160 C10.67 160, 0 149.33, 0 128 M32 160 C10.67 160, 0 149.33, 0 128 M0 128 C0 105.44, 0 82.88, 0 32 M0 128 C0 101.49, 0 74.97, 0 32 M0 32 C0 10.67, 10.67 0, 32 0 M0 32 C0 10.67, 10.67 0, 32 0" stroke="#1e1e1e" stroke-width="4" fill="none"></path></g><g stroke-linecap="round" transform="translate(1530 1530) rotate(0 80 80)"><path d="M32 0 M32 0 C63.42 0, 94.83 0, 128 0 M32 0 C57.35 0, 82.71 0, 128 0 M128 0 C149.33 0, 160 10.67, 160 32 M128 0 C149.33 0, 160 10.67, 160 32 M160 32 C160 62.18, 160 92.36, 160 128 M160 32 C160 58.59, 160 85.19, 160 128 M160 128 C160 149.33, 149.33 160, 128 160 M160 128 C160 149.33, 149.33 160, 128 160 M128 160 C93.65 160, 59.29 160, 32 160 M128 160 C90.25 160, 52.5 160, 32 160 M32 160 C10.67 160, 0 149.33, 0 128 M32 160 C10.67 160, 0 149.33, 0 128 M0 128 C0 106.43, 0 84.87, 0 32 M0 128 C0 94.54, 0 61.08, 0 32 M0 32 C0 10.67, 10.67 0, 32 0 M0 32 C0 10.67, 10.67 0, 32 0" stroke="#1e1e1e" stroke-width="4" fill="none"></path></g></svg>