<?xml version="1.0" standalone="no"?>
<!DOCTYPE svg PUBLIC "-//W3C//DTD SVG 20010904//EN"
  "http://www.w3.org/TR/2001/REC-SVG-20010904/DTD/svg10.dtd">
<svg width="1878" height="630">
<g style="fill:black;fill-opacity:1;stroke:none;stroke-width:1;stroke-opacity:0;fill-rule:nonzero;<defs>
font-family:Cascadia;</defs>
" transform="scale(0.999788,0.998638)">
<g style="stroke-linecap:round;" transform="scale(0.999788,0.998638)">
<g style="" transform="translate(384.648,150)">
<g style="stroke:#343a40;stroke-width:4;fill:none;" transform="translate(384.648,150)">
  <path d="M-0.9 -0.03 C49.04 -0.28, 249.48 -0.88, 299.82 -0.84 M0.82 -1.09 C50.57 -1.27, 248.76 -0.2, 298.78 0.26"/>
</g>
</g>
<g style="" transform="translate(384.648,150)">
<g style="stroke:#343a40;stroke-width:4;fill:none;" transform="translate(384.648,150)">
  <path d="M270.47 10.03 C277.98 9.23, 288.64 3.92, 297.71 -0.95 M271.47 9.59 C278.59 6.95, 287.4 4.96, 299.42 0.49"/>
</g>
</g>
<g style="" transform="translate(384.648,150)">
<g style="stroke:#343a40;stroke-width:4;fill:none;" transform="translate(384.648,150)">
  <path d="M270.61 -10.49 C278.19 -4.82, 288.8 -3.66, 297.71 -0.95 M271.61 -10.93 C278.61 -7.78, 287.38 -3.99, 299.42 0.49"/>
</g>
</g>
</g>
<g style="stroke-linecap:round;" transform="translate(384.648,150)">
<g style="" transform="translate(384.648,150)">
<g style="stroke:#343a40;stroke-width:4;fill:none;" transform="translate(384.648,150)">
  <path d="M0.05 -1.05 C-33.22 -1.12, -166.32 0.5, -199.81 0.68 M-1.38 1.01 C-34.78 1.11, -167.81 -1.14, -200.67 -1.09"/>
</g>
</g>
<g style="" transform="translate(384.648,150)">
<g style="stroke:#343a40;stroke-width:4;fill:none;" transform="translate(384.648,150)">
  <path d="M-174.14 -10.79 C-179.27 -9.73, -188.54 -5.65, -202.07 0.77 M-172.99 -11.28 C-181.75 -8.91, -189.39 -5.64, -200.61 -1.86"/>
</g>
</g>
<g style="" transform="translate(384.648,150)">
<g style="stroke:#343a40;stroke-width:4;fill:none;" transform="translate(384.648,150)">
  <path d="M-174.32 9.73 C-179.58 4.92, -188.8 3.11, -202.07 0.77 M-173.17 9.24 C-181.84 5.1, -189.43 1.86, -200.61 -1.86"/>
</g>
</g>
</g>
<g style="" transform="translate(10,135.508)">
<g style="font-family:Cascadia, Segoe UI Emoji;font-size:20;fill:#1e1e1e;</svg>
