<svg xmlns="http://www.w3.org/2000/svg" xmlns:xlink="http://www.w3.org/1999/xlink" width="614.4" height="460.8" version="1.1" viewBox="0 0 460.8 345.6"><metadata><rdf:RDF xmlns:cc="http://creativecommons.org/ns#" xmlns:dc="http://purl.org/dc/elements/1.1/" xmlns:rdf="http://www.w3.org/1999/02/22-rdf-syntax-ns#"><cc:Work><dc:type rdf:resource="http://purl.org/dc/dcmitype/StillImage"/><dc:date>2023-08-01T09:32:20.296754</dc:date><dc:format>image/svg+xml</dc:format><dc:creator><cc:Agent><dc:title>Matplotlib v3.5.1, https://matplotlib.org/</dc:title></cc:Agent></dc:creator></cc:Work></rdf:RDF></metadata><defs><style type="text/css">*{stroke-linejoin:round;stroke-linecap:butt}</style></defs><g id="figure_1"><g id="patch_1"><path d="M 0 345.6 L 460.8 345.6 L 460.8 0 L 0 0 L 0 345.6 z" style="fill:none"/></g><g id="axes_1"><g id="patch_2"><path d="M 57.6 307.584 L 414.72 307.584 L 414.72 41.472 L 57.6 41.472 L 57.6 307.584 z" style="fill:none"/></g><g id="matplotlib.axis_1"><g id="xtick_1"><g id="line2d_1"><defs><path id="mc26bac2bc0" d="M 0 0 L 0 3.5" style="stroke:#000;stroke-width:.8"/></defs><g><use x="126.138" y="307.584" xlink:href="#mc26bac2bc0" style="stroke:#000;stroke-width:.8"/></g></g><g id="text_1"><g transform="translate(118.186619 322.182437)scale(0.1 -0.1)"><defs><path id="DejaVuSans-30" d="M 2034 4250 Q 1547 4250 1301 3770 Q 1056 3291 1056 2328 Q 1056 1369 1301 889 Q 1547 409 2034 409 Q 2525 409 2770 889 Q 3016 1369 3016 2328 Q 3016 3291 2770 3770 Q 2525 4250 2034 4250 z M 2034 4750 Q 2819 4750 3233 4129 Q 3647 3509 3647 2328 Q 3647 1150 3233 529 Q 2819 -91 2034 -91 Q 1250 -91 836 529 Q 422 1150 422 2328 Q 422 3509 836 4129 Q 1250 4750 2034 4750 z" transform="scale(0.015625)"/><path id="DejaVuSans-2e" d="M 684 794 L 1344 794 L 1344 0 L 684 0 L 684 794 z" transform="scale(0.015625)"/><path id="DejaVuSans-32" d="M 1228 531 L 3431 531 L 3431 0 L 469 0 L 469 531 Q 828 903 1448 1529 Q 2069 2156 2228 2338 Q 2531 2678 2651 2914 Q 2772 3150 2772 3378 Q 2772 3750 2511 3984 Q 2250 4219 1831 4219 Q 1534 4219 1204 4116 Q 875 4013 500 3803 L 500 4441 Q 881 4594 1212 4672 Q 1544 4750 1819 4750 Q 2544 4750 2975 4387 Q 3406 4025 3406 3419 Q 3406 3131 3298 2873 Q 3191 2616 2906 2266 Q 2828 2175 2409 1742 Q 1991 1309 1228 531 z" transform="scale(0.015625)"/></defs><use xlink:href="#DejaVuSans-30"/><use x="63.623" xlink:href="#DejaVuSans-2e"/><use x="95.41" xlink:href="#DejaVuSans-32"/></g></g></g><g id="xtick_2"><g id="line2d_2"><g><use x="198.284" y="307.584" xlink:href="#mc26bac2bc0" style="stroke:#000;stroke-width:.8"/></g></g><g id="text_2"><g transform="translate(190.332074 322.182437)scale(0.1 -0.1)"><defs><path id="DejaVuSans-34" d="M 2419 4116 L 825 1625 L 2419 1625 L 2419 4116 z M 2253 4666 L 3047 4666 L 3047 1625 L 3713 1625 L 3713 1100 L 3047 1100 L 3047 0 L 2419 0 L 2419 1100 L 313 1100 L 313 1709 L 2253 4666 z" transform="scale(0.015625)"/></defs><use xlink:href="#DejaVuSans-30"/><use x="63.623" xlink:href="#DejaVuSans-2e"/><use x="95.41" xlink:href="#DejaVuSans-34"/></g></g></g><g id="xtick_3"><g id="line2d_3"><g><use x="270.429" y="307.584" xlink:href="#mc26bac2bc0" style="stroke:#000;stroke-width:.8"/></g></g><g id="text_3"><g transform="translate(262.477528 322.182437)scale(0.1 -0.1)"><defs><path id="DejaVuSans-36" d="M 2113 2584 Q 1688 2584 1439 2293 Q 1191 2003 1191 1497 Q 1191 994 1439 701 Q 1688 409 2113 409 Q 2538 409 2786 701 Q 3034 994 3034 1497 Q 3034 2003 2786 2293 Q 2538 2584 2113 2584 z M 3366 4563 L 3366 3988 Q 3128 4100 2886 4159 Q 2644 4219 2406 4219 Q 1781 4219 1451 3797 Q 1122 3375 1075 2522 Q 1259 2794 1537 2939 Q 1816 3084 2150 3084 Q 2853 3084 3261 2657 Q 3669 2231 3669 1497 Q 3669 778 3244 343 Q 2819 -91 2113 -91 Q 1303 -91 875 529 Q 447 1150 447 2328 Q 447 3434 972 4092 Q 1497 4750 2381 4750 Q 2619 4750 2861 4703 Q 3103 4656 3366 4563 z" transform="scale(0.015625)"/></defs><use xlink:href="#DejaVuSans-30"/><use x="63.623" xlink:href="#DejaVuSans-2e"/><use x="95.41" xlink:href="#DejaVuSans-36"/></g></g></g><g id="xtick_4"><g id="line2d_4"><g><use x="342.575" y="307.584" xlink:href="#mc26bac2bc0" style="stroke:#000;stroke-width:.8"/></g></g><g id="text_4"><g transform="translate(334.622983 322.182437)scale(0.1 -0.1)"><defs><path id="DejaVuSans-38" d="M 2034 2216 Q 1584 2216 1326 1975 Q 1069 1734 1069 1313 Q 1069 891 1326 650 Q 1584 409 2034 409 Q 2484 409 2743 651 Q 3003 894 3003 1313 Q 3003 1734 2745 1975 Q 2488 2216 2034 2216 z M 1403 2484 Q 997 2584 770 2862 Q 544 3141 544 3541 Q 544 4100 942 4425 Q 1341 4750 2034 4750 Q 2731 4750 3128 4425 Q 3525 4100 3525 3541 Q 3525 3141 3298 2862 Q 3072 2584 2669 2484 Q 3125 2378 3379 2068 Q 3634 1759 3634 1313 Q 3634 634 3220 271 Q 2806 -91 2034 -91 Q 1263 -91 848 271 Q 434 634 434 1313 Q 434 1759 690 2068 Q 947 2378 1403 2484 z M 1172 3481 Q 1172 3119 1398 2916 Q 1625 2713 2034 2713 Q 2441 2713 2670 2916 Q 2900 3119 2900 3481 Q 2900 3844 2670 4047 Q 2441 4250 2034 4250 Q 1625 4250 1398 4047 Q 1172 3844 1172 3481 z" transform="scale(0.015625)"/></defs><use xlink:href="#DejaVuSans-30"/><use x="63.623" xlink:href="#DejaVuSans-2e"/><use x="95.41" xlink:href="#DejaVuSans-38"/></g></g></g><g id="xtick_5"><g id="line2d_5"><g><use x="414.72" y="307.584" xlink:href="#mc26bac2bc0" style="stroke:#000;stroke-width:.8"/></g></g><g id="text_5"><g transform="translate(406.768438 322.182437)scale(0.1 -0.1)"><defs><path id="DejaVuSans-31" d="M 794 531 L 1825 531 L 1825 4091 L 703 3866 L 703 4441 L 1819 4666 L 2450 4666 L 2450 531 L 3481 531 L 3481 0 L 794 0 L 794 531 z" transform="scale(0.015625)"/></defs><use xlink:href="#DejaVuSans-31"/><use x="63.623" xlink:href="#DejaVuSans-2e"/><use x="95.41" xlink:href="#DejaVuSans-30"/></g></g></g><g id="text_6"><g transform="translate(232.419375 335.860562)scale(0.1 -0.1)"><defs><path id="DejaVuSans-4e" d="M 628 4666 L 1478 4666 L 3547 763 L 3547 4666 L 4159 4666 L 4159 0 L 3309 0 L 1241 3903 L 1241 0 L 628 0 L 628 4666 z" transform="scale(0.015625)"/></defs><use xlink:href="#DejaVuSans-4e"/></g></g><g id="text_7"><g transform="translate(395.841875 334.860562)scale(0.1 -0.1)"><defs><path id="DejaVuSans-65" d="M 3597 1894 L 3597 1613 L 953 1613 Q 991 1019 1311 708 Q 1631 397 2203 397 Q 2534 397 2845 478 Q 3156 559 3463 722 L 3463 178 Q 3153 47 2828 -22 Q 2503 -91 2169 -91 Q 1331 -91 842 396 Q 353 884 353 1716 Q 353 2575 817 3079 Q 1281 3584 2069 3584 Q 2775 3584 3186 3129 Q 3597 2675 3597 1894 z M 3022 2063 Q 3016 2534 2758 2815 Q 2500 3097 2075 3097 Q 1594 3097 1305 2825 Q 1016 2553 972 2059 L 3022 2063 z" transform="scale(0.015625)"/><path id="DejaVuSans-39" d="M 703 97 L 703 672 Q 941 559 1184 500 Q 1428 441 1663 441 Q 2288 441 2617 861 Q 2947 1281 2994 2138 Q 2813 1869 2534 1725 Q 2256 1581 1919 1581 Q 1219 1581 811 2004 Q 403 2428 403 3163 Q 403 3881 828 4315 Q 1253 4750 1959 4750 Q 2769 4750 3195 4129 Q 3622 3509 3622 2328 Q 3622 1225 3098 567 Q 2575 -91 1691 -91 Q 1453 -91 1209 -44 Q 966 3 703 97 z M 1959 2075 Q 2384 2075 2632 2365 Q 2881 2656 2881 3163 Q 2881 3666 2632 3958 Q 2384 4250 1959 4250 Q 1534 4250 1286 3958 Q 1038 3666 1038 3163 Q 1038 2656 1286 2365 Q 1534 2075 1959 2075 z" transform="scale(0.015625)"/></defs><use xlink:href="#DejaVuSans-31"/><use x="63.623" xlink:href="#DejaVuSans-65"/><use x="125.146" xlink:href="#DejaVuSans-39"/></g></g></g><g id="matplotlib.axis_2"><g id="ytick_1"><g id="line2d_6"><defs><path id="m5bf7c51f58" d="M 0 0 L -3.5 0" style="stroke:#000;stroke-width:.8"/></defs><g><use x="57.6" y="295.521" xlink:href="#m5bf7c51f58" style="stroke:#000;stroke-width:.8"/></g></g><g id="text_8"><g transform="translate(44.2375 299.320455)scale(0.1 -0.1)"><use xlink:href="#DejaVuSans-30"/></g></g></g><g id="ytick_2"><g id="line2d_7"><g><use x="57.6" y="251.645" xlink:href="#m5bf7c51f58" style="stroke:#000;stroke-width:.8"/></g></g><g id="text_9"><g transform="translate(37.875 255.44438)scale(0.1 -0.1)"><use xlink:href="#DejaVuSans-31"/><use x="63.623" xlink:href="#DejaVuSans-30"/></g></g></g><g id="ytick_3"><g id="line2d_8"><g><use x="57.6" y="207.769" xlink:href="#m5bf7c51f58" style="stroke:#000;stroke-width:.8"/></g></g><g id="text_10"><g transform="translate(37.875 211.568304)scale(0.1 -0.1)"><use xlink:href="#DejaVuSans-32"/><use x="63.623" xlink:href="#DejaVuSans-30"/></g></g></g><g id="ytick_4"><g id="line2d_9"><g><use x="57.6" y="163.893" xlink:href="#m5bf7c51f58" style="stroke:#000;stroke-width:.8"/></g></g><g id="text_11"><g transform="translate(37.875 167.692229)scale(0.1 -0.1)"><defs><path id="DejaVuSans-33" d="M 2597 2516 Q 3050 2419 3304 2112 Q 3559 1806 3559 1356 Q 3559 666 3084 287 Q 2609 -91 1734 -91 Q 1441 -91 1130 -33 Q 819 25 488 141 L 488 750 Q 750 597 1062 519 Q 1375 441 1716 441 Q 2309 441 2620 675 Q 2931 909 2931 1356 Q 2931 1769 2642 2001 Q 2353 2234 1838 2234 L 1294 2234 L 1294 2753 L 1863 2753 Q 2328 2753 2575 2939 Q 2822 3125 2822 3475 Q 2822 3834 2567 4026 Q 2313 4219 1838 4219 Q 1578 4219 1281 4162 Q 984 4106 628 3988 L 628 4550 Q 988 4650 1302 4700 Q 1616 4750 1894 4750 Q 2613 4750 3031 4423 Q 3450 4097 3450 3541 Q 3450 3153 3228 2886 Q 3006 2619 2597 2516 z" transform="scale(0.015625)"/></defs><use xlink:href="#DejaVuSans-33"/><use x="63.623" xlink:href="#DejaVuSans-30"/></g></g></g><g id="ytick_5"><g id="line2d_10"><g><use x="57.6" y="120.017" xlink:href="#m5bf7c51f58" style="stroke:#000;stroke-width:.8"/></g></g><g id="text_12"><g transform="translate(37.875 123.816153)scale(0.1 -0.1)"><use xlink:href="#DejaVuSans-34"/><use x="63.623" xlink:href="#DejaVuSans-30"/></g></g></g><g id="ytick_6"><g id="line2d_11"><g><use x="57.6" y="76.141" xlink:href="#m5bf7c51f58" style="stroke:#000;stroke-width:.8"/></g></g><g id="text_13"><g transform="translate(37.875 79.940078)scale(0.1 -0.1)"><defs><path id="DejaVuSans-35" d="M 691 4666 L 3169 4666 L 3169 4134 L 1269 4134 L 1269 2991 Q 1406 3038 1543 3061 Q 1681 3084 1819 3084 Q 2600 3084 3056 2656 Q 3513 2228 3513 1497 Q 3513 744 3044 326 Q 2575 -91 1722 -91 Q 1428 -91 1123 -41 Q 819 9 494 109 L 494 744 Q 775 591 1075 516 Q 1375 441 1709 441 Q 2250 441 2565 725 Q 2881 1009 2881 1497 Q 2881 1984 2565 2268 Q 2250 2553 1709 2553 Q 1456 2553 1204 2497 Q 953 2441 691 2322 L 691 4666 z" transform="scale(0.015625)"/></defs><use xlink:href="#DejaVuSans-35"/><use x="63.623" xlink:href="#DejaVuSans-30"/></g></g></g><g id="text_14"><g transform="translate(31.795312 194.856906)rotate(-90)scale(0.1 -0.1)"><defs><path id="DejaVuSans-54" d="M -19 4666 L 3928 4666 L 3928 4134 L 2272 4134 L 2272 0 L 1638 0 L 1638 4134 L -19 4134 L -19 4666 z" transform="scale(0.015625)"/><path id="DejaVuSans-69" d="M 603 3500 L 1178 3500 L 1178 0 L 603 0 L 603 3500 z M 603 4863 L 1178 4863 L 1178 4134 L 603 4134 L 603 4863 z" transform="scale(0.015625)"/><path id="DejaVuSans-6d" d="M 3328 2828 Q 3544 3216 3844 3400 Q 4144 3584 4550 3584 Q 5097 3584 5394 3201 Q 5691 2819 5691 2113 L 5691 0 L 5113 0 L 5113 2094 Q 5113 2597 4934 2840 Q 4756 3084 4391 3084 Q 3944 3084 3684 2787 Q 3425 2491 3425 1978 L 3425 0 L 2847 0 L 2847 2094 Q 2847 2600 2669 2842 Q 2491 3084 2119 3084 Q 1678 3084 1418 2786 Q 1159 2488 1159 1978 L 1159 0 L 581 0 L 581 3500 L 1159 3500 L 1159 2956 Q 1356 3278 1631 3431 Q 1906 3584 2284 3584 Q 2666 3584 2933 3390 Q 3200 3197 3328 2828 z" transform="scale(0.015625)"/><path id="DejaVuSans-20" transform="scale(0.015625)"/><path id="DejaVuSans-28" d="M 1984 4856 Q 1566 4138 1362 3434 Q 1159 2731 1159 2009 Q 1159 1288 1364 580 Q 1569 -128 1984 -844 L 1484 -844 Q 1016 -109 783 600 Q 550 1309 550 2009 Q 550 2706 781 3412 Q 1013 4119 1484 4856 L 1984 4856 z" transform="scale(0.015625)"/><path id="DejaVuSans-73" d="M 2834 3397 L 2834 2853 Q 2591 2978 2328 3040 Q 2066 3103 1784 3103 Q 1356 3103 1142 2972 Q 928 2841 928 2578 Q 928 2378 1081 2264 Q 1234 2150 1697 2047 L 1894 2003 Q 2506 1872 2764 1633 Q 3022 1394 3022 966 Q 3022 478 2636 193 Q 2250 -91 1575 -91 Q 1294 -91 989 -36 Q 684 19 347 128 L 347 722 Q 666 556 975 473 Q 1284 391 1588 391 Q 1994 391 2212 530 Q 2431 669 2431 922 Q 2431 1156 2273 1281 Q 2116 1406 1581 1522 L 1381 1569 Q 847 1681 609 1914 Q 372 2147 372 2553 Q 372 3047 722 3315 Q 1072 3584 1716 3584 Q 2034 3584 2315 3537 Q 2597 3491 2834 3397 z" transform="scale(0.015625)"/><path id="DejaVuSans-29" d="M 513 4856 L 1013 4856 Q 1481 4119 1714 3412 Q 1947 2706 1947 2009 Q 1947 1309 1714 600 Q 1481 -109 1013 -844 L 513 -844 Q 928 -128 1133 580 Q 1338 1288 1338 2009 Q 1338 2731 1133 3434 Q 928 4138 513 4856 z" transform="scale(0.015625)"/></defs><use xlink:href="#DejaVuSans-54"/><use x="57.959" xlink:href="#DejaVuSans-69"/><use x="85.742" xlink:href="#DejaVuSans-6d"/><use x="183.154" xlink:href="#DejaVuSans-65"/><use x="244.678" xlink:href="#DejaVuSans-20"/><use x="276.465" xlink:href="#DejaVuSans-28"/><use x="315.479" xlink:href="#DejaVuSans-73"/><use x="367.578" xlink:href="#DejaVuSans-29"/></g></g></g><g id="line2d_12"><path d="M 57.6 295.474604 L 57.955465 295.488 L 58.345957 295.485021 L 58.774929 295.482744 L 59.246173 295.476728 L 59.763854 295.474477 L 60.332547 295.468488 L 60.95728 295.465399 L 61.643575 295.457888 L 62.397499 295.448915 L 63.225715 295.442834 L 64.135543 295.438 L 65.135028 295.427012 L 66.233003 295.422049 L 67.439174 295.412552 L 68.764202 295.398335 L 70.219801 295.388849 L 71.818835 295.378184 L 73.57544 295.362383 L 75.505143 295.344915 L 77.625001 295.332846 L 79.953752 295.315522 L 82.511981 295.288851 L 85.322301 295.269023 L 88.409553 295.245633 L 91.801026 295.210085 L 95.526699 295.181078 L 99.619504 295.13947 L 104.115619 295.127159 L 109.054786 295.057488 L 114.480664 295.041044 L 120.441215 294.989713 L 126.989124 294.910635 L 134.182273 294.829819 L 142.084242 294.809299 L 150.764881 294.752708 L 160.30092 294.646102 L 170.77665 294.605319 L 182.284671 294.503026 L 194.926706 294.342228 L 208.814501 294.292996 L 224.070816 294.167511 L 240.830504 293.995806 L 259.241712 293.882093 L 279.467182 293.617759 L 301.685692 293.508666 L 326.09364 293.269288 L 352.906774 293.099852 L 382.362106 292.808163 L 414.72 292.4646" clip-path="url(#p25241feaf1)" style="fill:none;stroke:#1f77b4;stroke-width:1.5;stroke-linecap:square"/></g><g id="line2d_13"><path d="M 57.6 295.434625 L 57.955465 295.458279 L 58.345957 295.446686 L 58.774929 295.448297 L 59.246173 295.437617 L 59.763854 295.433164 L 60.332547 295.416991 L 60.95728 295.408711 L 61.643575 295.39156 L 62.397499 295.380504 L 63.225715 295.367842 L 64.135543 295.357241 L 65.135028 295.334104 L 66.233003 295.326663 L 67.439174 295.304445 L 68.764202 295.279808 L 70.219801 295.258269 L 71.818835 295.234227 L 73.57544 295.205705 L 75.505143 295.173637 L 77.625001 295.144206 L 79.953752 295.105189 L 82.511981 295.053719 L 85.322301 295.016122 L 88.409553 294.971328 L 91.801026 294.90523 L 95.526699 294.848341 L 99.619504 294.763267 L 104.115619 294.723034 L 109.054786 294.597777 L 114.480664 294.548876 L 120.441215 294.450761 L 126.989124 294.293668 L 134.182273 294.131663 L 142.084242 294.08462 L 150.764881 293.952382 L 160.30092 293.775478 L 170.77665 293.640059 L 182.284671 293.459233 L 194.926706 293.17698 L 208.814501 293.015654 L 224.070816 292.733935 L 240.830504 292.4266 L 259.241712 292.12748 L 279.467182 291.684988 L 301.685692 290.946939 L 326.09364 290.417307 L 352.906774 289.075121 L 382.362106 287.816006 L 414.72 285.977431" clip-path="url(#p25241feaf1)" style="fill:none;stroke:#ff7f0e;stroke-width:1.5;stroke-linecap:square"/></g><g id="line2d_14"><path d="M 57.6 295.388937 L 57.955465 295.423981 L 58.345957 295.401793 L 58.774929 295.403175 L 59.246173 295.393416 L 59.763854 295.384712 L 60.332547 295.347895 L 60.95728 295.33305 L 61.643575 295.30237 L 62.397499 295.278632 L 63.225715 295.262569 L 64.135543 295.242115 L 65.135028 295.210724 L 66.233003 295.188519 L 67.439174 295.154315 L 68.764202 295.117054 L 70.219801 295.079996 L 71.818835 295.031256 L 73.57544 294.992116 L 75.505143 294.922692 L 77.625001 294.886478 L 79.953752 294.795551 L 82.511981 294.729225 L 85.322301 294.662138 L 88.409553 294.583464 L 91.801026 294.483532 L 95.526699 294.369916 L 99.619504 294.239491 L 104.115619 294.163522 L 109.054786 293.969621 L 114.480664 293.84029 L 120.441215 293.69106 L 126.989124 293.454775 L 134.182273 293.172546 L 142.084242 293.054063 L 150.764881 292.812135 L 160.30092 292.520425 L 170.77665 292.288509 L 182.284671 291.945122 L 194.926706 291.479606 L 208.814501 291.142342 L 224.070816 288.716949 L 240.830504 285.882123 L 259.241712 283.333691 L 279.467182 280.96523 L 301.685692 277.972086 L 326.09364 275.601492 L 352.906774 271.260716 L 382.362106 265.963443 L 414.72 262.903064" clip-path="url(#p25241feaf1)" style="fill:none;stroke:#2ca02c;stroke-width:1.5;stroke-linecap:square"/></g><g id="line2d_15"><path d="M 57.6 295.334873 L 57.955465 295.37852 L 58.345957 295.336535 L 58.774929 295.342573 L 59.246173 295.332425 L 59.763854 295.320907 L 60.332547 295.254132 L 60.95728 295.225255 L 61.643575 295.180123 L 62.397499 295.144775 L 63.225715 295.117362 L 64.135543 295.084294 L 65.135028 295.035146 L 66.233003 295.001459 L 67.439174 294.944907 L 68.764202 294.894551 L 70.219801 294.819333 L 71.818835 294.762875 L 73.57544 294.686651 L 75.505143 294.580634 L 77.625001 294.528856 L 79.953752 294.385876 L 82.511981 294.302845 L 85.322301 294.188627 L 88.409553 294.029902 L 91.801026 293.910024 L 95.526699 293.681509 L 99.619504 293.527944 L 104.115619 293.388386 L 109.054786 293.094469 L 114.480664 292.786466 L 120.441215 292.649152 L 126.989124 292.315278 L 134.182273 291.88964 L 142.084242 291.664239 L 150.764881 291.269333 L 160.30092 289.591482 L 170.77665 289.269427 L 182.284671 286.701142 L 194.926706 283.746439 L 208.814501 280.260745 L 224.070816 275.660069 L 240.830504 270.345639 L 259.241712 264.612884 L 279.467182 259.651584 L 301.685692 253.583509 L 326.09364 231.5538 L 352.906774 201.105092 L 382.362106 162.205265 L 414.72 124.223197" clip-path="url(#p25241feaf1)" style="fill:none;stroke:#d62728;stroke-width:1.5;stroke-linecap:square"/></g><g id="line2d_16"><path d="M 57.6 295.324725 L 57.955465 295.369161 L 58.345957 295.320394 L 58.774929 295.331473 L 59.246173 295.320449 L 59.763854 295.306784 L 60.332547 295.230363 L 60.95728 295.199343 L 61.643575 295.150037 L 62.397499 295.113833 L 63.225715 295.084193 L 64.135543 295.048245 L 65.135028 294.994201 L 66.233003 294.957187 L 67.439174 294.897197 L 68.764202 294.842006 L 70.219801 294.758761 L 71.818835 294.698729 L 73.57544 294.615655 L 75.505143 294.502808 L 77.625001 294.444861 L 79.953752 294.292902 L 82.511981 294.196502 L 85.322301 294.078226 L 88.409553 293.902377 L 91.801026 293.770678 L 95.526699 293.514358 L 99.619504 293.345319 L 104.115619 293.20734 L 109.054786 292.885618 L 114.480664 292.560237 L 120.441215 292.347986 L 126.989124 292.035401 L 134.182273 291.58085 L 142.084242 291.329683 L 150.764881 290.924683 L 160.30092 287.028947 L 170.77665 286.208193 L 182.284671 283.220673 L 194.926706 280.127134 L 208.814501 276.618881 L 224.070816 270.109696 L 240.830504 265.173761 L 259.241712 258.7715 L 279.467182 253.167464 L 301.685692 246.04366 L 326.09364 215.206192 L 352.906774 171.432562 L 382.362106 122.038794 L 414.72 53.568" clip-path="url(#p25241feaf1)" style="fill:none;stroke:#9467bd;stroke-width:1.5;stroke-linecap:square"/></g><g id="patch_3"><path d="M 57.6 307.584 L 57.6 41.472" style="fill:none;stroke:#000;stroke-width:.8;stroke-linejoin:miter;stroke-linecap:square"/></g><g id="patch_4"><path d="M 414.72 307.584 L 414.72 41.472" style="fill:none;stroke:#000;stroke-width:.8;stroke-linejoin:miter;stroke-linecap:square"/></g><g id="patch_5"><path d="M 57.6 307.584 L 414.72 307.584" style="fill:none;stroke:#000;stroke-width:.8;stroke-linejoin:miter;stroke-linecap:square"/></g><g id="patch_6"><path d="M 57.6 41.472 L 414.72 41.472" style="fill:none;stroke:#000;stroke-width:.8;stroke-linejoin:miter;stroke-linecap:square"/></g><g id="legend_1"><g id="patch_7"><path d="M 64.6 122.862625 L 213.16875 122.862625 Q 215.16875 122.862625 215.16875 120.862625 L 215.16875 48.472 Q 215.16875 46.472 213.16875 46.472 L 64.6 46.472 Q 62.6 46.472 62.6 48.472 L 62.6 120.862625 Q 62.6 122.862625 64.6 122.862625 z" style="fill:#fff;opacity:.8;stroke:#ccc;stroke-linejoin:miter"/></g><g id="line2d_17"><path d="M 66.6 54.570438 L 76.6 54.570438 L 86.6 54.570438" style="fill:none;stroke:#1f77b4;stroke-width:1.5;stroke-linecap:square"/></g><g id="text_15"><g transform="translate(94.6 58.070438)scale(0.1 -0.1)"><defs><path id="DejaVuSans-41" d="M 2188 4044 L 1331 1722 L 3047 1722 L 2188 4044 z M 1831 4666 L 2547 4666 L 4325 0 L 3669 0 L 3244 1197 L 1141 1197 L 716 0 L 50 0 L 1831 4666 z" transform="scale(0.015625)"/><path id="DejaVuSans-6c" d="M 603 4863 L 1178 4863 L 1178 0 L 603 0 L 603 4863 z" transform="scale(0.015625)"/><path id="DejaVuSans-6f" d="M 1959 3097 Q 1497 3097 1228 2736 Q 959 2375 959 1747 Q 959 1119 1226 758 Q 1494 397 1959 397 Q 2419 397 2687 759 Q 2956 1122 2956 1747 Q 2956 2369 2687 2733 Q 2419 3097 1959 3097 z M 1959 3584 Q 2709 3584 3137 3096 Q 3566 2609 3566 1747 Q 3566 888 3137 398 Q 2709 -91 1959 -91 Q 1206 -91 779 398 Q 353 888 353 1747 Q 353 2609 779 3096 Q 1206 3584 1959 3584 z" transform="scale(0.015625)"/><path id="DejaVuSans-63" d="M 3122 3366 L 3122 2828 Q 2878 2963 2633 3030 Q 2388 3097 2138 3097 Q 1578 3097 1268 2742 Q 959 2388 959 1747 Q 959 1106 1268 751 Q 1578 397 2138 397 Q 2388 397 2633 464 Q 2878 531 3122 666 L 3122 134 Q 2881 22 2623 -34 Q 2366 -91 2075 -91 Q 1284 -91 818 406 Q 353 903 353 1747 Q 353 2603 823 3093 Q 1294 3584 2113 3584 Q 2378 3584 2631 3529 Q 2884 3475 3122 3366 z" transform="scale(0.015625)"/><path id="DejaVuSans-61" d="M 2194 1759 Q 1497 1759 1228 1600 Q 959 1441 959 1056 Q 959 750 1161 570 Q 1363 391 1709 391 Q 2188 391 2477 730 Q 2766 1069 2766 1631 L 2766 1759 L 2194 1759 z M 3341 1997 L 3341 0 L 2766 0 L 2766 531 Q 2569 213 2275 61 Q 1981 -91 1556 -91 Q 1019 -91 701 211 Q 384 513 384 1019 Q 384 1609 779 1909 Q 1175 2209 1959 2209 L 2766 2209 L 2766 2266 Q 2766 2663 2505 2880 Q 2244 3097 1772 3097 Q 1472 3097 1187 3025 Q 903 2953 641 2809 L 641 3341 Q 956 3463 1253 3523 Q 1550 3584 1831 3584 Q 2591 3584 2966 3190 Q 3341 2797 3341 1997 z" transform="scale(0.015625)"/><path id="DejaVuSans-74" d="M 1172 4494 L 1172 3500 L 2356 3500 L 2356 3053 L 1172 3053 L 1172 1153 Q 1172 725 1289 603 Q 1406 481 1766 481 L 2356 481 L 2356 0 L 1766 0 Q 1100 0 847 248 Q 594 497 594 1153 L 594 3053 L 172 3053 L 172 3500 L 594 3500 L 594 4494 L 1172 4494 z" transform="scale(0.015625)"/><path id="DejaVuSans-6e" d="M 3513 2113 L 3513 0 L 2938 0 L 2938 2094 Q 2938 2591 2744 2837 Q 2550 3084 2163 3084 Q 1697 3084 1428 2787 Q 1159 2491 1159 1978 L 1159 0 L 581 0 L 581 3500 L 1159 3500 L 1159 2956 Q 1366 3272 1645 3428 Q 1925 3584 2291 3584 Q 2894 3584 3203 3211 Q 3513 2838 3513 2113 z" transform="scale(0.015625)"/></defs><use xlink:href="#DejaVuSans-41"/><use x="68.408" xlink:href="#DejaVuSans-6c"/><use x="96.191" xlink:href="#DejaVuSans-6c"/><use x="123.975" xlink:href="#DejaVuSans-6f"/><use x="185.156" xlink:href="#DejaVuSans-63"/><use x="240.137" xlink:href="#DejaVuSans-61"/><use x="301.416" xlink:href="#DejaVuSans-74"/><use x="340.625" xlink:href="#DejaVuSans-65"/><use x="402.148" xlink:href="#DejaVuSans-20"/><use x="433.936" xlink:href="#DejaVuSans-6f"/><use x="495.117" xlink:href="#DejaVuSans-6e"/><use x="558.496" xlink:href="#DejaVuSans-65"/><use x="620.02" xlink:href="#DejaVuSans-73"/></g></g><g id="line2d_18"><path d="M 66.6 69.248563 L 76.6 69.248563 L 86.6 69.248563" style="fill:none;stroke:#ff7f0e;stroke-width:1.5;stroke-linecap:square"/></g><g id="text_16"><g transform="translate(94.6 72.748563)scale(0.1 -0.1)"><defs><path id="DejaVuSans-72" d="M 2631 2963 Q 2534 3019 2420 3045 Q 2306 3072 2169 3072 Q 1681 3072 1420 2755 Q 1159 2438 1159 1844 L 1159 0 L 581 0 L 581 3500 L 1159 3500 L 1159 2956 Q 1341 3275 1631 3429 Q 1922 3584 2338 3584 Q 2397 3584 2469 3576 Q 2541 3569 2628 3553 L 2631 2963 z" transform="scale(0.015625)"/><path id="DejaVuSans-67" d="M 2906 1791 Q 2906 2416 2648 2759 Q 2391 3103 1925 3103 Q 1463 3103 1205 2759 Q 947 2416 947 1791 Q 947 1169 1205 825 Q 1463 481 1925 481 Q 2391 481 2648 825 Q 2906 1169 2906 1791 z M 3481 434 Q 3481 -459 3084 -895 Q 2688 -1331 1869 -1331 Q 1566 -1331 1297 -1286 Q 1028 -1241 775 -1147 L 775 -588 Q 1028 -725 1275 -790 Q 1522 -856 1778 -856 Q 2344 -856 2625 -561 Q 2906 -266 2906 331 L 2906 616 Q 2728 306 2450 153 Q 2172 0 1784 0 Q 1141 0 747 490 Q 353 981 353 1791 Q 353 2603 747 3093 Q 1141 3584 1784 3584 Q 2172 3584 2450 3431 Q 2728 3278 2906 2969 L 2906 3500 L 3481 3500 L 3481 434 z" transform="scale(0.015625)"/></defs><use xlink:href="#DejaVuSans-41"/><use x="68.408" xlink:href="#DejaVuSans-6c"/><use x="96.191" xlink:href="#DejaVuSans-6c"/><use x="123.975" xlink:href="#DejaVuSans-6f"/><use x="185.156" xlink:href="#DejaVuSans-63"/><use x="240.137" xlink:href="#DejaVuSans-61"/><use x="301.416" xlink:href="#DejaVuSans-74"/><use x="340.625" xlink:href="#DejaVuSans-65"/><use x="402.148" xlink:href="#DejaVuSans-20"/><use x="433.936" xlink:href="#DejaVuSans-72"/><use x="475.049" xlink:href="#DejaVuSans-61"/><use x="536.328" xlink:href="#DejaVuSans-6e"/><use x="599.707" xlink:href="#DejaVuSans-67"/><use x="663.184" xlink:href="#DejaVuSans-65"/></g></g><g id="line2d_19"><path d="M 66.6 83.926688 L 76.6 83.926688 L 86.6 83.926688" style="fill:none;stroke:#2ca02c;stroke-width:1.5;stroke-linecap:square"/></g><g id="text_17"><g transform="translate(94.6 87.426688)scale(0.1 -0.1)"><defs><path id="DejaVuSans-53" d="M 3425 4513 L 3425 3897 Q 3066 4069 2747 4153 Q 2428 4238 2131 4238 Q 1616 4238 1336 4038 Q 1056 3838 1056 3469 Q 1056 3159 1242 3001 Q 1428 2844 1947 2747 L 2328 2669 Q 3034 2534 3370 2195 Q 3706 1856 3706 1288 Q 3706 609 3251 259 Q 2797 -91 1919 -91 Q 1588 -91 1214 -16 Q 841 59 441 206 L 441 856 Q 825 641 1194 531 Q 1563 422 1919 422 Q 2459 422 2753 634 Q 3047 847 3047 1241 Q 3047 1584 2836 1778 Q 2625 1972 2144 2069 L 1759 2144 Q 1053 2284 737 2584 Q 422 2884 422 3419 Q 422 4038 858 4394 Q 1294 4750 2059 4750 Q 2388 4750 2728 4690 Q 3069 4631 3425 4513 z" transform="scale(0.015625)"/><path id="DejaVuSans-71" d="M 947 1747 Q 947 1113 1208 752 Q 1469 391 1925 391 Q 2381 391 2643 752 Q 2906 1113 2906 1747 Q 2906 2381 2643 2742 Q 2381 3103 1925 3103 Q 1469 3103 1208 2742 Q 947 2381 947 1747 z M 2906 525 Q 2725 213 2448 61 Q 2172 -91 1784 -91 Q 1150 -91 751 415 Q 353 922 353 1747 Q 353 2572 751 3078 Q 1150 3584 1784 3584 Q 2172 3584 2448 3432 Q 2725 3281 2906 2969 L 2906 3500 L 3481 3500 L 3481 -1331 L 2906 -1331 L 2906 525 z" transform="scale(0.015625)"/><path id="DejaVuSans-75" d="M 544 1381 L 544 3500 L 1119 3500 L 1119 1403 Q 1119 906 1312 657 Q 1506 409 1894 409 Q 2359 409 2629 706 Q 2900 1003 2900 1516 L 2900 3500 L 3475 3500 L 3475 0 L 2900 0 L 2900 538 Q 2691 219 2414 64 Q 2138 -91 1772 -91 Q 1169 -91 856 284 Q 544 659 544 1381 z M 1991 3584 L 1991 3584 z" transform="scale(0.015625)"/></defs><use xlink:href="#DejaVuSans-53"/><use x="63.477" xlink:href="#DejaVuSans-71"/><use x="126.953" xlink:href="#DejaVuSans-75"/><use x="190.332" xlink:href="#DejaVuSans-61"/><use x="251.611" xlink:href="#DejaVuSans-72"/><use x="290.475" xlink:href="#DejaVuSans-65"/><use x="351.998" xlink:href="#DejaVuSans-20"/><use x="383.785" xlink:href="#DejaVuSans-72"/><use x="424.898" xlink:href="#DejaVuSans-61"/><use x="486.178" xlink:href="#DejaVuSans-6e"/><use x="549.557" xlink:href="#DejaVuSans-67"/><use x="613.033" xlink:href="#DejaVuSans-65"/></g></g><g id="line2d_20"><path d="M 66.6 98.604813 L 76.6 98.604813 L 86.6 98.604813" style="fill:none;stroke:#d62728;stroke-width:1.5;stroke-linecap:square"/></g><g id="text_18"><g transform="translate(94.6 102.104813)scale(0.1 -0.1)"><defs><path id="DejaVuSans-44" d="M 1259 4147 L 1259 519 L 2022 519 Q 2988 519 3436 956 Q 3884 1394 3884 2338 Q 3884 3275 3436 3711 Q 2988 4147 2022 4147 L 1259 4147 z M 628 4666 L 1925 4666 Q 3281 4666 3915 4102 Q 4550 3538 4550 2338 Q 4550 1131 3912 565 Q 3275 0 1925 0 L 628 0 L 628 4666 z" transform="scale(0.015625)"/><path id="DejaVuSans-76" d="M 191 3500 L 800 3500 L 1894 563 L 2988 3500 L 3597 3500 L 2284 0 L 1503 0 L 191 3500 z" transform="scale(0.015625)"/><path id="DejaVuSans-64" d="M 2906 2969 L 2906 4863 L 3481 4863 L 3481 0 L 2906 0 L 2906 525 Q 2725 213 2448 61 Q 2172 -91 1784 -91 Q 1150 -91 751 415 Q 353 922 353 1747 Q 353 2572 751 3078 Q 1150 3584 1784 3584 Q 2172 3584 2448 3432 Q 2725 3281 2906 2969 z M 947 1747 Q 947 1113 1208 752 Q 1469 391 1925 391 Q 2381 391 2643 752 Q 2906 1113 2906 1747 Q 2906 2381 2643 2742 Q 2381 3103 1925 3103 Q 1469 3103 1208 2742 Q 947 2381 947 1747 z" transform="scale(0.015625)"/><path id="DejaVuSans-62" d="M 3116 1747 Q 3116 2381 2855 2742 Q 2594 3103 2138 3103 Q 1681 3103 1420 2742 Q 1159 2381 1159 1747 Q 1159 1113 1420 752 Q 1681 391 2138 391 Q 2594 391 2855 752 Q 3116 1113 3116 1747 z M 1159 2969 Q 1341 3281 1617 3432 Q 1894 3584 2278 3584 Q 2916 3584 3314 3078 Q 3713 2572 3713 1747 Q 3713 922 3314 415 Q 2916 -91 2278 -91 Q 1894 -91 1617 61 Q 1341 213 1159 525 L 1159 0 L 581 0 L 581 4863 L 1159 4863 L 1159 2969 z" transform="scale(0.015625)"/><path id="DejaVuSans-79" d="M 2059 -325 Q 1816 -950 1584 -1140 Q 1353 -1331 966 -1331 L 506 -1331 L 506 -850 L 844 -850 Q 1081 -850 1212 -737 Q 1344 -625 1503 -206 L 1606 56 L 191 3500 L 800 3500 L 1894 763 L 2988 3500 L 3597 3500 L 2059 -325 z" transform="scale(0.015625)"/></defs><use xlink:href="#DejaVuSans-44"/><use x="77.002" xlink:href="#DejaVuSans-69"/><use x="104.785" xlink:href="#DejaVuSans-76"/><use x="163.965" xlink:href="#DejaVuSans-69"/><use x="191.748" xlink:href="#DejaVuSans-64"/><use x="255.225" xlink:href="#DejaVuSans-65"/><use x="316.748" xlink:href="#DejaVuSans-20"/><use x="348.535" xlink:href="#DejaVuSans-6f"/><use x="409.717" xlink:href="#DejaVuSans-6e"/><use x="473.096" xlink:href="#DejaVuSans-65"/><use x="534.619" xlink:href="#DejaVuSans-73"/><use x="586.719" xlink:href="#DejaVuSans-20"/><use x="618.506" xlink:href="#DejaVuSans-62"/><use x="681.982" xlink:href="#DejaVuSans-79"/><use x="741.162" xlink:href="#DejaVuSans-20"/><use x="772.949" xlink:href="#DejaVuSans-73"/><use x="825.049" xlink:href="#DejaVuSans-71"/><use x="888.525" xlink:href="#DejaVuSans-75"/><use x="951.904" xlink:href="#DejaVuSans-61"/><use x="1013.184" xlink:href="#DejaVuSans-72"/><use x="1052.047" xlink:href="#DejaVuSans-65"/><use x="1113.57" xlink:href="#DejaVuSans-73"/></g></g><g id="line2d_21"><path d="M 66.6 113.282938 L 76.6 113.282938 L 86.6 113.282938" style="fill:none;stroke:#9467bd;stroke-width:1.5;stroke-linecap:square"/></g><g id="text_19"><g transform="translate(94.6 116.782938)scale(0.1 -0.1)"><defs><path id="DejaVuSans-46" d="M 628 4666 L 3309 4666 L 3309 4134 L 1259 4134 L 1259 2759 L 3109 2759 L 3109 2228 L 1259 2228 L 1259 0 L 628 0 L 628 4666 z" transform="scale(0.015625)"/></defs><use xlink:href="#DejaVuSans-46"/><use x="50.27" xlink:href="#DejaVuSans-69"/><use x="78.053" xlink:href="#DejaVuSans-6e"/><use x="141.432" xlink:href="#DejaVuSans-61"/><use x="202.711" xlink:href="#DejaVuSans-6c"/><use x="230.494" xlink:href="#DejaVuSans-20"/><use x="262.281" xlink:href="#DejaVuSans-73"/><use x="314.381" xlink:href="#DejaVuSans-75"/><use x="377.76" xlink:href="#DejaVuSans-6d"/></g></g></g></g></g><defs><clipPath id="p25241feaf1"><rect width="357.12" height="266.112" x="57.6" y="41.472"/></clipPath></defs></svg>