<svg xmlns="http://www.w3.org/2000/svg" xmlns:xlink="http://www.w3.org/1999/xlink" width="614.4" height="460.8" version="1.1" viewBox="0 0 460.8 345.6"><metadata><rdf:RDF xmlns:cc="http://creativecommons.org/ns#" xmlns:dc="http://purl.org/dc/elements/1.1/" xmlns:rdf="http://www.w3.org/1999/02/22-rdf-syntax-ns#"><cc:Work><dc:type rdf:resource="http://purl.org/dc/dcmitype/StillImage"/><dc:date>2023-08-02T09:34:37.790176</dc:date><dc:format>image/svg+xml</dc:format><dc:creator><cc:Agent><dc:title>Matplotlib v3.5.1, https://matplotlib.org/</dc:title></cc:Agent></dc:creator></cc:Work></rdf:RDF></metadata><defs><style type="text/css">*{stroke-linejoin:round;stroke-linecap:butt}</style></defs><g id="figure_1"><g id="patch_1"><path d="M 0 345.6 L 460.8 345.6 L 460.8 0 L 0 0 L 0 345.6 z" style="fill:none"/></g><g id="axes_1"><g id="patch_2"><path d="M 57.6 307.584 L 414.72 307.584 L 414.72 41.472 L 57.6 41.472 L 57.6 307.584 z" style="fill:none"/></g><g id="matplotlib.axis_1"><g id="xtick_1"><g id="line2d_1"><defs><path id="m87f29e3f38" d="M 0 0 L 0 3.5" style="stroke:#fff;stroke-width:.8"/></defs><g><use x="70.553" y="307.584" xlink:href="#m87f29e3f38" style="fill:#fff;stroke:#fff;stroke-width:.8"/></g></g><g id="text_1"><g style="fill:#fff" transform="translate(62.601826 322.182437)scale(0.1 -0.1)"><defs><path id="DejaVuSans-30" d="M 2034 4250 Q 1547 4250 1301 3770 Q 1056 3291 1056 2328 Q 1056 1369 1301 889 Q 1547 409 2034 409 Q 2525 409 2770 889 Q 3016 1369 3016 2328 Q 3016 3291 2770 3770 Q 2525 4250 2034 4250 z M 2034 4750 Q 2819 4750 3233 4129 Q 3647 3509 3647 2328 Q 3647 1150 3233 529 Q 2819 -91 2034 -91 Q 1250 -91 836 529 Q 422 1150 422 2328 Q 422 3509 836 4129 Q 1250 4750 2034 4750 z" transform="scale(0.015625)"/><path id="DejaVuSans-2e" d="M 684 794 L 1344 794 L 1344 0 L 684 0 L 684 794 z" transform="scale(0.015625)"/></defs><use xlink:href="#DejaVuSans-30"/><use x="63.623" xlink:href="#DejaVuSans-2e"/><use x="95.41" xlink:href="#DejaVuSans-30"/></g></g></g><g id="xtick_2"><g id="line2d_2"><g><use x="136.14" y="307.584" xlink:href="#m87f29e3f38" style="fill:#fff;stroke:#fff;stroke-width:.8"/></g></g><g id="text_2"><g style="fill:#fff" transform="translate(128.188603 322.182437)scale(0.1 -0.1)"><defs><path id="DejaVuSans-32" d="M 1228 531 L 3431 531 L 3431 0 L 469 0 L 469 531 Q 828 903 1448 1529 Q 2069 2156 2228 2338 Q 2531 2678 2651 2914 Q 2772 3150 2772 3378 Q 2772 3750 2511 3984 Q 2250 4219 1831 4219 Q 1534 4219 1204 4116 Q 875 4013 500 3803 L 500 4441 Q 881 4594 1212 4672 Q 1544 4750 1819 4750 Q 2544 4750 2975 4387 Q 3406 4025 3406 3419 Q 3406 3131 3298 2873 Q 3191 2616 2906 2266 Q 2828 2175 2409 1742 Q 1991 1309 1228 531 z" transform="scale(0.015625)"/></defs><use xlink:href="#DejaVuSans-30"/><use x="63.623" xlink:href="#DejaVuSans-2e"/><use x="95.41" xlink:href="#DejaVuSans-32"/></g></g></g><g id="xtick_3"><g id="line2d_3"><g><use x="201.727" y="307.584" xlink:href="#m87f29e3f38" style="fill:#fff;stroke:#fff;stroke-width:.8"/></g></g><g id="text_3"><g style="fill:#fff" transform="translate(193.77538 322.182437)scale(0.1 -0.1)"><defs><path id="DejaVuSans-34" d="M 2419 4116 L 825 1625 L 2419 1625 L 2419 4116 z M 2253 4666 L 3047 4666 L 3047 1625 L 3713 1625 L 3713 1100 L 3047 1100 L 3047 0 L 2419 0 L 2419 1100 L 313 1100 L 313 1709 L 2253 4666 z" transform="scale(0.015625)"/></defs><use xlink:href="#DejaVuSans-30"/><use x="63.623" xlink:href="#DejaVuSans-2e"/><use x="95.41" xlink:href="#DejaVuSans-34"/></g></g></g><g id="xtick_4"><g id="line2d_4"><g><use x="267.314" y="307.584" xlink:href="#m87f29e3f38" style="fill:#fff;stroke:#fff;stroke-width:.8"/></g></g><g id="text_4"><g style="fill:#fff" transform="translate(259.362157 322.182437)scale(0.1 -0.1)"><defs><path id="DejaVuSans-36" d="M 2113 2584 Q 1688 2584 1439 2293 Q 1191 2003 1191 1497 Q 1191 994 1439 701 Q 1688 409 2113 409 Q 2538 409 2786 701 Q 3034 994 3034 1497 Q 3034 2003 2786 2293 Q 2538 2584 2113 2584 z M 3366 4563 L 3366 3988 Q 3128 4100 2886 4159 Q 2644 4219 2406 4219 Q 1781 4219 1451 3797 Q 1122 3375 1075 2522 Q 1259 2794 1537 2939 Q 1816 3084 2150 3084 Q 2853 3084 3261 2657 Q 3669 2231 3669 1497 Q 3669 778 3244 343 Q 2819 -91 2113 -91 Q 1303 -91 875 529 Q 447 1150 447 2328 Q 447 3434 972 4092 Q 1497 4750 2381 4750 Q 2619 4750 2861 4703 Q 3103 4656 3366 4563 z" transform="scale(0.015625)"/></defs><use xlink:href="#DejaVuSans-30"/><use x="63.623" xlink:href="#DejaVuSans-2e"/><use x="95.41" xlink:href="#DejaVuSans-36"/></g></g></g><g id="xtick_5"><g id="line2d_5"><g><use x="332.9" y="307.584" xlink:href="#m87f29e3f38" style="fill:#fff;stroke:#fff;stroke-width:.8"/></g></g><g id="text_5"><g style="fill:#fff" transform="translate(324.948933 322.182437)scale(0.1 -0.1)"><defs><path id="DejaVuSans-38" d="M 2034 2216 Q 1584 2216 1326 1975 Q 1069 1734 1069 1313 Q 1069 891 1326 650 Q 1584 409 2034 409 Q 2484 409 2743 651 Q 3003 894 3003 1313 Q 3003 1734 2745 1975 Q 2488 2216 2034 2216 z M 1403 2484 Q 997 2584 770 2862 Q 544 3141 544 3541 Q 544 4100 942 4425 Q 1341 4750 2034 4750 Q 2731 4750 3128 4425 Q 3525 4100 3525 3541 Q 3525 3141 3298 2862 Q 3072 2584 2669 2484 Q 3125 2378 3379 2068 Q 3634 1759 3634 1313 Q 3634 634 3220 271 Q 2806 -91 2034 -91 Q 1263 -91 848 271 Q 434 634 434 1313 Q 434 1759 690 2068 Q 947 2378 1403 2484 z M 1172 3481 Q 1172 3119 1398 2916 Q 1625 2713 2034 2713 Q 2441 2713 2670 2916 Q 2900 3119 2900 3481 Q 2900 3844 2670 4047 Q 2441 4250 2034 4250 Q 1625 4250 1398 4047 Q 1172 3844 1172 3481 z" transform="scale(0.015625)"/></defs><use xlink:href="#DejaVuSans-30"/><use x="63.623" xlink:href="#DejaVuSans-2e"/><use x="95.41" xlink:href="#DejaVuSans-38"/></g></g></g><g id="xtick_6"><g id="line2d_6"><g><use x="398.487" y="307.584" xlink:href="#m87f29e3f38" style="fill:#fff;stroke:#fff;stroke-width:.8"/></g></g><g id="text_6"><g style="fill:#fff" transform="translate(390.53571 322.182437)scale(0.1 -0.1)"><defs><path id="DejaVuSans-31" d="M 794 531 L 1825 531 L 1825 4091 L 703 3866 L 703 4441 L 1819 4666 L 2450 4666 L 2450 531 L 3481 531 L 3481 0 L 794 0 L 794 531 z" transform="scale(0.015625)"/></defs><use xlink:href="#DejaVuSans-31"/><use x="63.623" xlink:href="#DejaVuSans-2e"/><use x="95.41" xlink:href="#DejaVuSans-30"/></g></g></g><g id="text_7"><g style="fill:#fff" transform="translate(232.419375 335.860562)scale(0.1 -0.1)"><defs><path id="DejaVuSans-4e" d="M 628 4666 L 1478 4666 L 3547 763 L 3547 4666 L 4159 4666 L 4159 0 L 3309 0 L 1241 3903 L 1241 0 L 628 0 L 628 4666 z" transform="scale(0.015625)"/></defs><use xlink:href="#DejaVuSans-4e"/></g></g><g id="text_8"><g style="fill:#fff" transform="translate(395.841875 334.860562)scale(0.1 -0.1)"><defs><path id="DejaVuSans-65" d="M 3597 1894 L 3597 1613 L 953 1613 Q 991 1019 1311 708 Q 1631 397 2203 397 Q 2534 397 2845 478 Q 3156 559 3463 722 L 3463 178 Q 3153 47 2828 -22 Q 2503 -91 2169 -91 Q 1331 -91 842 396 Q 353 884 353 1716 Q 353 2575 817 3079 Q 1281 3584 2069 3584 Q 2775 3584 3186 3129 Q 3597 2675 3597 1894 z M 3022 2063 Q 3016 2534 2758 2815 Q 2500 3097 2075 3097 Q 1594 3097 1305 2825 Q 1016 2553 972 2059 L 3022 2063 z" transform="scale(0.015625)"/><path id="DejaVuSans-39" d="M 703 97 L 703 672 Q 941 559 1184 500 Q 1428 441 1663 441 Q 2288 441 2617 861 Q 2947 1281 2994 2138 Q 2813 1869 2534 1725 Q 2256 1581 1919 1581 Q 1219 1581 811 2004 Q 403 2428 403 3163 Q 403 3881 828 4315 Q 1253 4750 1959 4750 Q 2769 4750 3195 4129 Q 3622 3509 3622 2328 Q 3622 1225 3098 567 Q 2575 -91 1691 -91 Q 1453 -91 1209 -44 Q 966 3 703 97 z M 1959 2075 Q 2384 2075 2632 2365 Q 2881 2656 2881 3163 Q 2881 3666 2632 3958 Q 2384 4250 1959 4250 Q 1534 4250 1286 3958 Q 1038 3666 1038 3163 Q 1038 2656 1286 2365 Q 1534 2075 1959 2075 z" transform="scale(0.015625)"/></defs><use xlink:href="#DejaVuSans-31"/><use x="63.623" xlink:href="#DejaVuSans-65"/><use x="125.146" xlink:href="#DejaVuSans-39"/></g></g></g><g id="matplotlib.axis_2"><g id="ytick_1"><g id="line2d_7"><defs><path id="m6888bde2b6" d="M 0 0 L -3.5 0" style="stroke:#fff;stroke-width:.8"/></defs><g><use x="57.6" y="295.494" xlink:href="#m6888bde2b6" style="fill:#fff;stroke:#fff;stroke-width:.8"/></g></g><g id="text_9"><g style="fill:#fff" transform="translate(34.696875 299.293237)scale(0.1 -0.1)"><use xlink:href="#DejaVuSans-30"/><use x="63.623" xlink:href="#DejaVuSans-2e"/><use x="95.41" xlink:href="#DejaVuSans-30"/></g></g></g><g id="ytick_2"><g id="line2d_8"><g><use x="57.6" y="248.211" xlink:href="#m6888bde2b6" style="fill:#fff;stroke:#fff;stroke-width:.8"/></g></g><g id="text_10"><g style="fill:#fff" transform="translate(34.696875 252.010662)scale(0.1 -0.1)"><use xlink:href="#DejaVuSans-30"/><use x="63.623" xlink:href="#DejaVuSans-2e"/><use x="95.41" xlink:href="#DejaVuSans-32"/></g></g></g><g id="ytick_3"><g id="line2d_9"><g><use x="57.6" y="200.929" xlink:href="#m6888bde2b6" style="fill:#fff;stroke:#fff;stroke-width:.8"/></g></g><g id="text_11"><g style="fill:#fff" transform="translate(34.696875 204.728087)scale(0.1 -0.1)"><use xlink:href="#DejaVuSans-30"/><use x="63.623" xlink:href="#DejaVuSans-2e"/><use x="95.41" xlink:href="#DejaVuSans-34"/></g></g></g><g id="ytick_4"><g id="line2d_10"><g><use x="57.6" y="153.646" xlink:href="#m6888bde2b6" style="fill:#fff;stroke:#fff;stroke-width:.8"/></g></g><g id="text_12"><g style="fill:#fff" transform="translate(34.696875 157.445511)scale(0.1 -0.1)"><use xlink:href="#DejaVuSans-30"/><use x="63.623" xlink:href="#DejaVuSans-2e"/><use x="95.41" xlink:href="#DejaVuSans-36"/></g></g></g><g id="ytick_5"><g id="line2d_11"><g><use x="57.6" y="106.364" xlink:href="#m6888bde2b6" style="fill:#fff;stroke:#fff;stroke-width:.8"/></g></g><g id="text_13"><g style="fill:#fff" transform="translate(34.696875 110.162936)scale(0.1 -0.1)"><use xlink:href="#DejaVuSans-30"/><use x="63.623" xlink:href="#DejaVuSans-2e"/><use x="95.41" xlink:href="#DejaVuSans-38"/></g></g></g><g id="ytick_6"><g id="line2d_12"><g><use x="57.6" y="59.081" xlink:href="#m6888bde2b6" style="fill:#fff;stroke:#fff;stroke-width:.8"/></g></g><g id="text_14"><g style="fill:#fff" transform="translate(34.696875 62.880361)scale(0.1 -0.1)"><use xlink:href="#DejaVuSans-31"/><use x="63.623" xlink:href="#DejaVuSans-2e"/><use x="95.41" xlink:href="#DejaVuSans-30"/></g></g></g><g id="text_15"><g style="fill:#fff" transform="translate(28.617187 194.856906)rotate(-90)scale(0.1 -0.1)"><defs><path id="DejaVuSans-54" d="M -19 4666 L 3928 4666 L 3928 4134 L 2272 4134 L 2272 0 L 1638 0 L 1638 4134 L -19 4134 L -19 4666 z" transform="scale(0.015625)"/><path id="DejaVuSans-69" d="M 603 3500 L 1178 3500 L 1178 0 L 603 0 L 603 3500 z M 603 4863 L 1178 4863 L 1178 4134 L 603 4134 L 603 4863 z" transform="scale(0.015625)"/><path id="DejaVuSans-6d" d="M 3328 2828 Q 3544 3216 3844 3400 Q 4144 3584 4550 3584 Q 5097 3584 5394 3201 Q 5691 2819 5691 2113 L 5691 0 L 5113 0 L 5113 2094 Q 5113 2597 4934 2840 Q 4756 3084 4391 3084 Q 3944 3084 3684 2787 Q 3425 2491 3425 1978 L 3425 0 L 2847 0 L 2847 2094 Q 2847 2600 2669 2842 Q 2491 3084 2119 3084 Q 1678 3084 1418 2786 Q 1159 2488 1159 1978 L 1159 0 L 581 0 L 581 3500 L 1159 3500 L 1159 2956 Q 1356 3278 1631 3431 Q 1906 3584 2284 3584 Q 2666 3584 2933 3390 Q 3200 3197 3328 2828 z" transform="scale(0.015625)"/><path id="DejaVuSans-20" transform="scale(0.015625)"/><path id="DejaVuSans-28" d="M 1984 4856 Q 1566 4138 1362 3434 Q 1159 2731 1159 2009 Q 1159 1288 1364 580 Q 1569 -128 1984 -844 L 1484 -844 Q 1016 -109 783 600 Q 550 1309 550 2009 Q 550 2706 781 3412 Q 1013 4119 1484 4856 L 1984 4856 z" transform="scale(0.015625)"/><path id="DejaVuSans-73" d="M 2834 3397 L 2834 2853 Q 2591 2978 2328 3040 Q 2066 3103 1784 3103 Q 1356 3103 1142 2972 Q 928 2841 928 2578 Q 928 2378 1081 2264 Q 1234 2150 1697 2047 L 1894 2003 Q 2506 1872 2764 1633 Q 3022 1394 3022 966 Q 3022 478 2636 193 Q 2250 -91 1575 -91 Q 1294 -91 989 -36 Q 684 19 347 128 L 347 722 Q 666 556 975 473 Q 1284 391 1588 391 Q 1994 391 2212 530 Q 2431 669 2431 922 Q 2431 1156 2273 1281 Q 2116 1406 1581 1522 L 1381 1569 Q 847 1681 609 1914 Q 372 2147 372 2553 Q 372 3047 722 3315 Q 1072 3584 1716 3584 Q 2034 3584 2315 3537 Q 2597 3491 2834 3397 z" transform="scale(0.015625)"/><path id="DejaVuSans-29" d="M 513 4856 L 1013 4856 Q 1481 4119 1714 3412 Q 1947 2706 1947 2009 Q 1947 1309 1714 600 Q 1481 -109 1013 -844 L 513 -844 Q 928 -128 1133 580 Q 1338 1288 1338 2009 Q 1338 2731 1133 3434 Q 928 4138 513 4856 z" transform="scale(0.015625)"/></defs><use xlink:href="#DejaVuSans-54"/><use x="57.959" xlink:href="#DejaVuSans-69"/><use x="85.742" xlink:href="#DejaVuSans-6d"/><use x="183.154" xlink:href="#DejaVuSans-65"/><use x="244.678" xlink:href="#DejaVuSans-20"/><use x="276.465" xlink:href="#DejaVuSans-28"/><use x="315.479" xlink:href="#DejaVuSans-73"/><use x="367.578" xlink:href="#DejaVuSans-29"/></g></g></g><g id="line2d_13"><path d="M 73.832727 295.488 L 74.155877 295.487492 L 74.51087 295.48747 L 74.900845 295.487081 L 75.329248 295.486083 L 75.799867 295.485456 L 76.316861 295.484835 L 76.8848 295.484012 L 77.508705 295.483297 L 78.19409 295.481723 L 78.947013 295.479666 L 79.77413 295.478925 L 80.682753 295.477295 L 81.680912 295.475574 L 82.777431 295.47409 L 83.982002 295.472385 L 85.305273 295.469956 L 86.758941 295.468835 L 88.355855 295.466599 L 90.11013 295.464008 L 92.037273 295.460609 L 94.15432 295.455855 L 96.479983 295.451997 L 99.034819 295.448021 L 101.841412 295.443176 L 104.924569 295.438296 L 108.311545 295.432849 L 112.032277 295.421898 L 116.119654 295.420987 L 120.609805 295.413728 L 125.542422 295.405806 L 130.961104 295.394125 L 136.91375 295.391551 L 143.452975 295.378781 L 150.636584 295.371059 L 158.528074 295.359219 L 167.1972 295.346189 L 176.720591 295.328625 L 187.182428 295.306842 L 198.675187 295.294263 L 211.300456 295.26968 L 225.169832 295.244127 L 240.405913 295.220551 L 257.143375 295.187412 L 275.530165 295.168491 L 295.728811 295.133815 L 317.917855 295.112961 L 342.293431 295.054442 L 369.071005 294.990474 L 398.487273 294.954059" clip-path="url(#p34ed0ec8a4)" style="fill:none;stroke:#1f77b4;stroke-width:1.5;stroke-linecap:square"/></g><g id="line2d_14"><path d="M 73.832727 295.111365 L 74.155877 295.083757 L 74.51087 295.042558 L 74.900845 295.00555 L 75.329248 294.948288 L 75.799867 294.89445 L 76.316861 294.843503 L 76.8848 294.784538 L 77.508705 294.715398 L 78.19409 294.638308 L 78.947013 294.530165 L 79.77413 294.442534 L 80.682753 294.326022 L 81.680912 294.225273 L 82.777431 294.12403 L 83.982002 293.989823 L 85.305273 293.841503 L 86.758941 293.683301 L 88.355855 293.495316 L 90.11013 293.309184 L 92.037273 293.069123 L 94.15432 292.846333 L 96.479983 292.588311 L 99.034819 292.302743 L 101.841412 291.985295 L 104.924569 291.647528 L 108.311545 291.265728 L 112.032277 290.781276 L 116.119654 290.404465 L 120.609805 289.887805 L 125.542422 289.340035 L 130.961104 288.73635 L 136.91375 288.088692 L 143.452975 287.262172 L 150.636584 286.515674 L 158.528074 285.65189 L 167.1972 284.691522 L 176.720591 283.514474 L 187.182428 282.466022 L 198.675187 281.194367 L 211.300456 279.685026 L 225.169832 278.193879 L 240.405913 276.402564 L 257.143375 274.590223 L 275.530165 272.473993 L 295.728811 270.142157 L 317.917855 267.809887 L 342.293431 264.611559 L 369.071005 261.163627 L 398.487273 258.002915" clip-path="url(#p34ed0ec8a4)" style="fill:none;stroke:#ff7f0e;stroke-width:1.5;stroke-linecap:square"/></g><g id="line2d_15"><path d="M 73.832727 294.213479 L 74.155877 294.093154 L 74.51087 293.952173 L 74.900845 293.817221 L 75.329248 293.636706 L 75.799867 293.432433 L 76.316861 293.271022 L 76.8848 293.068517 L 77.508705 292.831068 L 78.19409 292.576021 L 78.947013 292.208665 L 79.77413 291.941604 L 80.682753 291.535699 L 81.680912 291.193653 L 82.777431 290.845307 L 83.982002 290.395251 L 85.305273 289.892614 L 86.758941 289.34098 L 88.355855 288.727988 L 90.11013 288.071677 L 92.037273 287.256162 L 94.15432 286.477288 L 96.479983 285.624425 L 99.034819 284.667679 L 101.841412 283.592971 L 104.924569 282.433085 L 108.311545 281.13507 L 112.032277 279.492822 L 116.119654 278.222115 L 120.609805 276.465114 L 125.542422 274.636389 L 130.961104 272.578756 L 136.91375 270.317226 L 143.452975 267.452205 L 150.636584 265.052745 L 158.528074 262.13141 L 167.1972 258.829906 L 176.720591 254.849536 L 187.182428 251.080939 L 198.675187 246.702261 L 211.300456 241.508002 L 225.169832 236.473482 L 240.405913 230.604866 L 257.143375 224.497032 L 275.530165 217.403897 L 295.728811 209.153269 L 317.917855 201.630391 L 342.293431 190.608794 L 369.071005 178.627528 L 398.487273 168.309975" clip-path="url(#p34ed0ec8a4)" style="fill:none;stroke:#2ca02c;stroke-width:1.5;stroke-linecap:square"/></g><g id="line2d_16"><path d="M 73.832727 293.742915 L 74.155877 293.5918 L 74.51087 293.394925 L 74.900845 293.218344 L 75.329248 292.970895 L 75.799867 292.693297 L 76.316861 292.479439 L 76.8848 292.19057 L 77.508705 291.869885 L 78.19409 291.517483 L 78.947013 291.040737 L 79.77413 290.671714 L 80.682753 290.112729 L 81.680912 289.654916 L 82.777431 289.177861 L 83.982002 288.572167 L 85.305273 287.892628 L 86.758941 287.133943 L 88.355855 286.311167 L 90.11013 285.413743 L 92.037273 284.305466 L 94.15432 283.238505 L 96.479983 282.08424 L 99.034819 280.776307 L 101.841412 279.319349 L 104.924569 277.738846 L 108.311545 275.984956 L 112.032277 273.733319 L 116.119654 271.997539 L 120.609805 269.601226 L 125.542422 267.126546 L 130.961104 264.345078 L 136.91375 261.290911 L 143.452975 257.475438 L 150.636584 254.104427 L 158.528074 250.11898 L 167.1972 245.604356 L 176.720591 240.247282 L 187.182428 235.261496 L 198.675187 229.259925 L 211.300456 222.204128 L 225.169832 215.400916 L 240.405913 207.316395 L 257.143375 199.014847 L 275.530165 189.403853 L 295.728811 178.237835 L 317.917855 167.957336 L 342.293431 152.845048 L 369.071005 136.830492 L 398.487273 122.73522" clip-path="url(#p34ed0ec8a4)" style="fill:none;stroke:#d62728;stroke-width:1.5;stroke-linecap:square"/></g><g id="line2d_17"><path d="M 73.832727 293.040305 L 74.155877 292.826895 L 74.51087 292.563561 L 74.900845 292.317499 L 75.329248 291.965951 L 75.799867 291.591693 L 76.316861 291.275909 L 76.8848 290.874696 L 77.508705 290.429153 L 78.19409 289.933111 L 78.947013 289.272211 L 79.77413 288.743786 L 80.682753 287.954051 L 81.680912 287.306053 L 82.777431 286.636557 L 83.982002 285.788146 L 85.305273 284.824268 L 86.758941 283.782072 L 88.355855 282.615568 L 90.11013 281.364293 L 92.037273 279.802609 L 94.15432 278.346295 L 96.479983 276.755165 L 99.034819 274.925444 L 101.841412 272.898605 L 104.924569 270.655409 L 108.311545 268.216322 L 112.032277 264.964517 L 116.119654 262.554478 L 120.609805 259.225228 L 125.542422 255.74962 L 130.961104 251.876998 L 136.91375 247.675388 L 143.452975 242.252392 L 150.636584 237.467626 L 158.528074 231.846563 L 167.1972 225.564206 L 176.720591 218.041652 L 187.182428 211.173347 L 198.675187 202.919357 L 211.300456 193.094504 L 225.169832 183.626004 L 240.405913 172.258704 L 257.143375 160.641107 L 275.530165 147.141072 L 295.728811 131.327262 L 317.917855 116.648429 L 342.293431 95.532617 L 369.071005 73.088965 L 398.487273 53.568" clip-path="url(#p34ed0ec8a4)" style="fill:none;stroke:#9467bd;stroke-width:1.5;stroke-linecap:square"/></g><g id="patch_3"><path d="M 57.6 307.584 L 57.6 41.472" style="fill:none;stroke:#fff;stroke-width:.8;stroke-linejoin:miter;stroke-linecap:square"/></g><g id="patch_4"><path d="M 414.72 307.584 L 414.72 41.472" style="fill:none"/></g><g id="patch_5"><path d="M 57.6 307.584 L 414.72 307.584" style="fill:none;stroke:#fff;stroke-width:.8;stroke-linejoin:miter;stroke-linecap:square"/></g><g id="patch_6"><path d="M 57.6 41.472 L 414.72 41.472" style="fill:none"/></g><g id="text_16"><g style="fill:#fff" transform="translate(83.427188 35.472)scale(0.12 -0.12)"><defs><path id="DejaVuSans-43" d="M 4122 4306 L 4122 3641 Q 3803 3938 3442 4084 Q 3081 4231 2675 4231 Q 1875 4231 1450 3742 Q 1025 3253 1025 2328 Q 1025 1406 1450 917 Q 1875 428 2675 428 Q 3081 428 3442 575 Q 3803 722 4122 1019 L 4122 359 Q 3791 134 3420 21 Q 3050 -91 2638 -91 Q 1578 -91 968 557 Q 359 1206 359 2328 Q 359 3453 968 4101 Q 1578 4750 2638 4750 Q 3056 4750 3426 4639 Q 3797 4528 4122 4306 z" transform="scale(0.015625)"/><path id="DejaVuSans-75" d="M 544 1381 L 544 3500 L 1119 3500 L 1119 1403 Q 1119 906 1312 657 Q 1506 409 1894 409 Q 2359 409 2629 706 Q 2900 1003 2900 1516 L 2900 3500 L 3475 3500 L 3475 0 L 2900 0 L 2900 538 Q 2691 219 2414 64 Q 2138 -91 1772 -91 Q 1169 -91 856 284 Q 544 659 544 1381 z M 1991 3584 L 1991 3584 z" transform="scale(0.015625)"/><path id="DejaVuSans-6c" d="M 603 4863 L 1178 4863 L 1178 0 L 603 0 L 603 4863 z" transform="scale(0.015625)"/><path id="DejaVuSans-61" d="M 2194 1759 Q 1497 1759 1228 1600 Q 959 1441 959 1056 Q 959 750 1161 570 Q 1363 391 1709 391 Q 2188 391 2477 730 Q 2766 1069 2766 1631 L 2766 1759 L 2194 1759 z M 3341 1997 L 3341 0 L 2766 0 L 2766 531 Q 2569 213 2275 61 Q 1981 -91 1556 -91 Q 1019 -91 701 211 Q 384 513 384 1019 Q 384 1609 779 1909 Q 1175 2209 1959 2209 L 2766 2209 L 2766 2266 Q 2766 2663 2505 2880 Q 2244 3097 1772 3097 Q 1472 3097 1187 3025 Q 903 2953 641 2809 L 641 3341 Q 956 3463 1253 3523 Q 1550 3584 1831 3584 Q 2591 3584 2966 3190 Q 3341 2797 3341 1997 z" transform="scale(0.015625)"/><path id="DejaVuSans-74" d="M 1172 4494 L 1172 3500 L 2356 3500 L 2356 3053 L 1172 3053 L 1172 1153 Q 1172 725 1289 603 Q 1406 481 1766 481 L 2356 481 L 2356 0 L 1766 0 Q 1100 0 847 248 Q 594 497 594 1153 L 594 3053 L 172 3053 L 172 3500 L 594 3500 L 594 4494 L 1172 4494 z" transform="scale(0.015625)"/><path id="DejaVuSans-76" d="M 191 3500 L 800 3500 L 1894 563 L 2988 3500 L 3597 3500 L 2284 0 L 1503 0 L 191 3500 z" transform="scale(0.015625)"/><path id="DejaVuSans-70" d="M 1159 525 L 1159 -1331 L 581 -1331 L 581 3500 L 1159 3500 L 1159 2969 Q 1341 3281 1617 3432 Q 1894 3584 2278 3584 Q 2916 3584 3314 3078 Q 3713 2572 3713 1747 Q 3713 922 3314 415 Q 2916 -91 2278 -91 Q 1894 -91 1617 61 Q 1341 213 1159 525 z M 3116 1747 Q 3116 2381 2855 2742 Q 2594 3103 2138 3103 Q 1681 3103 1420 2742 Q 1159 2381 1159 1747 Q 1159 1113 1420 752 Q 1681 391 2138 391 Q 2594 391 2855 752 Q 3116 1113 3116 1747 z" transform="scale(0.015625)"/><path id="DejaVuSans-72" d="M 2631 2963 Q 2534 3019 2420 3045 Q 2306 3072 2169 3072 Q 1681 3072 1420 2755 Q 1159 2438 1159 1844 L 1159 0 L 581 0 L 581 3500 L 1159 3500 L 1159 2956 Q 1341 3275 1631 3429 Q 1922 3584 2338 3584 Q 2397 3584 2469 3576 Q 2541 3569 2628 3553 L 2631 2963 z" transform="scale(0.015625)"/><path id="DejaVuSans-66" d="M 2375 4863 L 2375 4384 L 1825 4384 Q 1516 4384 1395 4259 Q 1275 4134 1275 3809 L 1275 3500 L 2222 3500 L 2222 3053 L 1275 3053 L 1275 0 L 697 0 L 697 3053 L 147 3053 L 147 3500 L 697 3500 L 697 3744 Q 697 4328 969 4595 Q 1241 4863 1831 4863 L 2375 4863 z" transform="scale(0.015625)"/><path id="DejaVuSans-6f" d="M 1959 3097 Q 1497 3097 1228 2736 Q 959 2375 959 1747 Q 959 1119 1226 758 Q 1494 397 1959 397 Q 2419 397 2687 759 Q 2956 1122 2956 1747 Q 2956 2369 2687 2733 Q 2419 3097 1959 3097 z M 1959 3584 Q 2709 3584 3137 3096 Q 3566 2609 3566 1747 Q 3566 888 3137 398 Q 2709 -91 1959 -91 Q 1206 -91 779 398 Q 353 888 353 1747 Q 353 2609 779 3096 Q 1206 3584 1959 3584 z" transform="scale(0.015625)"/><path id="DejaVuSans-6e" d="M 3513 2113 L 3513 0 L 2938 0 L 2938 2094 Q 2938 2591 2744 2837 Q 2550 3084 2163 3084 Q 1697 3084 1428 2787 Q 1159 2491 1159 1978 L 1159 0 L 581 0 L 581 3500 L 1159 3500 L 1159 2956 Q 1366 3272 1645 3428 Q 1925 3584 2291 3584 Q 2894 3584 3203 3211 Q 3513 2838 3513 2113 z" transform="scale(0.015625)"/><path id="DejaVuSans-63" d="M 3122 3366 L 3122 2828 Q 2878 2963 2633 3030 Q 2388 3097 2138 3097 Q 1578 3097 1268 2742 Q 959 2388 959 1747 Q 959 1106 1268 751 Q 1578 397 2138 397 Q 2388 397 2633 464 Q 2878 531 3122 666 L 3122 134 Q 2881 22 2623 -34 Q 2366 -91 2075 -91 Q 1284 -91 818 406 Q 353 903 353 1747 Q 353 2603 823 3093 Q 1294 3584 2113 3584 Q 2378 3584 2631 3529 Q 2884 3475 3122 3366 z" transform="scale(0.015625)"/><path id="DejaVuSans-77" d="M 269 3500 L 844 3500 L 1563 769 L 2278 3500 L 2956 3500 L 3675 769 L 4391 3500 L 4966 3500 L 4050 0 L 3372 0 L 2619 2869 L 1863 0 L 1184 0 L 269 3500 z" transform="scale(0.015625)"/><path id="DejaVuSans-68" d="M 3513 2113 L 3513 0 L 2938 0 L 2938 2094 Q 2938 2591 2744 2837 Q 2550 3084 2163 3084 Q 1697 3084 1428 2787 Q 1159 2491 1159 1978 L 1159 0 L 581 0 L 581 4863 L 1159 4863 L 1159 2956 Q 1366 3272 1645 3428 Q 1925 3584 2291 3584 Q 2894 3584 3203 3211 Q 3513 2838 3513 2113 z" transform="scale(0.015625)"/><path id="DejaVuSans-6b" d="M 581 4863 L 1159 4863 L 1159 1991 L 2875 3500 L 3609 3500 L 1753 1863 L 3688 0 L 2938 0 L 1159 1709 L 1159 0 L 581 0 L 581 4863 z" transform="scale(0.015625)"/><path id="DejaVuSans-5f" d="M 3263 -1063 L 3263 -1509 L -63 -1509 L -63 -1063 L 3263 -1063 z" transform="scale(0.015625)"/><path id="DejaVuSans-7a" d="M 353 3500 L 3084 3500 L 3084 2975 L 922 459 L 3084 459 L 3084 0 L 275 0 L 275 525 L 2438 3041 L 353 3041 L 353 3500 z" transform="scale(0.015625)"/><path id="DejaVuSans-3d" d="M 678 2906 L 4684 2906 L 4684 2381 L 678 2381 L 678 2906 z M 678 1631 L 4684 1631 L 4684 1100 L 678 1100 L 678 1631 z" transform="scale(0.015625)"/></defs><use xlink:href="#DejaVuSans-43"/><use x="69.824" xlink:href="#DejaVuSans-75"/><use x="133.203" xlink:href="#DejaVuSans-6d"/><use x="230.615" xlink:href="#DejaVuSans-75"/><use x="293.994" xlink:href="#DejaVuSans-6c"/><use x="321.777" xlink:href="#DejaVuSans-61"/><use x="383.057" xlink:href="#DejaVuSans-74"/><use x="422.266" xlink:href="#DejaVuSans-69"/><use x="450.049" xlink:href="#DejaVuSans-76"/><use x="509.229" xlink:href="#DejaVuSans-65"/><use x="570.752" xlink:href="#DejaVuSans-20"/><use x="602.539" xlink:href="#DejaVuSans-70"/><use x="666.016" xlink:href="#DejaVuSans-65"/><use x="727.539" xlink:href="#DejaVuSans-72"/><use x="768.652" xlink:href="#DejaVuSans-66"/><use x="803.857" xlink:href="#DejaVuSans-6f"/><use x="865.039" xlink:href="#DejaVuSans-72"/><use x="904.402" xlink:href="#DejaVuSans-6d"/><use x="1001.814" xlink:href="#DejaVuSans-61"/><use x="1063.094" xlink:href="#DejaVuSans-6e"/><use x="1126.473" xlink:href="#DejaVuSans-63"/><use x="1181.453" xlink:href="#DejaVuSans-65"/><use x="1242.977" xlink:href="#DejaVuSans-20"/><use x="1274.764" xlink:href="#DejaVuSans-28"/><use x="1313.777" xlink:href="#DejaVuSans-77"/><use x="1395.564" xlink:href="#DejaVuSans-69"/><use x="1423.348" xlink:href="#DejaVuSans-74"/><use x="1462.557" xlink:href="#DejaVuSans-68"/><use x="1525.936" xlink:href="#DejaVuSans-20"/><use x="1557.723" xlink:href="#DejaVuSans-63"/><use x="1612.703" xlink:href="#DejaVuSans-68"/><use x="1676.082" xlink:href="#DejaVuSans-75"/><use x="1739.461" xlink:href="#DejaVuSans-6e"/><use x="1802.84" xlink:href="#DejaVuSans-6b"/><use x="1860.75" xlink:href="#DejaVuSans-5f"/><use x="1910.75" xlink:href="#DejaVuSans-73"/><use x="1962.85" xlink:href="#DejaVuSans-69"/><use x="1990.633" xlink:href="#DejaVuSans-7a"/><use x="2043.123" xlink:href="#DejaVuSans-65"/><use x="2104.646" xlink:href="#DejaVuSans-3d"/><use x="2188.436" xlink:href="#DejaVuSans-32"/><use x="2252.059" xlink:href="#DejaVuSans-30"/><use x="2315.682" xlink:href="#DejaVuSans-30"/><use x="2379.305" xlink:href="#DejaVuSans-30"/><use x="2442.928" xlink:href="#DejaVuSans-30"/><use x="2506.551" xlink:href="#DejaVuSans-29"/></g></g><g id="legend_1"><g id="patch_7"><path d="M 64.6 122.862625 L 213.16875 122.862625 Q 215.16875 122.862625 215.16875 120.862625 L 215.16875 48.472 Q 215.16875 46.472 213.16875 46.472 L 64.6 46.472 Q 62.6 46.472 62.6 48.472 L 62.6 120.862625 Q 62.6 122.862625 64.6 122.862625 z" style="fill:#fff;opacity:.8;stroke:#ccc;stroke-linejoin:miter"/></g><g id="line2d_18"><path d="M 66.6 54.570438 L 76.6 54.570438 L 86.6 54.570438" style="fill:none;stroke:#1f77b4;stroke-width:1.5;stroke-linecap:square"/></g><g id="text_17"><g transform="translate(94.6 58.070438)scale(0.1 -0.1)"><defs><path id="DejaVuSans-41" d="M 2188 4044 L 1331 1722 L 3047 1722 L 2188 4044 z M 1831 4666 L 2547 4666 L 4325 0 L 3669 0 L 3244 1197 L 1141 1197 L 716 0 L 50 0 L 1831 4666 z" transform="scale(0.015625)"/></defs><use xlink:href="#DejaVuSans-41"/><use x="68.408" xlink:href="#DejaVuSans-6c"/><use x="96.191" xlink:href="#DejaVuSans-6c"/><use x="123.975" xlink:href="#DejaVuSans-6f"/><use x="185.156" xlink:href="#DejaVuSans-63"/><use x="240.137" xlink:href="#DejaVuSans-61"/><use x="301.416" xlink:href="#DejaVuSans-74"/><use x="340.625" xlink:href="#DejaVuSans-65"/><use x="402.148" xlink:href="#DejaVuSans-20"/><use x="433.936" xlink:href="#DejaVuSans-6f"/><use x="495.117" xlink:href="#DejaVuSans-6e"/><use x="558.496" xlink:href="#DejaVuSans-65"/><use x="620.02" xlink:href="#DejaVuSans-73"/></g></g><g id="line2d_19"><path d="M 66.6 69.248563 L 76.6 69.248563 L 86.6 69.248563" style="fill:none;stroke:#ff7f0e;stroke-width:1.5;stroke-linecap:square"/></g><g id="text_18"><g transform="translate(94.6 72.748563)scale(0.1 -0.1)"><defs><path id="DejaVuSans-67" d="M 2906 1791 Q 2906 2416 2648 2759 Q 2391 3103 1925 3103 Q 1463 3103 1205 2759 Q 947 2416 947 1791 Q 947 1169 1205 825 Q 1463 481 1925 481 Q 2391 481 2648 825 Q 2906 1169 2906 1791 z M 3481 434 Q 3481 -459 3084 -895 Q 2688 -1331 1869 -1331 Q 1566 -1331 1297 -1286 Q 1028 -1241 775 -1147 L 775 -588 Q 1028 -725 1275 -790 Q 1522 -856 1778 -856 Q 2344 -856 2625 -561 Q 2906 -266 2906 331 L 2906 616 Q 2728 306 2450 153 Q 2172 0 1784 0 Q 1141 0 747 490 Q 353 981 353 1791 Q 353 2603 747 3093 Q 1141 3584 1784 3584 Q 2172 3584 2450 3431 Q 2728 3278 2906 2969 L 2906 3500 L 3481 3500 L 3481 434 z" transform="scale(0.015625)"/></defs><use xlink:href="#DejaVuSans-41"/><use x="68.408" xlink:href="#DejaVuSans-6c"/><use x="96.191" xlink:href="#DejaVuSans-6c"/><use x="123.975" xlink:href="#DejaVuSans-6f"/><use x="185.156" xlink:href="#DejaVuSans-63"/><use x="240.137" xlink:href="#DejaVuSans-61"/><use x="301.416" xlink:href="#DejaVuSans-74"/><use x="340.625" xlink:href="#DejaVuSans-65"/><use x="402.148" xlink:href="#DejaVuSans-20"/><use x="433.936" xlink:href="#DejaVuSans-72"/><use x="475.049" xlink:href="#DejaVuSans-61"/><use x="536.328" xlink:href="#DejaVuSans-6e"/><use x="599.707" xlink:href="#DejaVuSans-67"/><use x="663.184" xlink:href="#DejaVuSans-65"/></g></g><g id="line2d_20"><path d="M 66.6 83.926688 L 76.6 83.926688 L 86.6 83.926688" style="fill:none;stroke:#2ca02c;stroke-width:1.5;stroke-linecap:square"/></g><g id="text_19"><g transform="translate(94.6 87.426688)scale(0.1 -0.1)"><defs><path id="DejaVuSans-53" d="M 3425 4513 L 3425 3897 Q 3066 4069 2747 4153 Q 2428 4238 2131 4238 Q 1616 4238 1336 4038 Q 1056 3838 1056 3469 Q 1056 3159 1242 3001 Q 1428 2844 1947 2747 L 2328 2669 Q 3034 2534 3370 2195 Q 3706 1856 3706 1288 Q 3706 609 3251 259 Q 2797 -91 1919 -91 Q 1588 -91 1214 -16 Q 841 59 441 206 L 441 856 Q 825 641 1194 531 Q 1563 422 1919 422 Q 2459 422 2753 634 Q 3047 847 3047 1241 Q 3047 1584 2836 1778 Q 2625 1972 2144 2069 L 1759 2144 Q 1053 2284 737 2584 Q 422 2884 422 3419 Q 422 4038 858 4394 Q 1294 4750 2059 4750 Q 2388 4750 2728 4690 Q 3069 4631 3425 4513 z" transform="scale(0.015625)"/><path id="DejaVuSans-71" d="M 947 1747 Q 947 1113 1208 752 Q 1469 391 1925 391 Q 2381 391 2643 752 Q 2906 1113 2906 1747 Q 2906 2381 2643 2742 Q 2381 3103 1925 3103 Q 1469 3103 1208 2742 Q 947 2381 947 1747 z M 2906 525 Q 2725 213 2448 61 Q 2172 -91 1784 -91 Q 1150 -91 751 415 Q 353 922 353 1747 Q 353 2572 751 3078 Q 1150 3584 1784 3584 Q 2172 3584 2448 3432 Q 2725 3281 2906 2969 L 2906 3500 L 3481 3500 L 3481 -1331 L 2906 -1331 L 2906 525 z" transform="scale(0.015625)"/></defs><use xlink:href="#DejaVuSans-53"/><use x="63.477" xlink:href="#DejaVuSans-71"/><use x="126.953" xlink:href="#DejaVuSans-75"/><use x="190.332" xlink:href="#DejaVuSans-61"/><use x="251.611" xlink:href="#DejaVuSans-72"/><use x="290.475" xlink:href="#DejaVuSans-65"/><use x="351.998" xlink:href="#DejaVuSans-20"/><use x="383.785" xlink:href="#DejaVuSans-72"/><use x="424.898" xlink:href="#DejaVuSans-61"/><use x="486.178" xlink:href="#DejaVuSans-6e"/><use x="549.557" xlink:href="#DejaVuSans-67"/><use x="613.033" xlink:href="#DejaVuSans-65"/></g></g><g id="line2d_21"><path d="M 66.6 98.604813 L 76.6 98.604813 L 86.6 98.604813" style="fill:none;stroke:#d62728;stroke-width:1.5;stroke-linecap:square"/></g><g id="text_20"><g transform="translate(94.6 102.104813)scale(0.1 -0.1)"><defs><path id="DejaVuSans-44" d="M 1259 4147 L 1259 519 L 2022 519 Q 2988 519 3436 956 Q 3884 1394 3884 2338 Q 3884 3275 3436 3711 Q 2988 4147 2022 4147 L 1259 4147 z M 628 4666 L 1925 4666 Q 3281 4666 3915 4102 Q 4550 3538 4550 2338 Q 4550 1131 3912 565 Q 3275 0 1925 0 L 628 0 L 628 4666 z" transform="scale(0.015625)"/><path id="DejaVuSans-64" d="M 2906 2969 L 2906 4863 L 3481 4863 L 3481 0 L 2906 0 L 2906 525 Q 2725 213 2448 61 Q 2172 -91 1784 -91 Q 1150 -91 751 415 Q 353 922 353 1747 Q 353 2572 751 3078 Q 1150 3584 1784 3584 Q 2172 3584 2448 3432 Q 2725 3281 2906 2969 z M 947 1747 Q 947 1113 1208 752 Q 1469 391 1925 391 Q 2381 391 2643 752 Q 2906 1113 2906 1747 Q 2906 2381 2643 2742 Q 2381 3103 1925 3103 Q 1469 3103 1208 2742 Q 947 2381 947 1747 z" transform="scale(0.015625)"/><path id="DejaVuSans-62" d="M 3116 1747 Q 3116 2381 2855 2742 Q 2594 3103 2138 3103 Q 1681 3103 1420 2742 Q 1159 2381 1159 1747 Q 1159 1113 1420 752 Q 1681 391 2138 391 Q 2594 391 2855 752 Q 3116 1113 3116 1747 z M 1159 2969 Q 1341 3281 1617 3432 Q 1894 3584 2278 3584 Q 2916 3584 3314 3078 Q 3713 2572 3713 1747 Q 3713 922 3314 415 Q 2916 -91 2278 -91 Q 1894 -91 1617 61 Q 1341 213 1159 525 L 1159 0 L 581 0 L 581 4863 L 1159 4863 L 1159 2969 z" transform="scale(0.015625)"/><path id="DejaVuSans-79" d="M 2059 -325 Q 1816 -950 1584 -1140 Q 1353 -1331 966 -1331 L 506 -1331 L 506 -850 L 844 -850 Q 1081 -850 1212 -737 Q 1344 -625 1503 -206 L 1606 56 L 191 3500 L 800 3500 L 1894 763 L 2988 3500 L 3597 3500 L 2059 -325 z" transform="scale(0.015625)"/></defs><use xlink:href="#DejaVuSans-44"/><use x="77.002" xlink:href="#DejaVuSans-69"/><use x="104.785" xlink:href="#DejaVuSans-76"/><use x="163.965" xlink:href="#DejaVuSans-69"/><use x="191.748" xlink:href="#DejaVuSans-64"/><use x="255.225" xlink:href="#DejaVuSans-65"/><use x="316.748" xlink:href="#DejaVuSans-20"/><use x="348.535" xlink:href="#DejaVuSans-6f"/><use x="409.717" xlink:href="#DejaVuSans-6e"/><use x="473.096" xlink:href="#DejaVuSans-65"/><use x="534.619" xlink:href="#DejaVuSans-73"/><use x="586.719" xlink:href="#DejaVuSans-20"/><use x="618.506" xlink:href="#DejaVuSans-62"/><use x="681.982" xlink:href="#DejaVuSans-79"/><use x="741.162" xlink:href="#DejaVuSans-20"/><use x="772.949" xlink:href="#DejaVuSans-73"/><use x="825.049" xlink:href="#DejaVuSans-71"/><use x="888.525" xlink:href="#DejaVuSans-75"/><use x="951.904" xlink:href="#DejaVuSans-61"/><use x="1013.184" xlink:href="#DejaVuSans-72"/><use x="1052.047" xlink:href="#DejaVuSans-65"/><use x="1113.57" xlink:href="#DejaVuSans-73"/></g></g><g id="line2d_22"><path d="M 66.6 113.282938 L 76.6 113.282938 L 86.6 113.282938" style="fill:none;stroke:#9467bd;stroke-width:1.5;stroke-linecap:square"/></g><g id="text_21"><g transform="translate(94.6 116.782938)scale(0.1 -0.1)"><defs><path id="DejaVuSans-46" d="M 628 4666 L 3309 4666 L 3309 4134 L 1259 4134 L 1259 2759 L 3109 2759 L 3109 2228 L 1259 2228 L 1259 0 L 628 0 L 628 4666 z" transform="scale(0.015625)"/></defs><use xlink:href="#DejaVuSans-46"/><use x="50.27" xlink:href="#DejaVuSans-69"/><use x="78.053" xlink:href="#DejaVuSans-6e"/><use x="141.432" xlink:href="#DejaVuSans-61"/><use x="202.711" xlink:href="#DejaVuSans-6c"/><use x="230.494" xlink:href="#DejaVuSans-20"/><use x="262.281" xlink:href="#DejaVuSans-73"/><use x="314.381" xlink:href="#DejaVuSans-75"/><use x="377.76" xlink:href="#DejaVuSans-6d"/></g></g></g></g></g><defs><clipPath id="p34ed0ec8a4"><rect width="357.12" height="266.112" x="57.6" y="41.472"/></clipPath></defs></svg>