<svg xmlns="http://www.w3.org/2000/svg" xmlns:xlink="http://www.w3.org/1999/xlink" width="614.4" height="460.8" version="1.1" viewBox="0 0 460.8 345.6"><metadata><rdf:RDF xmlns:cc="http://creativecommons.org/ns#" xmlns:dc="http://purl.org/dc/elements/1.1/" xmlns:rdf="http://www.w3.org/1999/02/22-rdf-syntax-ns#"><cc:Work><dc:type rdf:resource="http://purl.org/dc/dcmitype/StillImage"/><dc:date>2023-08-02T09:57:48.047379</dc:date><dc:format>image/svg+xml</dc:format><dc:creator><cc:Agent><dc:title>Matplotlib v3.5.1, https://matplotlib.org/</dc:title></cc:Agent></dc:creator></cc:Work></rdf:RDF></metadata><defs><style type="text/css">*{stroke-linejoin:round;stroke-linecap:butt}</style></defs><g id="figure_1"><g id="patch_1"><path d="M 0 345.6 L 460.8 345.6 L 460.8 0 L 0 0 L 0 345.6 z" style="fill:none"/></g><g id="axes_1"><g id="patch_2"><path d="M 57.6 307.584 L 414.72 307.584 L 414.72 41.472 L 57.6 41.472 L 57.6 307.584 z" style="fill:none"/></g><g id="matplotlib.axis_1"><g id="xtick_1"><g id="line2d_1"><defs><path id="m19dd02da95" d="M 0 0 L 0 3.5" style="stroke:#fff;stroke-width:.8"/></defs><g><use x="110.043" y="307.584" xlink:href="#m19dd02da95" style="fill:#fff;stroke:#fff;stroke-width:.8"/></g></g><g id="text_1"><g style="fill:#fff" transform="translate(101.243117 322.182437)scale(0.1 -0.1)"><defs><path id="DejaVuSans-31" d="M 794 531 L 1825 531 L 1825 4091 L 703 3866 L 703 4441 L 1819 4666 L 2450 4666 L 2450 531 L 3481 531 L 3481 0 L 794 0 L 794 531 z" transform="scale(0.015625)"/><path id="DejaVuSans-30" d="M 2034 4250 Q 1547 4250 1301 3770 Q 1056 3291 1056 2328 Q 1056 1369 1301 889 Q 1547 409 2034 409 Q 2525 409 2770 889 Q 3016 1369 3016 2328 Q 3016 3291 2770 3770 Q 2525 4250 2034 4250 z M 2034 4750 Q 2819 4750 3233 4129 Q 3647 3509 3647 2328 Q 3647 1150 3233 529 Q 2819 -91 2034 -91 Q 1250 -91 836 529 Q 422 1150 422 2328 Q 422 3509 836 4129 Q 1250 4750 2034 4750 z" transform="scale(0.015625)"/><path id="DejaVuSans-33" d="M 2597 2516 Q 3050 2419 3304 2112 Q 3559 1806 3559 1356 Q 3559 666 3084 287 Q 2609 -91 1734 -91 Q 1441 -91 1130 -33 Q 819 25 488 141 L 488 750 Q 750 597 1062 519 Q 1375 441 1716 441 Q 2309 441 2620 675 Q 2931 909 2931 1356 Q 2931 1769 2642 2001 Q 2353 2234 1838 2234 L 1294 2234 L 1294 2753 L 1863 2753 Q 2328 2753 2575 2939 Q 2822 3125 2822 3475 Q 2822 3834 2567 4026 Q 2313 4219 1838 4219 Q 1578 4219 1281 4162 Q 984 4106 628 3988 L 628 4550 Q 988 4650 1302 4700 Q 1616 4750 1894 4750 Q 2613 4750 3031 4423 Q 3450 4097 3450 3541 Q 3450 3153 3228 2886 Q 3006 2619 2597 2516 z" transform="scale(0.015625)"/></defs><use transform="translate(0 0.765625)" xlink:href="#DejaVuSans-31"/><use transform="translate(63.623047 0.765625)" xlink:href="#DejaVuSans-30"/><use transform="translate(128.203125 39.046875)scale(0.7)" xlink:href="#DejaVuSans-33"/></g></g></g><g id="xtick_2"><g id="line2d_2"><g><use x="230.331" y="307.584" xlink:href="#m19dd02da95" style="fill:#fff;stroke:#fff;stroke-width:.8"/></g></g><g id="text_2"><g style="fill:#fff" transform="translate(221.531429 322.182437)scale(0.1 -0.1)"><defs><path id="DejaVuSans-34" d="M 2419 4116 L 825 1625 L 2419 1625 L 2419 4116 z M 2253 4666 L 3047 4666 L 3047 1625 L 3713 1625 L 3713 1100 L 3047 1100 L 3047 0 L 2419 0 L 2419 1100 L 313 1100 L 313 1709 L 2253 4666 z" transform="scale(0.015625)"/></defs><use transform="translate(0 0.684375)" xlink:href="#DejaVuSans-31"/><use transform="translate(63.623047 0.684375)" xlink:href="#DejaVuSans-30"/><use transform="translate(128.203125 38.965625)scale(0.7)" xlink:href="#DejaVuSans-34"/></g></g></g><g id="xtick_3"><g id="line2d_3"><g><use x="350.62" y="307.584" xlink:href="#m19dd02da95" style="fill:#fff;stroke:#fff;stroke-width:.8"/></g></g><g id="text_3"><g style="fill:#fff" transform="translate(341.819741 322.182437)scale(0.1 -0.1)"><defs><path id="DejaVuSans-35" d="M 691 4666 L 3169 4666 L 3169 4134 L 1269 4134 L 1269 2991 Q 1406 3038 1543 3061 Q 1681 3084 1819 3084 Q 2600 3084 3056 2656 Q 3513 2228 3513 1497 Q 3513 744 3044 326 Q 2575 -91 1722 -91 Q 1428 -91 1123 -41 Q 819 9 494 109 L 494 744 Q 775 591 1075 516 Q 1375 441 1709 441 Q 2250 441 2565 725 Q 2881 1009 2881 1497 Q 2881 1984 2565 2268 Q 2250 2553 1709 2553 Q 1456 2553 1204 2497 Q 953 2441 691 2322 L 691 4666 z" transform="scale(0.015625)"/></defs><use transform="translate(0 0.684375)" xlink:href="#DejaVuSans-31"/><use transform="translate(63.623047 0.684375)" xlink:href="#DejaVuSans-30"/><use transform="translate(128.203125 38.965625)scale(0.7)" xlink:href="#DejaVuSans-35"/></g></g></g><g id="xtick_4"><g id="line2d_4"><defs><path id="m73d4c13ba7" d="M 0 0 L 0 2" style="stroke:#000;stroke-width:.6"/></defs><g><use x="62.176" y="307.584" xlink:href="#m73d4c13ba7" style="stroke:#000;stroke-width:.6"/></g></g></g><g id="xtick_5"><g id="line2d_5"><g><use x="73.833" y="307.584" xlink:href="#m73d4c13ba7" style="stroke:#000;stroke-width:.6"/></g></g></g><g id="xtick_6"><g id="line2d_6"><g><use x="83.357" y="307.584" xlink:href="#m73d4c13ba7" style="stroke:#000;stroke-width:.6"/></g></g></g><g id="xtick_7"><g id="line2d_7"><g><use x="91.41" y="307.584" xlink:href="#m73d4c13ba7" style="stroke:#000;stroke-width:.6"/></g></g></g><g id="xtick_8"><g id="line2d_8"><g><use x="98.386" y="307.584" xlink:href="#m73d4c13ba7" style="stroke:#000;stroke-width:.6"/></g></g></g><g id="xtick_9"><g id="line2d_9"><g><use x="104.539" y="307.584" xlink:href="#m73d4c13ba7" style="stroke:#000;stroke-width:.6"/></g></g></g><g id="xtick_10"><g id="line2d_10"><g><use x="146.254" y="307.584" xlink:href="#m73d4c13ba7" style="stroke:#000;stroke-width:.6"/></g></g></g><g id="xtick_11"><g id="line2d_11"><g><use x="167.435" y="307.584" xlink:href="#m73d4c13ba7" style="stroke:#000;stroke-width:.6"/></g></g></g><g id="xtick_12"><g id="line2d_12"><g><use x="182.464" y="307.584" xlink:href="#m73d4c13ba7" style="stroke:#000;stroke-width:.6"/></g></g></g><g id="xtick_13"><g id="line2d_13"><g><use x="194.121" y="307.584" xlink:href="#m73d4c13ba7" style="stroke:#000;stroke-width:.6"/></g></g></g><g id="xtick_14"><g id="line2d_14"><g><use x="203.646" y="307.584" xlink:href="#m73d4c13ba7" style="stroke:#000;stroke-width:.6"/></g></g></g><g id="xtick_15"><g id="line2d_15"><g><use x="211.699" y="307.584" xlink:href="#m73d4c13ba7" style="stroke:#000;stroke-width:.6"/></g></g></g><g id="xtick_16"><g id="line2d_16"><g><use x="218.674" y="307.584" xlink:href="#m73d4c13ba7" style="stroke:#000;stroke-width:.6"/></g></g></g><g id="xtick_17"><g id="line2d_17"><g><use x="224.827" y="307.584" xlink:href="#m73d4c13ba7" style="stroke:#000;stroke-width:.6"/></g></g></g><g id="xtick_18"><g id="line2d_18"><g><use x="266.542" y="307.584" xlink:href="#m73d4c13ba7" style="stroke:#000;stroke-width:.6"/></g></g></g><g id="xtick_19"><g id="line2d_19"><g><use x="287.724" y="307.584" xlink:href="#m73d4c13ba7" style="stroke:#000;stroke-width:.6"/></g></g></g><g id="xtick_20"><g id="line2d_20"><g><use x="302.752" y="307.584" xlink:href="#m73d4c13ba7" style="stroke:#000;stroke-width:.6"/></g></g></g><g id="xtick_21"><g id="line2d_21"><g><use x="314.409" y="307.584" xlink:href="#m73d4c13ba7" style="stroke:#000;stroke-width:.6"/></g></g></g><g id="xtick_22"><g id="line2d_22"><g><use x="323.934" y="307.584" xlink:href="#m73d4c13ba7" style="stroke:#000;stroke-width:.6"/></g></g></g><g id="xtick_23"><g id="line2d_23"><g><use x="331.987" y="307.584" xlink:href="#m73d4c13ba7" style="stroke:#000;stroke-width:.6"/></g></g></g><g id="xtick_24"><g id="line2d_24"><g><use x="338.963" y="307.584" xlink:href="#m73d4c13ba7" style="stroke:#000;stroke-width:.6"/></g></g></g><g id="xtick_25"><g id="line2d_25"><g><use x="345.116" y="307.584" xlink:href="#m73d4c13ba7" style="stroke:#000;stroke-width:.6"/></g></g></g><g id="xtick_26"><g id="line2d_26"><g><use x="386.83" y="307.584" xlink:href="#m73d4c13ba7" style="stroke:#000;stroke-width:.6"/></g></g></g><g id="xtick_27"><g id="line2d_27"><g><use x="408.012" y="307.584" xlink:href="#m73d4c13ba7" style="stroke:#000;stroke-width:.6"/></g></g></g><g id="text_4"><g style="fill:#fff" transform="translate(208.983437 335.860562)scale(0.1 -0.1)"><defs><path id="DejaVuSans-43" d="M 4122 4306 L 4122 3641 Q 3803 3938 3442 4084 Q 3081 4231 2675 4231 Q 1875 4231 1450 3742 Q 1025 3253 1025 2328 Q 1025 1406 1450 917 Q 1875 428 2675 428 Q 3081 428 3442 575 Q 3803 722 4122 1019 L 4122 359 Q 3791 134 3420 21 Q 3050 -91 2638 -91 Q 1578 -91 968 557 Q 359 1206 359 2328 Q 359 3453 968 4101 Q 1578 4750 2638 4750 Q 3056 4750 3426 4639 Q 3797 4528 4122 4306 z" transform="scale(0.015625)"/><path id="DejaVuSans-68" d="M 3513 2113 L 3513 0 L 2938 0 L 2938 2094 Q 2938 2591 2744 2837 Q 2550 3084 2163 3084 Q 1697 3084 1428 2787 Q 1159 2491 1159 1978 L 1159 0 L 581 0 L 581 4863 L 1159 4863 L 1159 2956 Q 1366 3272 1645 3428 Q 1925 3584 2291 3584 Q 2894 3584 3203 3211 Q 3513 2838 3513 2113 z" transform="scale(0.015625)"/><path id="DejaVuSans-75" d="M 544 1381 L 544 3500 L 1119 3500 L 1119 1403 Q 1119 906 1312 657 Q 1506 409 1894 409 Q 2359 409 2629 706 Q 2900 1003 2900 1516 L 2900 3500 L 3475 3500 L 3475 0 L 2900 0 L 2900 538 Q 2691 219 2414 64 Q 2138 -91 1772 -91 Q 1169 -91 856 284 Q 544 659 544 1381 z M 1991 3584 L 1991 3584 z" transform="scale(0.015625)"/><path id="DejaVuSans-6e" d="M 3513 2113 L 3513 0 L 2938 0 L 2938 2094 Q 2938 2591 2744 2837 Q 2550 3084 2163 3084 Q 1697 3084 1428 2787 Q 1159 2491 1159 1978 L 1159 0 L 581 0 L 581 3500 L 1159 3500 L 1159 2956 Q 1366 3272 1645 3428 Q 1925 3584 2291 3584 Q 2894 3584 3203 3211 Q 3513 2838 3513 2113 z" transform="scale(0.015625)"/><path id="DejaVuSans-6b" d="M 581 4863 L 1159 4863 L 1159 1991 L 2875 3500 L 3609 3500 L 1753 1863 L 3688 0 L 2938 0 L 1159 1709 L 1159 0 L 581 0 L 581 4863 z" transform="scale(0.015625)"/><path id="DejaVuSans-20" transform="scale(0.015625)"/><path id="DejaVuSans-73" d="M 2834 3397 L 2834 2853 Q 2591 2978 2328 3040 Q 2066 3103 1784 3103 Q 1356 3103 1142 2972 Q 928 2841 928 2578 Q 928 2378 1081 2264 Q 1234 2150 1697 2047 L 1894 2003 Q 2506 1872 2764 1633 Q 3022 1394 3022 966 Q 3022 478 2636 193 Q 2250 -91 1575 -91 Q 1294 -91 989 -36 Q 684 19 347 128 L 347 722 Q 666 556 975 473 Q 1284 391 1588 391 Q 1994 391 2212 530 Q 2431 669 2431 922 Q 2431 1156 2273 1281 Q 2116 1406 1581 1522 L 1381 1569 Q 847 1681 609 1914 Q 372 2147 372 2553 Q 372 3047 722 3315 Q 1072 3584 1716 3584 Q 2034 3584 2315 3537 Q 2597 3491 2834 3397 z" transform="scale(0.015625)"/><path id="DejaVuSans-69" d="M 603 3500 L 1178 3500 L 1178 0 L 603 0 L 603 3500 z M 603 4863 L 1178 4863 L 1178 4134 L 603 4134 L 603 4863 z" transform="scale(0.015625)"/><path id="DejaVuSans-7a" d="M 353 3500 L 3084 3500 L 3084 2975 L 922 459 L 3084 459 L 3084 0 L 275 0 L 275 525 L 2438 3041 L 353 3041 L 353 3500 z" transform="scale(0.015625)"/><path id="DejaVuSans-65" d="M 3597 1894 L 3597 1613 L 953 1613 Q 991 1019 1311 708 Q 1631 397 2203 397 Q 2534 397 2845 478 Q 3156 559 3463 722 L 3463 178 Q 3153 47 2828 -22 Q 2503 -91 2169 -91 Q 1331 -91 842 396 Q 353 884 353 1716 Q 353 2575 817 3079 Q 1281 3584 2069 3584 Q 2775 3584 3186 3129 Q 3597 2675 3597 1894 z M 3022 2063 Q 3016 2534 2758 2815 Q 2500 3097 2075 3097 Q 1594 3097 1305 2825 Q 1016 2553 972 2059 L 3022 2063 z" transform="scale(0.015625)"/></defs><use xlink:href="#DejaVuSans-43"/><use x="69.824" xlink:href="#DejaVuSans-68"/><use x="133.203" xlink:href="#DejaVuSans-75"/><use x="196.582" xlink:href="#DejaVuSans-6e"/><use x="259.961" xlink:href="#DejaVuSans-6b"/><use x="317.871" xlink:href="#DejaVuSans-20"/><use x="349.658" xlink:href="#DejaVuSans-73"/><use x="401.758" xlink:href="#DejaVuSans-69"/><use x="429.541" xlink:href="#DejaVuSans-7a"/><use x="482.031" xlink:href="#DejaVuSans-65"/></g></g></g><g id="matplotlib.axis_2"><g id="ytick_1"><g id="line2d_28"><defs><path id="mb9faef14cc" d="M 0 0 L -3.5 0" style="stroke:#fff;stroke-width:.8"/></defs><g><use x="57.6" y="295.494" xlink:href="#mb9faef14cc" style="fill:#fff;stroke:#fff;stroke-width:.8"/></g></g><g id="text_5"><g style="fill:#fff" transform="translate(44.2375 299.293477)scale(0.1 -0.1)"><use xlink:href="#DejaVuSans-30"/></g></g></g><g id="ytick_2"><g id="line2d_29"><g><use x="57.6" y="263.749" xlink:href="#mb9faef14cc" style="fill:#fff;stroke:#fff;stroke-width:.8"/></g></g><g id="text_6"><g style="fill:#fff" transform="translate(44.2375 267.548207)scale(0.1 -0.1)"><use xlink:href="#DejaVuSans-31"/></g></g></g><g id="ytick_3"><g id="line2d_30"><g><use x="57.6" y="232.004" xlink:href="#mb9faef14cc" style="fill:#fff;stroke:#fff;stroke-width:.8"/></g></g><g id="text_7"><g style="fill:#fff" transform="translate(44.2375 235.802937)scale(0.1 -0.1)"><defs><path id="DejaVuSans-32" d="M 1228 531 L 3431 531 L 3431 0 L 469 0 L 469 531 Q 828 903 1448 1529 Q 2069 2156 2228 2338 Q 2531 2678 2651 2914 Q 2772 3150 2772 3378 Q 2772 3750 2511 3984 Q 2250 4219 1831 4219 Q 1534 4219 1204 4116 Q 875 4013 500 3803 L 500 4441 Q 881 4594 1212 4672 Q 1544 4750 1819 4750 Q 2544 4750 2975 4387 Q 3406 4025 3406 3419 Q 3406 3131 3298 2873 Q 3191 2616 2906 2266 Q 2828 2175 2409 1742 Q 1991 1309 1228 531 z" transform="scale(0.015625)"/></defs><use xlink:href="#DejaVuSans-32"/></g></g></g><g id="ytick_4"><g id="line2d_31"><g><use x="57.6" y="200.258" xlink:href="#mb9faef14cc" style="fill:#fff;stroke:#fff;stroke-width:.8"/></g></g><g id="text_8"><g style="fill:#fff" transform="translate(44.2375 204.057668)scale(0.1 -0.1)"><use xlink:href="#DejaVuSans-33"/></g></g></g><g id="ytick_5"><g id="line2d_32"><g><use x="57.6" y="168.513" xlink:href="#mb9faef14cc" style="fill:#fff;stroke:#fff;stroke-width:.8"/></g></g><g id="text_9"><g style="fill:#fff" transform="translate(44.2375 172.312398)scale(0.1 -0.1)"><use xlink:href="#DejaVuSans-34"/></g></g></g><g id="ytick_6"><g id="line2d_33"><g><use x="57.6" y="136.768" xlink:href="#mb9faef14cc" style="fill:#fff;stroke:#fff;stroke-width:.8"/></g></g><g id="text_10"><g style="fill:#fff" transform="translate(44.2375 140.567128)scale(0.1 -0.1)"><use xlink:href="#DejaVuSans-35"/></g></g></g><g id="ytick_7"><g id="line2d_34"><g><use x="57.6" y="105.023" xlink:href="#mb9faef14cc" style="fill:#fff;stroke:#fff;stroke-width:.8"/></g></g><g id="text_11"><g style="fill:#fff" transform="translate(44.2375 108.821858)scale(0.1 -0.1)"><defs><path id="DejaVuSans-36" d="M 2113 2584 Q 1688 2584 1439 2293 Q 1191 2003 1191 1497 Q 1191 994 1439 701 Q 1688 409 2113 409 Q 2538 409 2786 701 Q 3034 994 3034 1497 Q 3034 2003 2786 2293 Q 2538 2584 2113 2584 z M 3366 4563 L 3366 3988 Q 3128 4100 2886 4159 Q 2644 4219 2406 4219 Q 1781 4219 1451 3797 Q 1122 3375 1075 2522 Q 1259 2794 1537 2939 Q 1816 3084 2150 3084 Q 2853 3084 3261 2657 Q 3669 2231 3669 1497 Q 3669 778 3244 343 Q 2819 -91 2113 -91 Q 1303 -91 875 529 Q 447 1150 447 2328 Q 447 3434 972 4092 Q 1497 4750 2381 4750 Q 2619 4750 2861 4703 Q 3103 4656 3366 4563 z" transform="scale(0.015625)"/></defs><use xlink:href="#DejaVuSans-36"/></g></g></g><g id="ytick_8"><g id="line2d_35"><g><use x="57.6" y="73.277" xlink:href="#mb9faef14cc" style="fill:#fff;stroke:#fff;stroke-width:.8"/></g></g><g id="text_12"><g style="fill:#fff" transform="translate(44.2375 77.076588)scale(0.1 -0.1)"><defs><path id="DejaVuSans-37" d="M 525 4666 L 3525 4666 L 3525 4397 L 1831 0 L 1172 0 L 2766 4134 L 525 4134 L 525 4666 z" transform="scale(0.015625)"/></defs><use xlink:href="#DejaVuSans-37"/></g></g></g><g id="ytick_9"><g id="line2d_36"><g><use x="57.6" y="41.532" xlink:href="#mb9faef14cc" style="fill:#fff;stroke:#fff;stroke-width:.8"/></g></g><g id="text_13"><g style="fill:#fff" transform="translate(44.2375 45.331318)scale(0.1 -0.1)"><defs><path id="DejaVuSans-38" d="M 2034 2216 Q 1584 2216 1326 1975 Q 1069 1734 1069 1313 Q 1069 891 1326 650 Q 1584 409 2034 409 Q 2484 409 2743 651 Q 3003 894 3003 1313 Q 3003 1734 2745 1975 Q 2488 2216 2034 2216 z M 1403 2484 Q 997 2584 770 2862 Q 544 3141 544 3541 Q 544 4100 942 4425 Q 1341 4750 2034 4750 Q 2731 4750 3128 4425 Q 3525 4100 3525 3541 Q 3525 3141 3298 2862 Q 3072 2584 2669 2484 Q 3125 2378 3379 2068 Q 3634 1759 3634 1313 Q 3634 634 3220 271 Q 2806 -91 2034 -91 Q 1263 -91 848 271 Q 434 634 434 1313 Q 434 1759 690 2068 Q 947 2378 1403 2484 z M 1172 3481 Q 1172 3119 1398 2916 Q 1625 2713 2034 2713 Q 2441 2713 2670 2916 Q 2900 3119 2900 3481 Q 2900 3844 2670 4047 Q 2441 4250 2034 4250 Q 1625 4250 1398 4047 Q 1172 3844 1172 3481 z" transform="scale(0.015625)"/></defs><use xlink:href="#DejaVuSans-38"/></g></g></g><g id="text_14"><g style="fill:#fff" transform="translate(38.157812 194.856906)rotate(-90)scale(0.1 -0.1)"><defs><path id="DejaVuSans-54" d="M -19 4666 L 3928 4666 L 3928 4134 L 2272 4134 L 2272 0 L 1638 0 L 1638 4134 L -19 4134 L -19 4666 z" transform="scale(0.015625)"/><path id="DejaVuSans-6d" d="M 3328 2828 Q 3544 3216 3844 3400 Q 4144 3584 4550 3584 Q 5097 3584 5394 3201 Q 5691 2819 5691 2113 L 5691 0 L 5113 0 L 5113 2094 Q 5113 2597 4934 2840 Q 4756 3084 4391 3084 Q 3944 3084 3684 2787 Q 3425 2491 3425 1978 L 3425 0 L 2847 0 L 2847 2094 Q 2847 2600 2669 2842 Q 2491 3084 2119 3084 Q 1678 3084 1418 2786 Q 1159 2488 1159 1978 L 1159 0 L 581 0 L 581 3500 L 1159 3500 L 1159 2956 Q 1356 3278 1631 3431 Q 1906 3584 2284 3584 Q 2666 3584 2933 3390 Q 3200 3197 3328 2828 z" transform="scale(0.015625)"/><path id="DejaVuSans-28" d="M 1984 4856 Q 1566 4138 1362 3434 Q 1159 2731 1159 2009 Q 1159 1288 1364 580 Q 1569 -128 1984 -844 L 1484 -844 Q 1016 -109 783 600 Q 550 1309 550 2009 Q 550 2706 781 3412 Q 1013 4119 1484 4856 L 1984 4856 z" transform="scale(0.015625)"/><path id="DejaVuSans-29" d="M 513 4856 L 1013 4856 Q 1481 4119 1714 3412 Q 1947 2706 1947 2009 Q 1947 1309 1714 600 Q 1481 -109 1013 -844 L 513 -844 Q 928 -128 1133 580 Q 1338 1288 1338 2009 Q 1338 2731 1133 3434 Q 928 4138 513 4856 z" transform="scale(0.015625)"/></defs><use xlink:href="#DejaVuSans-54"/><use x="57.959" xlink:href="#DejaVuSans-69"/><use x="85.742" xlink:href="#DejaVuSans-6d"/><use x="183.154" xlink:href="#DejaVuSans-65"/><use x="244.678" xlink:href="#DejaVuSans-20"/><use x="276.465" xlink:href="#DejaVuSans-28"/><use x="315.479" xlink:href="#DejaVuSans-73"/><use x="367.578" xlink:href="#DejaVuSans-29"/></g></g></g><g id="line2d_37"><path d="M 73.832727 292.575282 L 167.782342 294.987017 L 199.478652 295.245334 L 219.064629 295.322621 L 233.276769 295.362245 L 244.441783 295.385947 L 253.632338 295.403248 L 261.445351 295.418982 L 268.240451 295.424499 L 274.252561 295.435303 L 279.645658 295.439615 L 284.531873 295.444078 L 288.999902 295.447823 L 293.115716 295.452205 L 296.93081 295.454366 L 300.487517 295.457535 L 303.81615 295.458989 L 306.945336 295.46114 L 309.897632 295.463801 L 312.691969 295.465738 L 315.345423 295.466482 L 317.869612 295.468291 L 320.277437 295.46907 L 322.579155 295.469799 L 324.783725 295.470756 L 326.899839 295.471447 L 328.93277 295.471821 L 330.889544 295.472635 L 332.775663 295.474772 L 334.59605 295.473755 L 336.35582 295.474874 L 338.057573 295.4747 L 339.705636 295.475453 L 341.303292 295.47588 L 342.853534 295.476934 L 344.359684 295.476898 L 345.823051 295.478125 L 347.246541 295.478966 L 348.63227 295.478846 L 349.982188 295.478838 L 351.298617 295.478726 L 352.582183 295.47943 L 353.834966 295.480209 L 355.058409 295.480558 L 356.253854 295.480913 L 357.423012 295.481248 L 358.566127 295.481423 L 359.684764 295.481687 L 360.779948 295.482062 L 361.852643 295.482185 L 362.904167 295.482854 L 363.934538 295.482553 L 364.944978 295.482909 L 365.936245 295.483012 L 366.909052 295.483059 L 367.86445 295.483612 L 368.80232 295.483861 L 369.723649 295.484014 L 370.62901 295.482958 L 371.518948 295.484071 L 372.394323 295.484305 L 373.254933 295.484451 L 374.101594 295.484898 L 374.934752 295.484928 L 375.754831 295.485105 L 376.562553 295.485125 L 377.357663 295.485264 L 378.140852 295.485509 L 378.912473 295.485444 L 379.672862 295.485253 L 380.422638 295.485437 L 381.161513 295.485876 L 381.890084 295.486038 L 382.608633 295.485926 L 383.317433 295.486135 L 384.01702 295.486468 L 384.70709 295.486347 L 385.388163 295.486259 L 386.060471 295.485043 L 386.724236 295.485778 L 387.379933 295.484777 L 388.027245 295.485125 L 388.666635 295.485996 L 389.298294 295.486436 L 389.922406 295.48593 L 390.539394 295.48612 L 391.148938 295.485381 L 391.751453 295.485929 L 392.347098 295.487429 L 392.936028 295.486709 L 393.518622 295.487084 L 394.094563 295.487527 L 394.664224 295.486342 L 395.22774 295.48654 L 395.785242 295.48782 L 396.337075 295.486622 L 396.882924 295.487969 L 397.423129 295.487511 L 397.957805 295.487847 L 398.487273 295.488" clip-path="url(#p202e97f4b5)" style="fill:none;stroke:#1f77b4;stroke-width:1.5;stroke-linecap:square"/></g><g id="line2d_38"><path d="M 73.832727 257.560709 L 167.782342 285.541128 L 199.478652 288.16502 L 219.064629 289.124474 L 233.276769 289.6074 L 244.441783 289.939034 L 253.632338 290.157478 L 261.445351 290.321562 L 268.240451 290.421748 L 274.252561 290.511233 L 279.645658 290.604669 L 284.531873 290.665554 L 288.999902 290.705202 L 293.115716 290.749758 L 296.93081 290.782686 L 300.487517 290.814199 L 303.81615 290.659893 L 306.945336 290.870499 L 309.897632 290.901367 L 312.691969 290.909415 L 315.345423 290.920144 L 317.869612 290.923372 L 320.277437 290.952447 L 322.579155 290.966011 L 324.783725 290.982519 L 326.899839 290.95691 L 328.93277 290.990404 L 330.889544 290.971858 L 332.775663 291.025791 L 334.59605 290.999801 L 336.35582 291.018994 L 338.057573 291.021626 L 339.705636 290.891964 L 341.303292 290.95744 L 342.853534 291.040239 L 344.359684 291.063773 L 345.823051 291.059684 L 347.246541 291.082522 L 348.63227 291.015589 L 349.982188 290.960286 L 351.298617 291.008935 L 352.582183 290.940409 L 353.834966 291.066841 L 355.058409 291.069009 L 356.253854 291.100149 L 357.423012 291.102213 L 358.566127 291.099152 L 359.684764 291.100242 L 360.779948 291.110864 L 361.852643 291.108784 L 362.904167 291.127818 L 363.934538 291.119435 L 364.944978 291.116981 L 365.936245 291.099862 L 366.909052 291.122329 L 367.86445 291.129559 L 368.80232 291.11987 L 369.723649 291.128861 L 370.62901 291.14399 L 371.518948 291.130444 L 372.394323 291.060548 L 373.254933 291.087548 L 374.101594 291.146802 L 374.934752 291.155183 L 375.754831 291.140117 L 376.562553 291.152056 L 377.357663 291.146667 L 378.140852 291.143908 L 378.912473 291.150909 L 379.672862 291.149317 L 380.422638 291.153404 L 381.161513 291.157213 L 381.890084 291.159303 L 382.608633 291.150117 L 383.317433 291.164494 L 384.01702 291.157744 L 384.70709 291.162766 L 385.388163 291.143075 L 386.060471 277.770065 L 386.724236 277.821047 L 387.379933 277.444947 L 388.027245 277.411923 L 388.666635 277.516875 L 389.298294 277.515031 L 389.922406 277.367258 L 390.539394 277.367025 L 391.148938 277.329414 L 391.751453 278.203728 L 392.347098 278.235076 L 392.936028 278.146471 L 393.518622 277.765969 L 394.094563 277.395971 L 394.664224 278.045589 L 395.22774 278.122323 L 395.785242 277.896427 L 396.337075 276.922286 L 396.882924 277.9962 L 397.423129 277.303983 L 397.957805 277.98968 L 398.487273 277.781053" clip-path="url(#p202e97f4b5)" style="fill:none;stroke:#ff7f0e;stroke-width:1.5;stroke-linecap:square"/></g><g id="line2d_39"><path d="M 73.832727 189.615275 L 167.782342 266.072021 L 199.478652 273.509845 L 219.064629 276.468067 L 233.276769 276.323915 L 244.441783 276.916851 L 253.632338 277.553997 L 261.445351 277.988416 L 268.240451 278.56929 L 274.252561 278.927993 L 279.645658 279.243547 L 284.531873 279.584765 L 288.999902 279.767792 L 293.115716 279.915778 L 296.93081 280.023307 L 300.487517 280.134844 L 303.81615 279.880134 L 306.945336 280.326591 L 309.897632 280.493689 L 312.691969 280.493665 L 315.345423 279.364606 L 317.869612 280.685691 L 320.277437 279.719841 L 322.579155 274.695557 L 324.783725 279.442869 L 326.899839 274.589824 L 328.93277 268.426517 L 330.889544 267.061204 L 332.775663 279.328374 L 334.59605 271.673332 L 336.35582 267.782459 L 338.057573 267.552509 L 339.705636 273.706965 L 341.303292 272.803069 L 342.853534 268.239579 L 344.359684 268.424945 L 345.823051 272.365523 L 347.246541 281.23688 L 348.63227 270.911562 L 349.982188 267.094958 L 351.298617 267.322817 L 352.582183 266.516762 L 353.834966 268.380359 L 355.058409 268.968286 L 356.253854 268.560509 L 357.423012 268.865547 L 358.566127 269.383293 L 359.684764 268.987174 L 360.779948 269.011407 L 361.852643 269.611355 L 362.904167 275.155522 L 363.934538 268.624564 L 364.944978 267.357484 L 365.936245 268.176133 L 366.909052 273.059378 L 367.86445 271.676358 L 368.80232 268.87558 L 369.723649 272.666528 L 370.62901 275.561646 L 371.518948 269.612622 L 372.394323 268.839722 L 373.254933 269.111867 L 374.101594 275.218209 L 374.934752 271.704663 L 375.754831 273.454223 L 376.562553 269.175434 L 377.357663 269.517284 L 378.140852 269.012869 L 378.912473 269.312895 L 379.672862 271.74207 L 380.422638 269.327363 L 381.161513 269.302383 L 381.890084 269.749939 L 382.608633 269.504663 L 383.317433 269.637109 L 384.01702 269.282765 L 384.70709 269.520127 L 385.388163 269.536758 L 386.060471 256.157076 L 386.724236 256.282847 L 387.379933 255.734487 L 388.027245 255.459005 L 388.666635 256.009462 L 389.298294 256.248446 L 389.922406 256.133033 L 390.539394 255.747234 L 391.148938 255.230178 L 391.751453 256.438553 L 392.347098 256.289684 L 392.936028 256.27695 L 393.518622 256.012369 L 394.094563 255.256211 L 394.664224 256.440846 L 395.22774 256.639005 L 395.785242 255.906212 L 396.337075 254.284344 L 396.882924 256.349602 L 397.423129 255.094656 L 397.957805 256.220071 L 398.487273 255.910301" clip-path="url(#p202e97f4b5)" style="fill:none;stroke:#2ca02c;stroke-width:1.5;stroke-linecap:square"/></g><g id="line2d_40"><path d="M 73.832727 167.861709 L 167.782342 258.686233 L 199.478652 266.9571 L 219.064629 270.446208 L 233.276769 269.775613 L 244.441783 270.529473 L 253.632338 271.297018 L 261.445351 271.824093 L 268.240451 272.584117 L 274.252561 272.984854 L 279.645658 273.346637 L 284.531873 273.790038 L 288.999902 273.997855 L 293.115716 274.232131 L 296.93081 274.304289 L 300.487517 274.452643 L 303.81615 274.136126 L 306.945336 274.697667 L 309.897632 274.900748 L 312.691969 274.863728 L 315.345423 273.235134 L 317.869612 275.142518 L 320.277437 273.709837 L 322.579155 266.012536 L 324.783725 273.182915 L 326.899839 266.021387 L 328.93277 256.554971 L 330.889544 254.995013 L 332.775663 272.956852 L 334.59605 261.32918 L 336.35582 256.057779 L 338.057573 255.876755 L 339.705636 264.574334 L 341.303292 263.296572 L 342.853534 256.401647 L 344.359684 256.797157 L 345.823051 262.353986 L 347.246541 275.817727 L 348.63227 255.386532 L 349.982188 248.054404 L 351.298617 248.044632 L 352.582183 246.63221 L 353.834966 249.97815 L 355.058409 250.931356 L 356.253854 250.530294 L 357.423012 251.068335 L 358.566127 251.62412 L 359.684764 251.017799 L 360.779948 251.169053 L 361.852643 251.877141 L 362.904167 263.649869 L 363.934538 250.673381 L 364.944978 248.27398 L 365.936245 249.423645 L 366.909052 257.145163 L 367.86445 255.361799 L 368.80232 251.623564 L 369.723649 256.956458 L 370.62901 260.903661 L 371.518948 252.17169 L 372.394323 250.707292 L 373.254933 251.131531 L 374.101594 263.653608 L 374.934752 256.490184 L 375.754831 259.974323 L 376.562553 251.51437 L 377.357663 252.040696 L 378.140852 251.274332 L 378.912473 251.72724 L 379.672862 255.456503 L 380.422638 251.718385 L 381.161513 251.643578 L 381.890084 252.327252 L 382.608633 251.736845 L 383.317433 252.028292 L 384.01702 251.757662 L 384.70709 251.914507 L 385.388163 251.916858 L 386.060471 238.346757 L 386.724236 238.524356 L 387.379933 237.657288 L 388.027245 237.285789 L 388.666635 238.046592 L 389.298294 238.329414 L 389.922406 238.359117 L 390.539394 238.139311 L 391.148938 237.353984 L 391.751453 239.165736 L 392.347098 238.90979 L 392.936028 238.785227 L 393.518622 238.159583 L 394.094563 237.017817 L 394.664224 238.873583 L 395.22774 239.108417 L 395.785242 238.136422 L 396.337075 235.681462 L 396.882924 238.718667 L 397.423129 236.797402 L 397.957805 238.616823 L 398.487273 238.117485" clip-path="url(#p202e97f4b5)" style="fill:none;stroke:#d62728;stroke-width:1.5;stroke-linecap:square"/></g><g id="line2d_41"><path d="M 73.832727 53.568 L 167.782342 233.574793 L 199.478652 249.675113 L 219.064629 256.552756 L 233.276769 257.694469 L 244.441783 259.637968 L 253.632338 261.243644 L 261.445351 262.265534 L 268.240451 263.388771 L 274.252561 264.205791 L 279.645658 264.842248 L 284.531873 265.568362 L 288.999902 265.931799 L 293.115716 266.356902 L 296.93081 266.541523 L 300.487517 266.800265 L 303.81615 266.522466 L 306.945336 267.249447 L 309.897632 267.53621 L 312.691969 267.628152 L 315.345423 266.023353 L 317.869612 267.973868 L 320.277437 266.624889 L 322.579155 258.962867 L 324.783725 266.20526 L 326.899839 259.04607 L 328.93277 249.63592 L 330.889544 248.06292 L 332.775663 266.133064 L 334.59605 254.525248 L 336.35582 249.264249 L 338.057573 249.086339 L 339.705636 257.609079 L 341.303292 256.442308 L 342.853534 249.667092 L 344.359684 250.142781 L 345.823051 255.720356 L 347.246541 269.219889 L 348.63227 248.709808 L 349.982188 241.236561 L 351.298617 241.371807 L 352.582183 239.799586 L 353.834966 243.422869 L 355.058409 244.396237 L 356.253854 244.024792 L 357.423012 244.584046 L 358.566127 245.166793 L 359.684764 244.547625 L 360.779948 244.732467 L 361.852643 245.447185 L 362.904167 257.241929 L 363.934538 244.251199 L 364.944978 241.859387 L 365.936245 242.989759 L 366.909052 250.765954 L 367.86445 249.012465 L 368.80232 245.238646 L 369.723649 250.589762 L 370.62901 254.571921 L 371.518948 245.82397 L 372.394323 244.251547 L 373.254933 244.701282 L 374.101594 257.345443 L 374.934752 250.186155 L 375.754831 253.675543 L 376.562553 245.22901 L 377.357663 245.745352 L 378.140852 244.983773 L 378.912473 245.460707 L 379.672862 249.218329 L 380.422638 245.451755 L 381.161513 245.401256 L 381.890084 246.114906 L 382.608633 245.500129 L 383.317433 245.791585 L 384.01702 245.526039 L 384.70709 245.692324 L 385.388163 245.665206 L 386.060471 232.126152 L 386.724236 232.308433 L 387.379933 231.434859 L 388.027245 231.080957 L 388.666635 231.83445 L 389.298294 232.118788 L 389.922406 232.167709 L 390.539394 231.928968 L 391.148938 231.163616 L 391.751453 233.00124 L 392.347098 232.735958 L 392.936028 232.604347 L 393.518622 231.983141 L 394.094563 230.851648 L 394.664224 232.723725 L 395.22774 232.913356 L 395.785242 231.945674 L 396.337075 229.44008 L 396.882924 232.542247 L 397.423129 230.599196 L 397.957805 232.449993 L 398.487273 231.974026" clip-path="url(#p202e97f4b5)" style="fill:none;stroke:#9467bd;stroke-width:1.5;stroke-linecap:square"/></g><g id="patch_3"><path d="M 57.6 307.584 L 57.6 41.472" style="fill:none;stroke:#fff;stroke-width:.8;stroke-linejoin:miter;stroke-linecap:square"/></g><g id="patch_4"><path d="M 414.72 307.584 L 414.72 41.472" style="fill:none"/></g><g id="patch_5"><path d="M 57.6 307.584 L 414.72 307.584" style="fill:none;stroke:#fff;stroke-width:.8;stroke-linejoin:miter;stroke-linecap:square"/></g><g id="patch_6"><path d="M 57.6 41.472 L 414.72 41.472" style="fill:none"/></g><g id="text_15"><g style="fill:#fff" transform="translate(98.552812 35.472)scale(0.12 -0.12)"><defs><path id="DejaVuSans-6c" d="M 603 4863 L 1178 4863 L 1178 0 L 603 0 L 603 4863 z" transform="scale(0.015625)"/><path id="DejaVuSans-61" d="M 2194 1759 Q 1497 1759 1228 1600 Q 959 1441 959 1056 Q 959 750 1161 570 Q 1363 391 1709 391 Q 2188 391 2477 730 Q 2766 1069 2766 1631 L 2766 1759 L 2194 1759 z M 3341 1997 L 3341 0 L 2766 0 L 2766 531 Q 2569 213 2275 61 Q 1981 -91 1556 -91 Q 1019 -91 701 211 Q 384 513 384 1019 Q 384 1609 779 1909 Q 1175 2209 1959 2209 L 2766 2209 L 2766 2266 Q 2766 2663 2505 2880 Q 2244 3097 1772 3097 Q 1472 3097 1187 3025 Q 903 2953 641 2809 L 641 3341 Q 956 3463 1253 3523 Q 1550 3584 1831 3584 Q 2591 3584 2966 3190 Q 3341 2797 3341 1997 z" transform="scale(0.015625)"/><path id="DejaVuSans-74" d="M 1172 4494 L 1172 3500 L 2356 3500 L 2356 3053 L 1172 3053 L 1172 1153 Q 1172 725 1289 603 Q 1406 481 1766 481 L 2356 481 L 2356 0 L 1766 0 Q 1100 0 847 248 Q 594 497 594 1153 L 594 3053 L 172 3053 L 172 3500 L 594 3500 L 594 4494 L 1172 4494 z" transform="scale(0.015625)"/><path id="DejaVuSans-76" d="M 191 3500 L 800 3500 L 1894 563 L 2988 3500 L 3597 3500 L 2284 0 L 1503 0 L 191 3500 z" transform="scale(0.015625)"/><path id="DejaVuSans-70" d="M 1159 525 L 1159 -1331 L 581 -1331 L 581 3500 L 1159 3500 L 1159 2969 Q 1341 3281 1617 3432 Q 1894 3584 2278 3584 Q 2916 3584 3314 3078 Q 3713 2572 3713 1747 Q 3713 922 3314 415 Q 2916 -91 2278 -91 Q 1894 -91 1617 61 Q 1341 213 1159 525 z M 3116 1747 Q 3116 2381 2855 2742 Q 2594 3103 2138 3103 Q 1681 3103 1420 2742 Q 1159 2381 1159 1747 Q 1159 1113 1420 752 Q 1681 391 2138 391 Q 2594 391 2855 752 Q 3116 1113 3116 1747 z" transform="scale(0.015625)"/><path id="DejaVuSans-72" d="M 2631 2963 Q 2534 3019 2420 3045 Q 2306 3072 2169 3072 Q 1681 3072 1420 2755 Q 1159 2438 1159 1844 L 1159 0 L 581 0 L 581 3500 L 1159 3500 L 1159 2956 Q 1341 3275 1631 3429 Q 1922 3584 2338 3584 Q 2397 3584 2469 3576 Q 2541 3569 2628 3553 L 2631 2963 z" transform="scale(0.015625)"/><path id="DejaVuSans-66" d="M 2375 4863 L 2375 4384 L 1825 4384 Q 1516 4384 1395 4259 Q 1275 4134 1275 3809 L 1275 3500 L 2222 3500 L 2222 3053 L 1275 3053 L 1275 0 L 697 0 L 697 3053 L 147 3053 L 147 3500 L 697 3500 L 697 3744 Q 697 4328 969 4595 Q 1241 4863 1831 4863 L 2375 4863 z" transform="scale(0.015625)"/><path id="DejaVuSans-6f" d="M 1959 3097 Q 1497 3097 1228 2736 Q 959 2375 959 1747 Q 959 1119 1226 758 Q 1494 397 1959 397 Q 2419 397 2687 759 Q 2956 1122 2956 1747 Q 2956 2369 2687 2733 Q 2419 3097 1959 3097 z M 1959 3584 Q 2709 3584 3137 3096 Q 3566 2609 3566 1747 Q 3566 888 3137 398 Q 2709 -91 1959 -91 Q 1206 -91 779 398 Q 353 888 353 1747 Q 353 2609 779 3096 Q 1206 3584 1959 3584 z" transform="scale(0.015625)"/><path id="DejaVuSans-63" d="M 3122 3366 L 3122 2828 Q 2878 2963 2633 3030 Q 2388 3097 2138 3097 Q 1578 3097 1268 2742 Q 959 2388 959 1747 Q 959 1106 1268 751 Q 1578 397 2138 397 Q 2388 397 2633 464 Q 2878 531 3122 666 L 3122 134 Q 2881 22 2623 -34 Q 2366 -91 2075 -91 Q 1284 -91 818 406 Q 353 903 353 1747 Q 353 2603 823 3093 Q 1294 3584 2113 3584 Q 2378 3584 2631 3529 Q 2884 3475 3122 3366 z" transform="scale(0.015625)"/><path id="DejaVuSans-62" d="M 3116 1747 Q 3116 2381 2855 2742 Q 2594 3103 2138 3103 Q 1681 3103 1420 2742 Q 1159 2381 1159 1747 Q 1159 1113 1420 752 Q 1681 391 2138 391 Q 2594 391 2855 752 Q 3116 1113 3116 1747 z M 1159 2969 Q 1341 3281 1617 3432 Q 1894 3584 2278 3584 Q 2916 3584 3314 3078 Q 3713 2572 3713 1747 Q 3713 922 3314 415 Q 2916 -91 2278 -91 Q 1894 -91 1617 61 Q 1341 213 1159 525 L 1159 0 L 581 0 L 581 4863 L 1159 4863 L 1159 2969 z" transform="scale(0.015625)"/><path id="DejaVuSans-64" d="M 2906 2969 L 2906 4863 L 3481 4863 L 3481 0 L 2906 0 L 2906 525 Q 2725 213 2448 61 Q 2172 -91 1784 -91 Q 1150 -91 751 415 Q 353 922 353 1747 Q 353 2572 751 3078 Q 1150 3584 1784 3584 Q 2172 3584 2448 3432 Q 2725 3281 2906 2969 z M 947 1747 Q 947 1113 1208 752 Q 1469 391 1925 391 Q 2381 391 2643 752 Q 2906 1113 2906 1747 Q 2906 2381 2643 2742 Q 2381 3103 1925 3103 Q 1469 3103 1208 2742 Q 947 2381 947 1747 z" transform="scale(0.015625)"/></defs><use xlink:href="#DejaVuSans-43"/><use x="69.824" xlink:href="#DejaVuSans-75"/><use x="133.203" xlink:href="#DejaVuSans-6d"/><use x="230.615" xlink:href="#DejaVuSans-75"/><use x="293.994" xlink:href="#DejaVuSans-6c"/><use x="321.777" xlink:href="#DejaVuSans-61"/><use x="383.057" xlink:href="#DejaVuSans-74"/><use x="422.266" xlink:href="#DejaVuSans-69"/><use x="450.049" xlink:href="#DejaVuSans-76"/><use x="509.229" xlink:href="#DejaVuSans-65"/><use x="570.752" xlink:href="#DejaVuSans-20"/><use x="602.539" xlink:href="#DejaVuSans-70"/><use x="666.016" xlink:href="#DejaVuSans-65"/><use x="727.539" xlink:href="#DejaVuSans-72"/><use x="768.652" xlink:href="#DejaVuSans-66"/><use x="803.857" xlink:href="#DejaVuSans-6f"/><use x="865.039" xlink:href="#DejaVuSans-72"/><use x="904.402" xlink:href="#DejaVuSans-6d"/><use x="1001.814" xlink:href="#DejaVuSans-61"/><use x="1063.094" xlink:href="#DejaVuSans-6e"/><use x="1126.473" xlink:href="#DejaVuSans-63"/><use x="1181.453" xlink:href="#DejaVuSans-65"/><use x="1242.977" xlink:href="#DejaVuSans-20"/><use x="1274.764" xlink:href="#DejaVuSans-62"/><use x="1338.24" xlink:href="#DejaVuSans-61"/><use x="1399.52" xlink:href="#DejaVuSans-73"/><use x="1451.619" xlink:href="#DejaVuSans-65"/><use x="1513.143" xlink:href="#DejaVuSans-64"/><use x="1576.619" xlink:href="#DejaVuSans-20"/><use x="1608.406" xlink:href="#DejaVuSans-6f"/><use x="1669.588" xlink:href="#DejaVuSans-6e"/><use x="1732.967" xlink:href="#DejaVuSans-20"/><use x="1764.754" xlink:href="#DejaVuSans-63"/><use x="1819.734" xlink:href="#DejaVuSans-68"/><use x="1883.113" xlink:href="#DejaVuSans-75"/><use x="1946.492" xlink:href="#DejaVuSans-6e"/><use x="2009.871" xlink:href="#DejaVuSans-6b"/><use x="2067.781" xlink:href="#DejaVuSans-20"/><use x="2099.568" xlink:href="#DejaVuSans-73"/><use x="2151.668" xlink:href="#DejaVuSans-69"/><use x="2179.451" xlink:href="#DejaVuSans-7a"/><use x="2231.941" xlink:href="#DejaVuSans-65"/></g></g><g id="legend_1"><g id="patch_7"><path d="M 259.15125 122.862625 L 407.72 122.862625 Q 409.72 122.862625 409.72 120.862625 L 409.72 48.472 Q 409.72 46.472 407.72 46.472 L 259.15125 46.472 Q 257.15125 46.472 257.15125 48.472 L 257.15125 120.862625 Q 257.15125 122.862625 259.15125 122.862625 z" style="fill:#fff;opacity:.8;stroke:#ccc;stroke-linejoin:miter"/></g><g id="line2d_42"><path d="M 261.15125 54.570438 L 271.15125 54.570438 L 281.15125 54.570438" style="fill:none;stroke:#1f77b4;stroke-width:1.5;stroke-linecap:square"/></g><g id="text_16"><g transform="translate(289.15125 58.070438)scale(0.1 -0.1)"><defs><path id="DejaVuSans-41" d="M 2188 4044 L 1331 1722 L 3047 1722 L 2188 4044 z M 1831 4666 L 2547 4666 L 4325 0 L 3669 0 L 3244 1197 L 1141 1197 L 716 0 L 50 0 L 1831 4666 z" transform="scale(0.015625)"/></defs><use xlink:href="#DejaVuSans-41"/><use x="68.408" xlink:href="#DejaVuSans-6c"/><use x="96.191" xlink:href="#DejaVuSans-6c"/><use x="123.975" xlink:href="#DejaVuSans-6f"/><use x="185.156" xlink:href="#DejaVuSans-63"/><use x="240.137" xlink:href="#DejaVuSans-61"/><use x="301.416" xlink:href="#DejaVuSans-74"/><use x="340.625" xlink:href="#DejaVuSans-65"/><use x="402.148" xlink:href="#DejaVuSans-20"/><use x="433.936" xlink:href="#DejaVuSans-6f"/><use x="495.117" xlink:href="#DejaVuSans-6e"/><use x="558.496" xlink:href="#DejaVuSans-65"/><use x="620.02" xlink:href="#DejaVuSans-73"/></g></g><g id="line2d_43"><path d="M 261.15125 69.248563 L 271.15125 69.248563 L 281.15125 69.248563" style="fill:none;stroke:#ff7f0e;stroke-width:1.5;stroke-linecap:square"/></g><g id="text_17"><g transform="translate(289.15125 72.748563)scale(0.1 -0.1)"><defs><path id="DejaVuSans-67" d="M 2906 1791 Q 2906 2416 2648 2759 Q 2391 3103 1925 3103 Q 1463 3103 1205 2759 Q 947 2416 947 1791 Q 947 1169 1205 825 Q 1463 481 1925 481 Q 2391 481 2648 825 Q 2906 1169 2906 1791 z M 3481 434 Q 3481 -459 3084 -895 Q 2688 -1331 1869 -1331 Q 1566 -1331 1297 -1286 Q 1028 -1241 775 -1147 L 775 -588 Q 1028 -725 1275 -790 Q 1522 -856 1778 -856 Q 2344 -856 2625 -561 Q 2906 -266 2906 331 L 2906 616 Q 2728 306 2450 153 Q 2172 0 1784 0 Q 1141 0 747 490 Q 353 981 353 1791 Q 353 2603 747 3093 Q 1141 3584 1784 3584 Q 2172 3584 2450 3431 Q 2728 3278 2906 2969 L 2906 3500 L 3481 3500 L 3481 434 z" transform="scale(0.015625)"/></defs><use xlink:href="#DejaVuSans-41"/><use x="68.408" xlink:href="#DejaVuSans-6c"/><use x="96.191" xlink:href="#DejaVuSans-6c"/><use x="123.975" xlink:href="#DejaVuSans-6f"/><use x="185.156" xlink:href="#DejaVuSans-63"/><use x="240.137" xlink:href="#DejaVuSans-61"/><use x="301.416" xlink:href="#DejaVuSans-74"/><use x="340.625" xlink:href="#DejaVuSans-65"/><use x="402.148" xlink:href="#DejaVuSans-20"/><use x="433.936" xlink:href="#DejaVuSans-72"/><use x="475.049" xlink:href="#DejaVuSans-61"/><use x="536.328" xlink:href="#DejaVuSans-6e"/><use x="599.707" xlink:href="#DejaVuSans-67"/><use x="663.184" xlink:href="#DejaVuSans-65"/></g></g><g id="line2d_44"><path d="M 261.15125 83.926688 L 271.15125 83.926688 L 281.15125 83.926688" style="fill:none;stroke:#2ca02c;stroke-width:1.5;stroke-linecap:square"/></g><g id="text_18"><g transform="translate(289.15125 87.426688)scale(0.1 -0.1)"><defs><path id="DejaVuSans-53" d="M 3425 4513 L 3425 3897 Q 3066 4069 2747 4153 Q 2428 4238 2131 4238 Q 1616 4238 1336 4038 Q 1056 3838 1056 3469 Q 1056 3159 1242 3001 Q 1428 2844 1947 2747 L 2328 2669 Q 3034 2534 3370 2195 Q 3706 1856 3706 1288 Q 3706 609 3251 259 Q 2797 -91 1919 -91 Q 1588 -91 1214 -16 Q 841 59 441 206 L 441 856 Q 825 641 1194 531 Q 1563 422 1919 422 Q 2459 422 2753 634 Q 3047 847 3047 1241 Q 3047 1584 2836 1778 Q 2625 1972 2144 2069 L 1759 2144 Q 1053 2284 737 2584 Q 422 2884 422 3419 Q 422 4038 858 4394 Q 1294 4750 2059 4750 Q 2388 4750 2728 4690 Q 3069 4631 3425 4513 z" transform="scale(0.015625)"/><path id="DejaVuSans-71" d="M 947 1747 Q 947 1113 1208 752 Q 1469 391 1925 391 Q 2381 391 2643 752 Q 2906 1113 2906 1747 Q 2906 2381 2643 2742 Q 2381 3103 1925 3103 Q 1469 3103 1208 2742 Q 947 2381 947 1747 z M 2906 525 Q 2725 213 2448 61 Q 2172 -91 1784 -91 Q 1150 -91 751 415 Q 353 922 353 1747 Q 353 2572 751 3078 Q 1150 3584 1784 3584 Q 2172 3584 2448 3432 Q 2725 3281 2906 2969 L 2906 3500 L 3481 3500 L 3481 -1331 L 2906 -1331 L 2906 525 z" transform="scale(0.015625)"/></defs><use xlink:href="#DejaVuSans-53"/><use x="63.477" xlink:href="#DejaVuSans-71"/><use x="126.953" xlink:href="#DejaVuSans-75"/><use x="190.332" xlink:href="#DejaVuSans-61"/><use x="251.611" xlink:href="#DejaVuSans-72"/><use x="290.475" xlink:href="#DejaVuSans-65"/><use x="351.998" xlink:href="#DejaVuSans-20"/><use x="383.785" xlink:href="#DejaVuSans-72"/><use x="424.898" xlink:href="#DejaVuSans-61"/><use x="486.178" xlink:href="#DejaVuSans-6e"/><use x="549.557" xlink:href="#DejaVuSans-67"/><use x="613.033" xlink:href="#DejaVuSans-65"/></g></g><g id="line2d_45"><path d="M 261.15125 98.604813 L 271.15125 98.604813 L 281.15125 98.604813" style="fill:none;stroke:#d62728;stroke-width:1.5;stroke-linecap:square"/></g><g id="text_19"><g transform="translate(289.15125 102.104813)scale(0.1 -0.1)"><defs><path id="DejaVuSans-44" d="M 1259 4147 L 1259 519 L 2022 519 Q 2988 519 3436 956 Q 3884 1394 3884 2338 Q 3884 3275 3436 3711 Q 2988 4147 2022 4147 L 1259 4147 z M 628 4666 L 1925 4666 Q 3281 4666 3915 4102 Q 4550 3538 4550 2338 Q 4550 1131 3912 565 Q 3275 0 1925 0 L 628 0 L 628 4666 z" transform="scale(0.015625)"/><path id="DejaVuSans-79" d="M 2059 -325 Q 1816 -950 1584 -1140 Q 1353 -1331 966 -1331 L 506 -1331 L 506 -850 L 844 -850 Q 1081 -850 1212 -737 Q 1344 -625 1503 -206 L 1606 56 L 191 3500 L 800 3500 L 1894 763 L 2988 3500 L 3597 3500 L 2059 -325 z" transform="scale(0.015625)"/></defs><use xlink:href="#DejaVuSans-44"/><use x="77.002" xlink:href="#DejaVuSans-69"/><use x="104.785" xlink:href="#DejaVuSans-76"/><use x="163.965" xlink:href="#DejaVuSans-69"/><use x="191.748" xlink:href="#DejaVuSans-64"/><use x="255.225" xlink:href="#DejaVuSans-65"/><use x="316.748" xlink:href="#DejaVuSans-20"/><use x="348.535" xlink:href="#DejaVuSans-6f"/><use x="409.717" xlink:href="#DejaVuSans-6e"/><use x="473.096" xlink:href="#DejaVuSans-65"/><use x="534.619" xlink:href="#DejaVuSans-73"/><use x="586.719" xlink:href="#DejaVuSans-20"/><use x="618.506" xlink:href="#DejaVuSans-62"/><use x="681.982" xlink:href="#DejaVuSans-79"/><use x="741.162" xlink:href="#DejaVuSans-20"/><use x="772.949" xlink:href="#DejaVuSans-73"/><use x="825.049" xlink:href="#DejaVuSans-71"/><use x="888.525" xlink:href="#DejaVuSans-75"/><use x="951.904" xlink:href="#DejaVuSans-61"/><use x="1013.184" xlink:href="#DejaVuSans-72"/><use x="1052.047" xlink:href="#DejaVuSans-65"/><use x="1113.57" xlink:href="#DejaVuSans-73"/></g></g><g id="line2d_46"><path d="M 261.15125 113.282938 L 271.15125 113.282938 L 281.15125 113.282938" style="fill:none;stroke:#9467bd;stroke-width:1.5;stroke-linecap:square"/></g><g id="text_20"><g transform="translate(289.15125 116.782938)scale(0.1 -0.1)"><defs><path id="DejaVuSans-46" d="M 628 4666 L 3309 4666 L 3309 4134 L 1259 4134 L 1259 2759 L 3109 2759 L 3109 2228 L 1259 2228 L 1259 0 L 628 0 L 628 4666 z" transform="scale(0.015625)"/></defs><use xlink:href="#DejaVuSans-46"/><use x="50.27" xlink:href="#DejaVuSans-69"/><use x="78.053" xlink:href="#DejaVuSans-6e"/><use x="141.432" xlink:href="#DejaVuSans-61"/><use x="202.711" xlink:href="#DejaVuSans-6c"/><use x="230.494" xlink:href="#DejaVuSans-20"/><use x="262.281" xlink:href="#DejaVuSans-73"/><use x="314.381" xlink:href="#DejaVuSans-75"/><use x="377.76" xlink:href="#DejaVuSans-6d"/></g></g></g></g></g><defs><clipPath id="p202e97f4b5"><rect width="357.12" height="266.112" x="57.6" y="41.472"/></clipPath></defs></svg>