<?xml version="1.0" standalone="no"?>
<!DOCTYPE svg PUBLIC "-//W3C//DTD SVG 20010904//EN"
 "http://www.w3.org/TR/2001/REC-SVG-20010904/DTD/svg10.dtd">
<svg version="1.0" xmlns="http://www.w3.org/2000/svg"
 width="2000.000000pt" height="2000.000000pt" viewBox="0 0 2000.000000 2000.000000"
 preserveAspectRatio="xMidYMid meet">
<metadata>
Created by potrace 1.14, written by Peter Selinger 2001-2017
</metadata>
<g transform="translate(0.000000,2000.000000) scale(0.100000,-0.100000)"
fill="#000000" stroke="none">
<path d="M0 10000 l0 -10000 10000 0 10000 0 0 10000 0 10000 -10000 0 -10000
0 0 -10000z m10719 7305 c56 -29 72 -102 51 -243 -8 -63 -16 -289 -40 -1307
-22 -890 -40 -2696 -40 -3962 0 -733 3 -1333 6 -1333 13 0 769 656 1163 1009
321 288 342 304 488 365 97 41 295 103 453 141 731 177 1448 104 2110 -216
327 -159 548 -314 756 -532 314 -329 471 -723 538 -1352 8 -77 18 -162 21
-190 3 -27 9 -592 14 -1255 7 -1014 36 -2626 55 -3130 7 -169 30 -336 62 -446
55 -190 118 -262 274 -308 58 -17 445 -35 773 -36 l157 0 0 -241 0 -241 -102
6 c-588 35 -1621 41 -2352 13 -242 -10 -440 -16 -442 -15 -1 2 2 41 6 88 28
276 64 800 91 1335 16 319 24 3158 10 3480 -18 387 -50 654 -106 868 -70 269
-207 493 -437 713 -137 130 -255 215 -403 289 -294 146 -600 204 -1019 192
-372 -11 -639 -72 -924 -213 -324 -160 -661 -458 -918 -811 -126 -171 -178
-310 -205 -538 -20 -174 -23 -1667 -5 -2585 31 -1551 37 -1689 77 -1899 48
-250 120 -350 289 -402 56 -17 111 -21 405 -30 187 -5 396 -10 465 -12 l125
-2 3 -239 2 -238 -127 6 c-224 12 -932 35 -1431 47 -371 9 -597 9 -980 0 -519
-12 -1275 -35 -1519 -47 l-143 -6 0 241 0 241 375 0 c501 0 609 13 718 89 89
61 129 123 166 261 50 184 59 351 91 1763 18 773 20 1168 20 3625 0 2586 -5
3246 -30 4122 -32 1140 -61 1556 -114 1658 -19 37 -77 88 -121 106 -76 32
-373 56 -710 56 -104 0 -247 3 -317 7 l-128 6 0 244 c0 153 4 243 10 243 36 0
588 79 839 120 711 117 1284 258 1626 401 55 23 136 57 180 75 88 37 149 43
194 19z m-5316 -2712 c51 -42 93 -78 95 -79 2 -1 -8 -116 -22 -255 -43 -429
-85 -1049 -131 -1939 -39 -766 -44 -865 -41 -868 2 -1 270 -3 597 -3 621 -1
1296 13 1558 32 l154 11 30 -30 30 -30 -67 -299 c-37 -164 -77 -336 -87 -383
l-20 -85 -1094 0 c-602 -1 -1096 -3 -1098 -5 -8 -9 -61 -3657 -61 -4180 1
-311 5 -555 12 -615 32 -282 141 -520 311 -678 153 -141 323 -211 650 -266
140 -24 313 -27 531 -11 216 17 360 46 588 121 68 23 125 39 127 38 5 -6 95
-303 95 -315 0 -6 -51 -51 -112 -100 -139 -111 -397 -330 -540 -457 -106 -95
-109 -96 -217 -131 -346 -112 -608 -148 -1076 -149 -483 -1 -723 54 -1022 234
-370 224 -596 550 -682 984 -50 251 -56 331 -54 695 2 190 8 460 14 600 8 165
13 949 16 2224 l4 1969 -388 -6 c-213 -4 -455 -11 -538 -17 -82 -5 -196 -12
-253 -16 l-102 -7 2 174 3 173 350 141 c409 164 578 237 808 348 l167 80 0
546 c0 621 -14 1367 -31 1706 -7 127 -12 243 -13 259 -1 28 2 30 169 91 449
165 796 322 1100 499 72 41 134 75 138 76 5 0 50 -35 100 -77z"/>
</g>
</svg>
